<svg width="143" height="107" viewBox="0 0 143 107" fill="none" xmlns="http://www.w3.org/2000/svg">
<path d="M3.9424 2.56H9.0664C9.9624 2.56 10.4104 3.232 10.4104 4.576C10.4664 4.786 10.4944 5.402 10.4944 6.424V6.592C10.3824 8.818 10.3264 10.022 10.3264 10.204V10.792C10.3264 11.03 10.3544 11.338 10.4104 11.716C10.3544 11.8 10.3264 11.968 10.3264 12.22L10.4104 12.808C10.1724 13.704 9.6964 14.152 8.9824 14.152H6.7144C6.4484 14.152 6.1684 14.124 5.8744 14.068C5.6644 14.124 5.4124 14.152 5.1184 14.152H4.1104C3.1584 14.152 2.6824 13.508 2.6824 12.22V6.34C2.6824 5.57 2.6544 4.562 2.5984 3.316C2.5984 2.868 3.0464 2.616 3.9424 2.56ZM4.4464 4.408V4.492C4.5024 5.108 4.5304 5.64 4.5304 6.088V12.304H7.3024C7.5824 12.304 8.0024 12.332 8.5624 12.388V12.304C8.5624 11.548 8.5344 10.932 8.4784 10.456C8.5904 8.986 8.6464 7.362 8.6464 5.584V4.828C8.6464 4.492 8.3664 4.324 7.8064 4.324C6.0844 4.38 4.9644 4.408 4.4464 4.408ZM16.4794 1.195C16.9274 1.405 17.1514 1.685 17.1514 2.035C17.1514 3.323 17.1794 5.563 17.2354 8.755C17.2354 8.979 17.2074 9.483 17.1514 10.267C17.2634 12.101 17.3194 14.369 17.3194 17.071C17.3194 17.505 17.0114 17.813 16.3954 17.995C15.8774 17.995 15.5694 17.603 15.4714 16.819V16.399C15.4714 14.775 15.4434 12.535 15.3874 9.679H13.6234V14.215C13.6234 14.733 13.6514 15.461 13.7074 16.399C13.4834 16.959 13.1754 17.239 12.7834 17.239C12.1674 17.239 11.8594 16.651 11.8594 15.475C11.8034 14.873 11.7754 13.921 11.7754 12.619C11.7754 12.003 11.8034 11.611 11.8594 11.443C11.8034 10.687 11.7754 10.043 11.7754 9.511V2.539C11.7754 1.811 12.0834 1.447 12.6994 1.447C13.3154 1.545 13.6234 1.853 13.6234 2.371V7.831H13.7074C13.8614 7.831 14.4214 7.859 15.3874 7.915V7.579C15.3874 6.417 15.3594 4.653 15.3034 2.287C15.3034 1.587 15.6954 1.223 16.4794 1.195ZM23.5428 2.119C25.0548 2.119 26.2588 2.91 27.1548 4.492C27.3788 5.206 27.5188 5.794 27.5748 6.256C27.5748 8.076 26.5388 9.455 24.4668 10.393C24.0888 10.449 23.7808 10.477 23.5428 10.477H22.7028C21.0228 10.477 19.8188 9.392 19.0908 7.222L19.0068 6.34C19.0068 4.24 20.1268 2.833 22.3668 2.119H23.5428ZM20.8548 6.34C20.8548 7.6 21.5268 8.363 22.8708 8.629C24.4248 8.629 25.3768 7.929 25.7268 6.529V6.256C25.7268 5.15 24.9988 4.387 23.5428 3.967C22.3108 3.967 21.4428 4.464 20.9388 5.458L20.8548 6.34ZM31.1238 1.321H31.2918C31.7818 1.321 32.0618 1.685 32.1318 2.413V4.765C32.1318 6.165 32.1598 8.153 32.2158 10.729C32.1178 10.981 31.9218 11.205 31.6278 11.401H31.0398C30.5358 11.401 30.2838 10.113 30.2838 7.537V6.025L30.3678 5.521C30.3118 5.157 30.2838 4.793 30.2838 4.429V2.329C30.3398 1.657 30.6198 1.321 31.1238 1.321ZM21.8628 11.485H27.4908C30.4028 11.485 31.8588 11.625 31.8588 11.905C32.0268 12.339 32.1108 13.039 32.1108 14.005C32.1108 15.349 31.5228 16.021 30.3468 16.021C28.9748 16.077 26.4548 16.133 22.7868 16.189V17.155H26.5668C27.5468 17.155 28.5548 17.183 29.5908 17.239C29.8428 17.183 30.4588 17.155 31.4388 17.155C31.9708 17.155 32.2508 17.519 32.2788 18.247C32.1108 18.751 31.7468 19.003 31.1868 19.003H22.0308C21.3028 18.877 20.9388 18.597 20.9388 18.163L21.0228 17.575V17.407C21.0228 17.141 20.9948 16.791 20.9388 16.357C20.9388 15.013 21.4148 14.341 22.3668 14.341C22.5908 14.341 22.7028 14.369 22.7028 14.425C22.7588 14.425 22.9828 14.397 23.3748 14.341C26.9308 14.285 29.0308 14.257 29.6748 14.257L30.2628 14.173V13.333C27.6728 13.277 25.6568 13.249 24.2148 13.249H22.1148C21.9888 13.249 21.8768 13.277 21.7788 13.333C21.4008 13.333 21.0928 13.109 20.8548 12.661V12.325C20.8548 11.821 21.1908 11.541 21.8628 11.485ZM46.5036 2.056H46.6716C47.1196 2.056 47.3996 2.364 47.5116 2.98V9.406C47.5116 10.19 47.1476 10.582 46.4196 10.582H43.2276C40.9876 10.582 39.8676 10.218 39.8676 9.49V3.484C39.8676 3.036 40.0636 2.7 40.4556 2.476H40.8756C41.3796 2.546 41.6316 2.798 41.6316 3.232V3.736L41.7156 4.744H45.7476V4.66C45.7476 4.366 45.7196 3.806 45.6636 2.98C45.7756 2.364 46.0556 2.056 46.5036 2.056ZM41.8836 6.592H41.6316L41.7156 8.23V8.734H45.7476L45.6636 7.894V6.592H45.5796C44.9216 6.592 44.3896 6.564 43.9836 6.508C43.4236 6.564 42.7236 6.592 41.8836 6.592ZM51.1026 1.3C51.4526 1.3 51.7326 1.552 51.9426 2.056C51.9986 3.428 52.0266 4.52 52.0266 5.332V5.416H53.8746C54.4206 5.416 54.7286 5.752 54.7986 6.424C54.6026 6.928 54.3226 7.18 53.9586 7.18H51.9426V7.264C51.9426 7.6 51.9706 7.768 52.0266 7.768L51.9426 8.608V10.372C51.9426 10.498 51.9706 10.61 52.0266 10.708C51.8726 11.38 51.5366 11.716 51.0186 11.716C50.4586 11.562 50.1786 11.254 50.1786 10.792V4.324C50.1786 3.764 50.1506 3.092 50.0946 2.308C50.2486 1.636 50.5846 1.3 51.1026 1.3ZM45.7056 11.779C48.3796 11.835 50.3396 11.863 51.5856 11.863C52.1456 11.989 52.4256 12.269 52.4256 12.703V12.787C52.4256 13.305 52.0336 13.613 51.2496 13.711C48.5336 13.655 46.2936 13.627 44.5296 13.627H43.2696L43.1016 13.711L43.1856 13.879V14.215C43.1856 14.607 43.2136 15.503 43.2696 16.903H47.5536C48.9676 16.903 50.3396 16.847 51.6696 16.735C52.2296 16.931 52.5096 17.267 52.5096 17.743C52.5096 18.359 51.7396 18.667 50.1996 18.667C49.2336 18.723 48.5756 18.751 48.2256 18.751C45.5936 18.695 43.5776 18.667 42.1776 18.667C41.9116 18.667 41.6596 18.415 41.4216 17.911C41.4776 17.617 41.5056 17.449 41.5056 17.407C41.3936 16.035 41.3376 14.943 41.3376 14.131V12.787C41.3376 12.353 41.5896 12.045 42.0936 11.863C42.9616 11.863 44.1656 11.835 45.7056 11.779ZM63.264 0.921999C66.904 0.936 69.004 1.832 69.5641 3.61C69.6201 3.918 69.6481 4.17 69.6481 4.366C69.6481 6.13 67.9961 7.222 64.692 7.642H64.356C60.268 7.642 58.224 6.578 58.224 4.45C58.224 2.812 59.428 1.692 61.836 1.09C62.564 0.977999 63.04 0.921999 63.264 0.921999ZM60.072 4.366V4.45C60.072 5.346 61.584 5.794 64.608 5.794C65.966 5.794 67.0581 5.346 67.8841 4.45V4.366C67.8841 3.582 66.7641 3.05 64.524 2.77C64.468 2.77 64.44 2.798 64.44 2.854C64.02 2.798 63.74 2.742 63.6 2.686C61.248 2.966 60.072 3.526 60.072 4.366ZM57.405 8.503C58.245 8.559 58.861 8.587 59.253 8.587H60.681C63.019 8.587 66.211 8.615 70.257 8.671C70.7611 8.867 71.0131 9.147 71.0131 9.511V9.679C70.8871 10.239 70.6071 10.519 70.173 10.519C67.6951 10.463 65.7631 10.435 64.377 10.435H60.345C60.289 10.435 60.261 10.407 60.261 10.351C60.205 10.351 60.177 10.379 60.177 10.435L59.757 10.351H57.321C56.957 10.351 56.677 10.155 56.481 9.763V9.427C56.481 9.007 56.789 8.699 57.405 8.503ZM59.274 12.178C59.946 12.178 60.282 13.438 60.282 15.958V16.882H64.734C65.7421 16.882 67.1141 16.854 68.8501 16.798C69.4101 16.952 69.69 17.232 69.69 17.638V17.806C69.69 18.184 69.438 18.464 68.934 18.646C66.526 18.702 64.678 18.73 63.39 18.73H59.526C58.798 18.73 58.434 18.142 58.434 16.966C58.434 15.286 58.406 13.942 58.35 12.934C58.532 12.43 58.84 12.178 59.274 12.178ZM86.0898 1.909H86.2578C86.7478 1.909 87.0278 2.273 87.0978 3.001V3.757C87.2798 3.757 87.7558 3.785 88.5258 3.841C88.7358 3.841 89.5198 3.813 90.8778 3.757C91.8858 3.757 92.3898 4.037 92.3898 4.597V4.849C92.3898 5.353 92.0818 5.605 91.4658 5.605H87.0978V5.689C87.0978 6.809 87.9378 7.985 89.6178 9.217C91.6898 10.029 92.7258 10.589 92.7258 10.897C92.7258 10.925 92.7538 11.037 92.8098 11.233C92.6698 11.793 92.3618 12.073 91.8858 12.073C89.9958 11.569 88.4558 10.757 87.2658 9.637C86.5658 9.007 86.2018 8.559 86.1738 8.293C84.8578 10.057 82.9258 11.317 80.3778 12.073C79.9158 12.073 79.6358 11.737 79.5378 11.065C79.5378 10.631 80.4338 10.071 82.2258 9.385C84.1858 8.097 85.1658 6.893 85.1658 5.773V5.605C84.8018 5.605 83.3458 5.633 80.7978 5.689C80.3918 5.689 80.1398 5.353 80.0418 4.681V4.597C80.2658 4.093 80.6578 3.841 81.2178 3.841H82.1418C82.7998 3.841 83.8358 3.813 85.2498 3.757V2.917C85.3058 2.245 85.5858 1.909 86.0898 1.909ZM86.2158 11.17C86.7758 11.31 87.0558 11.618 87.0558 12.094L87.0768 15.139H90.8568C91.1788 15.139 91.6268 15.167 92.2008 15.223C92.2988 15.167 92.4388 15.139 92.6208 15.139C93.1808 15.293 93.4608 15.573 93.4608 15.979V16.147C93.3348 16.707 93.0548 16.987 92.6208 16.987C86.0408 16.931 81.7568 16.903 79.7688 16.903C78.9848 16.903 78.5928 16.623 78.5928 16.063V15.895C78.5928 15.447 78.9008 15.167 79.5168 15.055H85.2288C85.2288 14.943 85.2358 14.411 85.2498 13.459C85.2218 12.717 85.2078 12.262 85.2078 12.094C85.2078 11.632 85.5438 11.324 86.2158 11.17ZM106.989 0.816999C107.619 0.816999 108.039 1.321 108.249 2.329C108.081 5.353 107.997 7.173 107.997 7.789C107.997 8.251 107.689 8.531 107.073 8.629C106.625 8.629 106.345 8.321 106.233 7.705V5.857C102.061 5.913 99.3167 5.969 98.0007 6.025C97.5247 6.025 97.2167 5.689 97.0767 5.017C97.0767 4.625 97.3567 4.345 97.9167 4.177C99.7507 4.121 101.179 4.093 102.201 4.093H106.233C106.345 4.093 106.401 4.037 106.401 3.925V2.665H100.689C100.339 2.665 99.9187 2.693 99.4287 2.749C97.9727 2.749 97.2447 2.469 97.2447 1.909V1.489C97.4407 1.097 97.7207 0.900999 98.0847 0.900999C100.297 0.900999 103.265 0.872999 106.989 0.816999ZM102.453 6.193H102.873C103.265 6.417 103.461 6.753 103.461 7.201V8.629H104.133C104.973 8.629 106.345 8.685 108.249 8.797L109.089 8.713C109.593 8.881 109.845 9.161 109.845 9.553V9.721C109.719 10.281 109.439 10.561 109.005 10.561C108.459 10.561 105.547 10.505 100.269 10.393C98.0287 10.449 96.7407 10.477 96.4047 10.477C95.5647 10.379 95.1447 10.071 95.1447 9.553V9.469C95.2567 8.909 95.5367 8.629 95.9847 8.629C97.0067 8.629 98.9107 8.601 101.697 8.545L101.613 8.377V7.705C101.613 6.697 101.893 6.193 102.453 6.193ZM97.7277 11.485H103.356C106.268 11.485 107.724 11.625 107.724 11.905C107.892 12.339 107.976 13.039 107.976 14.005C107.976 15.349 107.388 16.021 106.212 16.021C104.84 16.077 102.32 16.133 98.6517 16.189V17.155H102.432C103.412 17.155 104.42 17.183 105.456 17.239C105.708 17.183 106.324 17.155 107.304 17.155C107.836 17.155 108.116 17.519 108.144 18.247C107.976 18.751 107.612 19.003 107.052 19.003H97.8957C97.1677 18.877 96.8037 18.597 96.8037 18.163L96.8877 17.575V17.407C96.8877 17.141 96.8597 16.791 96.8037 16.357C96.8037 15.013 97.2797 14.341 98.2317 14.341C98.4557 14.341 98.5677 14.369 98.5677 14.425C98.6237 14.425 98.8477 14.397 99.2397 14.341C102.796 14.285 104.896 14.257 105.54 14.257L106.128 14.173V13.333C103.538 13.277 101.522 13.249 100.08 13.249H97.9797C97.8537 13.249 97.7417 13.277 97.6437 13.333C97.2657 13.333 96.9577 13.109 96.7197 12.661V12.325C96.7197 11.821 97.0557 11.541 97.7277 11.485ZM117.581 2.245C118.421 2.399 118.841 2.791 118.841 3.421C118.841 5.885 118.589 7.117 118.085 7.117C118.085 7.243 117.861 7.355 117.413 7.453C115.761 7.509 114.417 7.537 113.381 7.537V9.175H113.549C114.669 9.175 116.426 9.154 118.82 9.112C119.268 9.35 119.492 9.63 119.492 9.952C119.492 10.624 118.764 10.96 117.308 10.96C115.922 11.002 114.389 11.023 112.709 11.023C111.981 10.883 111.617 10.575 111.617 10.099C111.561 8.265 111.533 7.019 111.533 6.361C111.701 5.913 112.037 5.689 112.541 5.689H115.649C115.929 5.689 116.349 5.661 116.909 5.605V5.521C116.965 4.653 116.993 4.177 116.993 4.093H116.909C116.293 4.149 115.761 4.177 115.313 4.177H112.625C111.953 4.121 111.617 3.841 111.617 3.337V3.169C111.617 2.665 111.953 2.385 112.625 2.329H116.405C116.713 2.329 117.105 2.301 117.581 2.245ZM123.23 1.321H123.398C123.888 1.321 124.168 1.685 124.238 2.413V4.765C124.238 6.165 124.266 8.153 124.322 10.729C124.224 10.981 124.028 11.205 123.734 11.401H123.146C122.642 11.401 122.39 10.113 122.39 7.537V6.025L122.474 5.521C122.418 5.157 122.39 4.793 122.39 4.429V2.329C122.446 1.657 122.726 1.321 123.23 1.321ZM118.715 11.863C119.289 11.863 119.653 12.388 119.807 13.438C120.353 14.922 121.641 16.147 123.671 17.113C124.567 17.239 125.015 17.617 125.015 18.247C124.875 18.835 124.567 19.129 124.091 19.129C122.957 19.129 121.389 18.191 119.387 16.315C118.939 15.755 118.715 15.405 118.715 15.265H118.631C117.735 16.847 116.083 18.107 113.675 19.045C113.591 19.101 113.423 19.129 113.171 19.129C112.793 19.129 112.541 18.835 112.415 18.247V18.163C112.415 17.617 113.059 17.148 114.347 16.756C116.139 15.622 117.231 14.488 117.623 13.354C117.819 12.36 118.183 11.863 118.715 11.863ZM131.436 2.917H132.381C133.739 2.917 134.88 3.897 135.804 5.857C135.916 6.277 135.972 6.669 135.972 7.033V7.453C135.972 8.377 135.412 9.301 134.292 10.225C133.578 10.729 132.808 10.981 131.982 10.981H131.919C129.651 10.981 128.216 9.889 127.614 7.705V7.033C127.614 5.045 128.622 3.701 130.638 3.001C130.918 2.945 131.184 2.917 131.436 2.917ZM129.336 7.117C129.336 8.097 130.022 8.769 131.394 9.133H132.276C133.256 9.133 133.942 8.489 134.334 7.201C134.334 6.221 133.753 5.409 132.591 4.765C132.381 4.709 132.171 4.681 131.961 4.681C130.309 4.849 129.483 5.465 129.483 6.529C129.413 6.529 129.364 6.725 129.336 7.117ZM139.395 1.216H139.479C140.039 1.286 140.319 1.566 140.319 2.056V6.424C140.319 7.124 140.347 7.768 140.403 8.356C140.347 8.678 140.319 9.126 140.319 9.7C140.319 10.708 140.347 11.688 140.403 12.64C140.347 13.634 140.319 14.894 140.319 16.42C140.319 17.54 140.011 18.1 139.395 18.1H139.311C138.807 18.1 138.527 17.764 138.471 17.092C138.471 15.636 138.499 13.984 138.555 12.136C138.499 11.016 138.471 10.26 138.471 9.868C138.471 9.546 138.499 9.098 138.555 8.524C138.499 7.278 138.471 5.99 138.471 4.66V2.392C138.555 1.608 138.863 1.216 139.395 1.216ZM137.547 12.052C138.051 12.22 138.303 12.5 138.303 12.892V12.976C138.303 13.704 137.351 14.068 135.447 14.068L127.551 14.488C126.991 14.362 126.711 14.082 126.711 13.648V13.48C126.711 12.99 127.075 12.71 127.803 12.64C128.727 12.64 131.975 12.444 137.547 12.052ZM5.68074 24.35H8.11674C9.22274 24.35 10.8747 24.378 13.0727 24.434C13.5767 24.616 13.8287 24.924 13.8287 25.358C13.8287 25.876 13.4647 26.184 12.7367 26.282C12.4287 26.282 11.6447 26.254 10.3847 26.198C10.3847 28.13 11.5887 29.782 13.9967 31.154L14.1647 31.742C14.0107 32.302 13.7307 32.582 13.3247 32.582H12.9887C11.8687 32.26 10.6367 31.14 9.29274 29.222C8.67674 30.524 7.61274 31.644 6.10074 32.582L5.51274 32.666H5.42874C4.96674 32.666 4.68674 32.358 4.58874 31.742C4.58874 31.42 5.17674 30.888 6.35274 30.146C7.55674 28.956 8.22874 27.64 8.36874 26.198H7.94874C5.87674 26.198 4.84074 26.002 4.84074 25.61L4.75674 25.19C4.91074 24.63 5.21874 24.35 5.68074 24.35ZM17.8187 23.3C18.2667 23.3 18.5467 23.692 18.6587 24.476V27.164C18.6587 28.298 18.6307 29.502 18.5747 30.776C18.6307 31.07 18.6587 31.602 18.6587 32.372C18.5887 33.1 18.3087 33.464 17.8187 33.464H17.3987C17.0067 33.268 16.8107 32.988 16.8107 32.624V31.028C16.8107 30.79 16.7827 30.566 16.7267 30.356C16.7827 30.132 16.8107 29.908 16.8107 29.684V29.18H14.8787C14.2067 29.124 13.8707 28.844 13.8707 28.34V28.256C13.8707 27.64 14.3467 27.332 15.2987 27.332H16.8107V24.224C16.8107 23.678 17.1467 23.37 17.8187 23.3ZM8.01174 33.485H13.6397C16.5517 33.485 18.0077 33.625 18.0077 33.905C18.1757 34.339 18.2597 35.039 18.2597 36.005C18.2597 37.349 17.6717 38.021 16.4957 38.021C15.1237 38.077 12.6037 38.133 8.93574 38.189V39.155H12.7157C13.6957 39.155 14.7037 39.183 15.7397 39.239C15.9917 39.183 16.6077 39.155 17.5877 39.155C18.1197 39.155 18.3997 39.519 18.4277 40.247C18.2597 40.751 17.8957 41.003 17.3357 41.003H8.17974C7.45174 40.877 7.08774 40.597 7.08774 40.163L7.17174 39.575V39.407C7.17174 39.141 7.14374 38.791 7.08774 38.357C7.08774 37.013 7.56374 36.341 8.51574 36.341C8.73974 36.341 8.85174 36.369 8.85174 36.425C8.90774 36.425 9.13174 36.397 9.52374 36.341C13.0797 36.285 15.1797 36.257 15.8237 36.257L16.4117 36.173V35.333C13.8217 35.277 11.8057 35.249 10.3637 35.249H8.26374C8.13774 35.249 8.02574 35.277 7.92774 35.333C7.54974 35.333 7.24174 35.109 7.00374 34.661V34.325C7.00374 33.821 7.33974 33.541 8.01174 33.485ZM26.9769 24.056H27.1449C27.5929 24.056 27.8729 24.364 27.9849 24.98V31.406C27.9849 32.19 27.6209 32.582 26.8929 32.582H23.7009C21.4609 32.582 20.3409 32.218 20.3409 31.49V25.484C20.3409 25.036 20.5369 24.7 20.9289 24.476H21.3489C21.8529 24.546 22.1049 24.798 22.1049 25.232V25.736L22.1889 26.744H26.2209V26.66C26.2209 26.366 26.1929 25.806 26.1369 24.98C26.2489 24.364 26.5289 24.056 26.9769 24.056ZM22.3569 28.592H22.1049L22.1889 30.23V30.734H26.2209L26.1369 29.894V28.592H26.0529C25.3949 28.592 24.8629 28.564 24.4569 28.508C23.8969 28.564 23.1969 28.592 22.3569 28.592ZM31.5759 23.3C31.9259 23.3 32.2059 23.552 32.4159 24.056C32.4719 25.428 32.4999 26.52 32.4999 27.332V27.416H34.3479C34.8939 27.416 35.2019 27.752 35.2719 28.424C35.0759 28.928 34.7959 29.18 34.4319 29.18H32.4159V29.264C32.4159 29.6 32.4439 29.768 32.4999 29.768L32.4159 30.608V32.372C32.4159 32.498 32.4439 32.61 32.4999 32.708C32.3459 33.38 32.0099 33.716 31.4919 33.716C30.9319 33.562 30.6519 33.254 30.6519 32.792V26.324C30.6519 25.764 30.6239 25.092 30.5679 24.308C30.7219 23.636 31.0579 23.3 31.5759 23.3ZM22.7769 34.178C23.4489 34.178 23.7849 35.438 23.7849 37.958V38.882H28.2369C29.2449 38.882 30.6169 38.854 32.3529 38.798C32.9129 38.952 33.1929 39.232 33.1929 39.638V39.806C33.1929 40.184 32.9409 40.464 32.4369 40.646C30.0289 40.702 28.1809 40.73 26.8929 40.73H23.0289C22.3009 40.73 21.9369 40.142 21.9369 38.966C21.9369 37.286 21.9089 35.942 21.8529 34.934C22.0349 34.43 22.3429 34.178 22.7769 34.178ZM43.7374 22.922C47.3774 22.936 49.4774 23.832 50.0374 25.61C50.0934 25.918 50.1214 26.17 50.1214 26.366C50.1214 28.13 48.4694 29.222 45.1654 29.642H44.8294C40.7414 29.642 38.6974 28.578 38.6974 26.45C38.6974 24.812 39.9014 23.692 42.3094 23.09C43.0374 22.978 43.5134 22.922 43.7374 22.922ZM40.5454 26.366V26.45C40.5454 27.346 42.0574 27.794 45.0814 27.794C46.4394 27.794 47.5314 27.346 48.3574 26.45V26.366C48.3574 25.582 47.2374 25.05 44.9974 24.77C44.9414 24.77 44.9134 24.798 44.9134 24.854C44.4934 24.798 44.2134 24.742 44.0734 24.686C41.7214 24.966 40.5454 25.526 40.5454 26.366ZM37.8784 30.503C38.7184 30.559 39.3344 30.587 39.7264 30.587H41.1544C43.4924 30.587 46.6844 30.615 50.7304 30.671C51.2344 30.867 51.4864 31.147 51.4864 31.511V31.679C51.3604 32.239 51.0804 32.519 50.6464 32.519C48.1684 32.463 46.2364 32.435 44.8504 32.435H40.8184C40.7624 32.435 40.7344 32.407 40.7344 32.351C40.6784 32.351 40.6504 32.379 40.6504 32.435L40.2304 32.351H37.7944C37.4304 32.351 37.1504 32.155 36.9544 31.763V31.427C36.9544 31.007 37.2624 30.699 37.8784 30.503ZM39.6214 33.485H45.2494C48.1614 33.485 49.6174 33.625 49.6174 33.905C49.7854 34.339 49.8694 35.039 49.8694 36.005C49.8694 37.349 49.2814 38.021 48.1054 38.021C46.7334 38.077 44.2134 38.133 40.5454 38.189V39.155H44.3254C45.3054 39.155 46.3134 39.183 47.3494 39.239C47.6014 39.183 48.2174 39.155 49.1974 39.155C49.7294 39.155 50.0094 39.519 50.0374 40.247C49.8694 40.751 49.5054 41.003 48.9454 41.003H39.7894C39.0614 40.877 38.6974 40.597 38.6974 40.163L38.7814 39.575V39.407C38.7814 39.141 38.7534 38.791 38.6974 38.357C38.6974 37.013 39.1734 36.341 40.1254 36.341C40.3494 36.341 40.4614 36.369 40.4614 36.425C40.5174 36.425 40.7414 36.397 41.1334 36.341C44.6894 36.285 46.7894 36.257 47.4334 36.257L48.0214 36.173V35.333C45.4314 35.277 43.4154 35.249 41.9734 35.249H39.8734C39.7474 35.249 39.6354 35.277 39.5374 35.333C39.1594 35.333 38.8514 35.109 38.6134 34.661V34.325C38.6134 33.821 38.9494 33.541 39.6214 33.485ZM63.6021 24.119C65.1141 24.119 66.3181 24.91 67.2141 26.492C67.4381 27.206 67.5781 27.794 67.6341 28.256C67.6341 30.076 66.5981 31.455 64.5261 32.393C64.1481 32.449 63.8401 32.477 63.6021 32.477H62.7621C61.0821 32.477 59.8781 31.392 59.1501 29.222L59.0661 28.34C59.0661 26.24 60.1861 24.833 62.4261 24.119H63.6021ZM60.9141 28.34C60.9141 29.6 61.5861 30.363 62.9301 30.629C64.4841 30.629 65.4361 29.929 65.7861 28.529V28.256C65.7861 27.15 65.0581 26.387 63.6021 25.967C62.3701 25.967 61.5021 26.464 60.9981 27.458L60.9141 28.34ZM71.4561 23.216C72.0161 23.44 72.2961 23.748 72.2961 24.14C72.2961 24.308 72.2681 24.392 72.2121 24.392C72.2681 25.316 72.2961 26.016 72.2961 26.492V29.516C72.2961 30.328 72.3241 31.42 72.3801 32.792C72.1841 33.352 71.8481 33.632 71.3721 33.632C70.9381 33.632 70.6581 33.268 70.5321 32.54V31.28H67.5921L67.0881 31.364C66.5281 31.21 66.2481 30.902 66.2481 30.44C66.2481 29.768 66.7521 29.432 67.7601 29.432H70.5321V27.668H67.3401C66.6681 27.612 66.3321 27.332 66.3321 26.828V26.66C66.3321 26.212 66.6401 25.932 67.2561 25.82H70.4481V24.308C70.4481 23.58 70.7841 23.216 71.4561 23.216ZM61.9221 33.485H67.5501C70.4621 33.485 71.9181 33.625 71.9181 33.905C72.0861 34.339 72.1701 35.039 72.1701 36.005C72.1701 37.349 71.5821 38.021 70.4061 38.021C69.0341 38.077 66.5141 38.133 62.8461 38.189V39.155H66.6261C67.6061 39.155 68.6141 39.183 69.6501 39.239C69.9021 39.183 70.5181 39.155 71.4981 39.155C72.0301 39.155 72.3101 39.519 72.3381 40.247C72.1701 40.751 71.8061 41.003 71.2461 41.003H62.0901C61.3621 40.877 60.9981 40.597 60.9981 40.163L61.0821 39.575V39.407C61.0821 39.141 61.0541 38.791 60.9981 38.357C60.9981 37.013 61.4741 36.341 62.4261 36.341C62.6501 36.341 62.7621 36.369 62.7621 36.425C62.8181 36.425 63.0421 36.397 63.4341 36.341C66.9901 36.285 69.0901 36.257 69.7341 36.257L70.3221 36.173V35.333C67.7321 35.277 65.7161 35.249 64.2741 35.249H62.1741C62.0481 35.249 61.9361 35.277 61.8381 35.333C61.4601 35.333 61.1521 35.109 60.9141 34.661V34.325C60.9141 33.821 61.2501 33.541 61.9221 33.485ZM78.364 24.686C79.988 24.686 81.192 25.862 81.976 28.214C82.2 29.362 82.312 30.09 82.312 30.398V31.49C82.312 33.884 81.276 35.508 79.204 36.362C78.714 36.418 78.294 36.446 77.944 36.446C76.32 36.446 75.088 35.13 74.248 32.498C74.136 31.77 74.08 31.238 74.08 30.902C74.08 27.654 75.2 25.61 77.44 24.77C77.566 24.77 77.874 24.742 78.364 24.686ZM75.928 30.986V31.07C75.928 32.778 76.572 33.954 77.86 34.598H78.112C79.736 34.598 80.548 33.366 80.548 30.902C80.198 28.326 79.778 27.038 79.288 27.038C79.064 26.702 78.728 26.534 78.28 26.534H78.028C76.88 26.87 76.208 27.934 76.012 29.726C75.956 29.964 75.928 30.384 75.928 30.986ZM86.617 23.069C86.981 23.069 87.289 23.293 87.541 23.741C87.597 25.771 87.625 27.227 87.625 28.109V39.113C87.625 39.841 87.289 40.205 86.617 40.205C86.057 40.079 85.777 39.715 85.777 39.113V31.385H85.693C83.341 31.385 82.165 31.217 82.165 30.881L82.081 30.461V30.377C82.193 29.761 82.501 29.453 83.005 29.453C83.999 29.509 84.839 29.537 85.525 29.537H85.777V26.345C85.777 25.827 85.749 25.099 85.693 24.161C85.847 23.433 86.155 23.069 86.617 23.069ZM101.562 24.875H101.73C102.22 24.875 102.5 25.239 102.57 25.967C102.626 28.907 102.654 31.147 102.654 32.687C102.402 33.359 101.954 33.695 101.31 33.695H99.7985C98.4125 33.695 97.0405 33.723 95.6825 33.779C95.1085 33.723 94.1005 33.695 92.6585 33.695C91.8745 33.695 91.4825 32.995 91.4825 31.595C91.4265 31.021 91.3985 30.573 91.3985 30.251C91.4545 28.725 91.4825 27.269 91.4825 25.883C91.5805 25.267 91.8605 24.959 92.3225 24.959H92.4905C93.0505 24.959 93.3305 25.379 93.3305 26.219C93.3305 26.317 93.3025 26.821 93.2465 27.731L94.2545 27.815H95.0945C95.8925 27.815 96.4805 27.843 96.8585 27.899C97.3485 27.843 97.9645 27.815 98.7065 27.815H100.722V25.883C100.778 25.211 101.058 24.875 101.562 24.875ZM93.2465 29.579V31.427L93.3305 31.847C94.5345 31.903 95.4305 31.931 96.0185 31.931H98.5385C99.0145 31.931 99.7705 31.903 100.806 31.847V29.663H95.0945C94.7025 29.663 94.0865 29.635 93.2465 29.579ZM96.9425 33.17C97.5025 33.31 97.7825 33.618 97.7825 34.094L97.8035 37.139H101.583C101.905 37.139 102.353 37.167 102.927 37.223C103.025 37.167 103.165 37.139 103.347 37.139C103.907 37.293 104.187 37.573 104.187 37.979V38.147C104.061 38.707 103.781 38.987 103.347 38.987C96.7675 38.931 92.4835 38.903 90.4955 38.903C89.7115 38.903 89.3195 38.623 89.3195 38.063V37.895C89.3195 37.447 89.6275 37.167 90.2435 37.055H95.9555C95.9555 36.943 95.9625 36.411 95.9765 35.459C95.9485 34.717 95.9345 34.262 95.9345 34.094C95.9345 33.632 96.2705 33.324 96.9425 33.17ZM110.491 24.749H110.659C111.219 24.749 111.499 25.281 111.499 26.345C111.499 28.585 112.227 30.937 113.683 33.401C114.579 34.255 115.027 34.815 115.027 35.081V35.249C115.027 35.711 114.719 35.991 114.103 36.089C113.193 35.879 112.185 34.675 111.079 32.477C110.743 31.665 110.575 31.217 110.575 31.133H110.491C108.979 34.605 107.747 36.341 106.795 36.341H106.627C106.123 36.271 105.871 36.019 105.871 35.585V35.417C105.871 35.179 106.319 34.563 107.215 33.569C108.895 31.063 109.735 28.291 109.735 25.253C109.959 24.917 110.211 24.749 110.491 24.749ZM120.592 22.922H120.676C121.026 22.922 121.306 23.146 121.516 23.594C121.516 25.162 121.544 26.814 121.6 28.55C121.544 32.162 121.516 35.606 121.516 38.882C121.418 39.498 121.138 39.806 120.676 39.806H120.508C119.948 39.806 119.668 39.302 119.668 38.294V37.286C119.668 36.684 119.696 36.208 119.752 35.858C119.696 35.382 119.668 34.99 119.668 34.682C119.668 33.1 119.724 31.448 119.836 29.726C119.78 28.69 119.752 27.57 119.752 26.366V23.93C119.808 23.258 120.088 22.922 120.592 22.922ZM117.568 23.258C118.128 23.496 118.408 23.832 118.408 24.266C118.408 24.602 118.38 25.106 118.324 25.778C118.324 26.87 118.352 28.382 118.408 30.314C118.352 33.016 118.324 35.676 118.324 38.294C118.198 38.854 117.918 39.134 117.484 39.134H117.316C116.868 39.134 116.588 38.826 116.476 38.21C116.532 34.43 116.56 32.05 116.56 31.07H116.476C115.902 31.126 115.454 31.154 115.132 31.154H114.712C114.152 31.07 113.872 30.818 113.872 30.398V30.146C113.872 29.53 114.768 29.222 116.56 29.222C116.56 29.012 116.532 28.312 116.476 27.122C116.532 25.33 116.56 24.294 116.56 24.014C116.728 23.51 117.064 23.258 117.568 23.258ZM130.908 24.875C132.952 24.875 134.744 25.575 136.284 26.975C136.844 27.843 137.124 28.935 137.124 30.251C137.124 31.889 135.92 33.233 133.512 34.283C132.532 34.451 131.776 34.535 131.244 34.535H130.74C128.836 34.535 127.24 33.835 125.952 32.435C125.336 31.581 125.028 30.657 125.028 29.663C125.028 28.207 125.756 26.947 127.212 25.883C128.556 25.253 129.788 24.917 130.908 24.875ZM126.876 29.579V29.747C126.876 31.301 127.996 32.281 130.236 32.687H131.328C133.218 32.687 134.506 32.015 135.192 30.671C135.248 30.573 135.276 30.461 135.276 30.335V30.167C135.276 28.669 134.828 27.773 133.932 27.479C132.98 26.975 131.888 26.723 130.656 26.723C129.452 26.723 128.36 27.199 127.38 28.151C127.044 28.795 126.876 29.271 126.876 29.579ZM133.617 33.149C134.233 33.149 134.541 33.625 134.541 34.577V34.745C134.541 35.403 134.569 36.159 134.625 37.013H134.709C135.171 37.013 136.179 37.041 137.733 37.097C138.055 37.209 138.279 37.405 138.405 37.685V38.021C138.293 38.581 138.013 38.861 137.565 38.861H124.125C123.565 38.749 123.285 38.469 123.285 38.021V37.937C123.285 37.321 123.761 37.013 124.713 37.013H127.065L127.149 36.173V34.157C127.247 33.541 127.555 33.233 128.073 33.233C128.591 33.233 128.899 33.625 128.997 34.409V35.585C128.997 35.879 128.969 36.355 128.913 37.013H132.777C132.721 35.165 132.693 34.129 132.693 33.905C132.875 33.401 133.183 33.149 133.617 33.149ZM4.55369 68.392C5.16969 68.49 5.47769 68.77 5.47769 69.232V71.92C5.47769 72.732 5.44969 73.292 5.39369 73.6C5.44969 74.188 5.47769 74.832 5.47769 75.532V80.152L5.89769 80.068C7.35369 80.068 8.08169 80.404 8.08169 81.076V81.244C7.77369 81.748 7.49369 82 7.24169 82L6.73769 81.916C5.11369 81.972 3.76969 82 2.70569 82H1.94969C1.22169 82 0.857688 81.692 0.857688 81.076C0.955688 80.46 1.26369 80.152 1.78169 80.152H3.62969V70.492C2.77569 70.828 2.24369 70.996 2.03369 70.996C1.41769 70.884 1.10969 70.576 1.10969 70.072C1.10969 69.386 2.25769 68.826 4.55369 68.392ZM15.1795 68.392H15.5995C16.3835 68.504 16.7755 68.896 16.7755 69.568C16.7755 69.68 16.7475 69.736 16.6915 69.736L16.7755 70.744V76.456C16.7895 76.568 16.8455 76.624 16.9435 76.624H17.9515C18.3995 76.624 18.6795 76.932 18.7915 77.548C18.6515 78.108 18.3435 78.388 17.8675 78.388H16.7755V81.244C16.7055 81.748 16.4535 82 16.0195 82H15.5995C15.2075 81.804 15.0115 81.524 15.0115 81.16V78.388H14.9275C13.9055 78.388 12.2815 78.36 10.0555 78.304C9.55155 78.122 9.29955 77.814 9.29955 77.38C9.29955 76.862 10.7835 74.398 13.7515 69.988C14.2975 68.924 14.7735 68.392 15.1795 68.392ZM14.8435 71.5L11.7355 76.54H14.9275V76.204C14.9275 75.966 14.9555 75.742 15.0115 75.532L14.9275 75.112C14.9275 74.832 14.9555 74.496 15.0115 74.104C14.9555 73.362 14.9275 72.578 14.9275 71.752V71.5H14.8435ZM24.2514 68.119C25.7634 68.119 26.9674 68.91 27.8634 70.492C28.0874 71.206 28.2274 71.794 28.2834 72.256C28.2834 74.076 27.2474 75.455 25.1754 76.393C24.7974 76.449 24.4894 76.477 24.2514 76.477H23.4114C21.7314 76.477 20.5274 75.392 19.7994 73.222L19.7154 72.34C19.7154 70.24 20.8354 68.833 23.0754 68.119H24.2514ZM21.5634 72.34C21.5634 73.6 22.2354 74.363 23.5794 74.629C25.1334 74.629 26.0854 73.929 26.4354 72.529V72.256C26.4354 71.15 25.7074 70.387 24.2514 69.967C23.0194 69.967 22.1514 70.464 21.6474 71.458L21.5634 72.34ZM31.8324 67.321H32.0004C32.4904 67.321 32.7704 67.685 32.8404 68.413V70.765C32.8404 72.165 32.8684 74.153 32.9244 76.729C32.8264 76.981 32.6304 77.205 32.3364 77.401H31.7484C31.2444 77.401 30.9924 76.113 30.9924 73.537V72.025L31.0764 71.521C31.0204 71.157 30.9924 70.793 30.9924 70.429V68.329C31.0484 67.657 31.3284 67.321 31.8324 67.321ZM22.5714 77.485H28.1994C31.1114 77.485 32.5674 77.625 32.5674 77.905C32.7354 78.339 32.8194 79.039 32.8194 80.005C32.8194 81.349 32.2314 82.021 31.0554 82.021C29.6834 82.077 27.1634 82.133 23.4954 82.189V83.155H27.2754C28.2554 83.155 29.2634 83.183 30.2994 83.239C30.5514 83.183 31.1674 83.155 32.1474 83.155C32.6794 83.155 32.9594 83.519 32.9874 84.247C32.8194 84.751 32.4554 85.003 31.8954 85.003H22.7394C22.0114 84.877 21.6474 84.597 21.6474 84.163L21.7314 83.575V83.407C21.7314 83.141 21.7034 82.791 21.6474 82.357C21.6474 81.013 22.1234 80.341 23.0754 80.341C23.2994 80.341 23.4114 80.369 23.4114 80.425C23.4674 80.425 23.6914 80.397 24.0834 80.341C27.6394 80.285 29.7394 80.257 30.3834 80.257L30.9714 80.173V79.333C28.3814 79.277 26.3654 79.249 24.9234 79.249H22.8234C22.6974 79.249 22.5854 79.277 22.4874 79.333C22.1094 79.333 21.8014 79.109 21.5634 78.661V78.325C21.5634 77.821 21.8994 77.541 22.5714 77.485ZM43.4742 66.796H51.2862C52.8542 66.796 53.6382 67.076 53.6382 67.636V67.804C53.4982 68.364 53.1902 68.644 52.7142 68.644H44.3142V68.728L44.3982 69.316H52.6302C53.2462 69.428 53.5542 69.708 53.5542 70.156V70.324C53.5542 70.786 53.2182 71.066 52.5462 71.164C51.8742 71.164 50.2782 71.136 47.7582 71.08C46.1062 71.136 44.9862 71.164 44.3982 71.164V71.92H47.8422C48.4862 71.92 49.0742 71.948 49.6062 72.004C49.9002 71.948 50.4322 71.92 51.2022 71.92H52.7142C53.2742 71.99 53.5542 72.242 53.5542 72.676V72.928C53.5542 73.488 52.9382 73.768 51.7062 73.768H45.6582C45.2102 73.768 44.6222 73.74 43.8942 73.684C43.7962 73.74 43.6562 73.768 43.4742 73.768C42.8582 73.586 42.5502 73.166 42.5502 72.508V67.72C42.6482 67.104 42.9562 66.796 43.4742 66.796ZM41.5002 74.503C42.3402 74.559 42.9562 74.587 43.3482 74.587H44.7762C47.1142 74.587 50.3062 74.615 54.3522 74.671C54.8562 74.867 55.1082 75.147 55.1082 75.511V75.679C54.9822 76.239 54.7022 76.519 54.2682 76.519C51.7902 76.463 49.8582 76.435 48.4722 76.435H44.4402C44.3842 76.435 44.3562 76.407 44.3562 76.351C44.3002 76.351 44.2722 76.379 44.2722 76.435L43.8522 76.351H41.4162C41.0522 76.351 40.7722 76.155 40.5762 75.763V75.427C40.5762 75.007 40.8842 74.699 41.5002 74.503ZM43.1382 78.094H52.3782C52.9522 78.094 53.2882 78.514 53.3862 79.354V81.958C53.3862 84.254 53.1622 85.402 52.7142 85.402C52.7142 85.514 52.5462 85.57 52.2102 85.57C51.7762 85.57 51.4962 85.262 51.3702 84.646C51.4822 83.904 51.5382 83.176 51.5382 82.462V79.942H51.4542C50.0542 79.942 47.1982 79.914 42.8862 79.858C42.4382 79.662 42.2142 79.354 42.2142 78.934C42.3682 78.374 42.6762 78.094 43.1382 78.094ZM63.436 68.056H63.604C64.052 68.056 64.332 68.364 64.444 68.98V75.406C64.444 76.19 64.08 76.582 63.352 76.582H60.16C57.92 76.582 56.8 76.218 56.8 75.49V69.484C56.8 69.036 56.996 68.7 57.388 68.476H57.808C58.312 68.546 58.564 68.798 58.564 69.232V69.736L58.648 70.744H62.68V70.66C62.68 70.366 62.652 69.806 62.596 68.98C62.708 68.364 62.988 68.056 63.436 68.056ZM58.816 72.592H58.564L58.648 74.23V74.734H62.68L62.596 73.894V72.592H62.512C61.854 72.592 61.322 72.564 60.916 72.508C60.356 72.564 59.656 72.592 58.816 72.592ZM68.665 67.216C69.225 67.44 69.505 67.748 69.505 68.14C69.505 68.308 69.477 68.392 69.421 68.392C69.477 69.316 69.505 70.016 69.505 70.492V73.516C69.505 74.328 69.533 75.42 69.589 76.792C69.393 77.352 69.057 77.632 68.581 77.632C68.147 77.632 67.867 77.268 67.741 76.54V75.28H64.801L64.297 75.364C63.737 75.21 63.457 74.902 63.457 74.44C63.457 73.768 63.961 73.432 64.969 73.432H67.741V71.668H64.549C63.877 71.612 63.541 71.332 63.541 70.828V70.66C63.541 70.212 63.849 69.932 64.465 69.82H67.657V68.308C67.657 67.58 67.993 67.216 68.665 67.216ZM59.131 77.485H64.759C67.671 77.485 69.127 77.625 69.127 77.905C69.295 78.339 69.379 79.039 69.379 80.005C69.379 81.349 68.791 82.021 67.615 82.021C66.243 82.077 63.723 82.133 60.055 82.189V83.155H63.835C64.815 83.155 65.823 83.183 66.859 83.239C67.111 83.183 67.727 83.155 68.707 83.155C69.239 83.155 69.519 83.519 69.547 84.247C69.379 84.751 69.015 85.003 68.455 85.003H59.299C58.571 84.877 58.207 84.597 58.207 84.163L58.291 83.575V83.407C58.291 83.141 58.263 82.791 58.207 82.357C58.207 81.013 58.683 80.341 59.635 80.341C59.859 80.341 59.971 80.369 59.971 80.425C60.027 80.425 60.251 80.397 60.643 80.341C64.199 80.285 66.299 80.257 66.943 80.257L67.531 80.173V79.333C64.941 79.277 62.925 79.249 61.483 79.249H59.383C59.257 79.249 59.145 79.277 59.047 79.333C58.669 79.333 58.361 79.109 58.123 78.661V78.325C58.123 77.821 58.459 77.541 59.131 77.485ZM76.2367 66.229H76.3207C76.9367 66.229 77.2447 66.677 77.2447 67.573V68.413C77.9027 68.469 78.3787 68.497 78.6727 68.497H79.7647C80.7727 68.497 81.2767 68.833 81.2767 69.505C81.2767 69.855 81.0247 70.135 80.5207 70.345C78.8407 70.289 77.8607 70.261 77.5807 70.261C76.6427 70.261 74.7947 70.317 72.0367 70.429C71.5327 70.247 71.2807 69.939 71.2807 69.505C71.2807 68.833 72.2887 68.497 74.3047 68.497H75.3967V67.069C75.5087 66.509 75.7887 66.229 76.2367 66.229ZM76.0687 70.513C78.1127 70.513 79.5127 71.409 80.2687 73.201L80.3527 73.705V74.293C80.3527 75.441 79.5407 76.309 77.9167 76.897C77.3567 77.009 76.8527 77.065 76.4047 77.065H75.8167C74.1367 77.065 73.0447 76.113 72.5407 74.209C72.5407 74.083 72.5127 73.971 72.4567 73.873C72.4567 72.193 73.6607 71.073 76.0687 70.513ZM74.3047 73.873C74.3047 74.657 74.9487 75.133 76.2367 75.301C77.8047 75.189 78.5887 74.741 78.5887 73.957C78.3227 72.977 77.5667 72.445 76.3207 72.361H76.0687C74.8927 72.725 74.3047 73.229 74.3047 73.873ZM84.1537 67.3C84.5037 67.3 84.7837 67.552 84.9937 68.056C85.0497 69.428 85.0777 70.52 85.0777 71.332V71.416H86.9257C87.4717 71.416 87.7797 71.752 87.8497 72.424C87.6537 72.928 87.3737 73.18 87.0097 73.18H84.9937V73.264C84.9937 73.6 85.0217 73.768 85.0777 73.768L84.9937 74.608V76.372C84.9937 76.498 85.0217 76.61 85.0777 76.708C84.9237 77.38 84.5877 77.716 84.0697 77.716C83.5097 77.562 83.2297 77.254 83.2297 76.792V70.324C83.2297 69.764 83.2017 69.092 83.1457 68.308C83.2997 67.636 83.6357 67.3 84.1537 67.3ZM75.3547 78.178C76.0267 78.178 76.3627 79.438 76.3627 81.958V82.882H80.8147C81.8227 82.882 83.1947 82.854 84.9307 82.798C85.4907 82.952 85.7707 83.232 85.7707 83.638V83.806C85.7707 84.184 85.5187 84.464 85.0147 84.646C82.6067 84.702 80.7587 84.73 79.4707 84.73H75.6067C74.8787 84.73 74.5147 84.142 74.5147 82.966C74.5147 81.286 74.4867 79.942 74.4307 78.934C74.6127 78.43 74.9207 78.178 75.3547 78.178ZM97.6067 68.686H98.3627C99.1747 68.686 100.099 68.714 101.135 68.77C101.359 68.714 101.583 68.686 101.807 68.686C102.535 68.686 102.899 69.498 102.899 71.122V71.626C102.899 74.566 102.731 76.036 102.395 76.036C102.157 76.148 101.541 76.232 100.547 76.288C99.5107 76.232 98.6427 76.204 97.9427 76.204C97.8587 76.204 97.4667 76.232 96.7667 76.288C95.8707 76.148 95.4227 75.756 95.4227 75.112V69.694C95.4227 69.022 96.1507 68.686 97.6067 68.686ZM97.2707 70.534V74.44H101.051V73.516C101.051 73.222 101.079 72.76 101.135 72.13C101.079 71.836 101.051 71.556 101.051 71.29V70.534C100.995 70.534 100.967 70.562 100.967 70.618C100.407 70.562 99.9867 70.534 99.7067 70.534H97.2707ZM106.511 67.3C106.861 67.3 107.141 67.552 107.351 68.056C107.407 69.428 107.435 70.52 107.435 71.332V71.416H109.283C109.829 71.416 110.137 71.752 110.207 72.424C110.011 72.928 109.731 73.18 109.367 73.18H107.351V73.264C107.351 73.6 107.379 73.768 107.435 73.768L107.351 74.608V76.372C107.351 76.498 107.379 76.61 107.435 76.708C107.281 77.38 106.945 77.716 106.427 77.716C105.867 77.562 105.587 77.254 105.587 76.792V70.324C105.587 69.764 105.559 69.092 105.503 68.308C105.657 67.636 105.993 67.3 106.511 67.3ZM97.7117 78.178C98.3837 78.178 98.7197 79.438 98.7197 81.958V82.882H103.172C104.18 82.882 105.552 82.854 107.288 82.798C107.848 82.952 108.128 83.232 108.128 83.638V83.806C108.128 84.184 107.876 84.464 107.372 84.646C104.964 84.702 103.116 84.73 101.828 84.73H97.9637C97.2357 84.73 96.8717 84.142 96.8717 82.966C96.8717 81.286 96.8437 79.942 96.7877 78.934C96.9697 78.43 97.2777 78.178 97.7117 78.178ZM112.817 68.539C113.335 68.539 113.643 68.903 113.741 69.631V74.755C117.801 74.643 119.957 74.531 120.209 74.419C120.671 74.419 120.951 74.727 121.049 75.343C121.049 76.071 119.957 76.435 117.773 76.435C116.863 76.491 115.379 76.547 113.321 76.603C112.425 76.519 111.977 76.127 111.977 75.427V74.671C111.977 73.285 111.949 71.493 111.893 69.295C112.075 68.791 112.383 68.539 112.817 68.539ZM122.813 67.3C123.163 67.3 123.443 67.552 123.653 68.056C123.709 69.428 123.737 70.52 123.737 71.332V71.416H125.585C126.131 71.416 126.439 71.752 126.509 72.424C126.313 72.928 126.033 73.18 125.669 73.18H123.653V73.264C123.653 73.6 123.681 73.768 123.737 73.768L123.653 74.608V76.372C123.653 76.498 123.681 76.61 123.737 76.708C123.583 77.38 123.247 77.716 122.729 77.716C122.169 77.562 121.889 77.254 121.889 76.792V70.324C121.889 69.764 121.861 69.092 121.805 68.308C121.959 67.636 122.295 67.3 122.813 67.3ZM114.203 78.094H115.295C117.129 78.094 119.677 78.122 122.939 78.178C123.611 78.178 123.947 79.508 123.947 82.168C124.003 82.168 124.031 82.476 124.031 83.092C124.031 84.436 123.667 85.108 122.939 85.108H121.259C119.887 85.108 118.711 85.136 117.731 85.192C117.157 85.136 116.149 85.108 114.707 85.108C113.643 85.108 113.111 84.772 113.111 84.1V83.344C113.111 83.05 113.083 82.798 113.027 82.588C113.083 82.294 113.111 81.664 113.111 80.698V79.186C113.293 78.458 113.657 78.094 114.203 78.094ZM114.959 79.942C114.903 81.566 114.875 82.616 114.875 83.092L114.959 83.26C115.351 83.26 116.107 83.288 117.227 83.344C119.761 83.288 121.413 83.26 122.183 83.26V83.176C122.183 82.462 122.127 81.412 122.015 80.026C121.483 80.026 119.719 79.97 116.723 79.858C115.883 79.914 115.295 79.942 114.959 79.942ZM134.981 66.922C138.621 66.936 140.721 67.832 141.281 69.61C141.337 69.918 141.365 70.17 141.365 70.366C141.365 72.13 139.713 73.222 136.409 73.642H136.073C131.985 73.642 129.941 72.578 129.941 70.45C129.941 68.812 131.145 67.692 133.553 67.09C134.281 66.978 134.757 66.922 134.981 66.922ZM131.789 70.366V70.45C131.789 71.346 133.301 71.794 136.325 71.794C137.683 71.794 138.775 71.346 139.601 70.45V70.366C139.601 69.582 138.481 69.05 136.241 68.77C136.185 68.77 136.157 68.798 136.157 68.854C135.737 68.798 135.457 68.742 135.317 68.686C132.965 68.966 131.789 69.526 131.789 70.366ZM129.122 74.503C129.962 74.559 130.578 74.587 130.97 74.587H132.398C134.736 74.587 137.928 74.615 141.974 74.671C142.478 74.867 142.73 75.147 142.73 75.511V75.679C142.604 76.239 142.324 76.519 141.89 76.519C139.412 76.463 137.48 76.435 136.094 76.435H132.062C132.006 76.435 131.978 76.407 131.978 76.351C131.922 76.351 131.894 76.379 131.894 76.435L131.474 76.351H129.038C128.674 76.351 128.394 76.155 128.198 75.763V75.427C128.198 75.007 128.506 74.699 129.122 74.503ZM130.865 77.485H136.493C139.405 77.485 140.861 77.625 140.861 77.905C141.029 78.339 141.113 79.039 141.113 80.005C141.113 81.349 140.525 82.021 139.349 82.021C137.977 82.077 135.457 82.133 131.789 82.189V83.155H135.569C136.549 83.155 137.557 83.183 138.593 83.239C138.845 83.183 139.461 83.155 140.441 83.155C140.973 83.155 141.253 83.519 141.281 84.247C141.113 84.751 140.749 85.003 140.189 85.003H131.033C130.305 84.877 129.941 84.597 129.941 84.163L130.025 83.575V83.407C130.025 83.141 129.997 82.791 129.941 82.357C129.941 81.013 130.417 80.341 131.369 80.341C131.593 80.341 131.705 80.369 131.705 80.425C131.761 80.425 131.985 80.397 132.377 80.341C135.933 80.285 138.033 80.257 138.677 80.257L139.265 80.173V79.333C136.675 79.277 134.659 79.249 133.217 79.249H131.117C130.991 79.249 130.879 79.277 130.781 79.333C130.403 79.333 130.095 79.109 129.857 78.661V78.325C129.857 77.821 130.193 77.541 130.865 77.485ZM16.4949 90.014C17.2789 90.014 17.6709 90.49 17.6709 91.442C17.6709 92.618 18.5109 94.102 20.1909 95.894C21.1149 96.636 21.5769 97.196 21.5769 97.574V97.742C21.5069 98.302 21.2269 98.582 20.7369 98.582H20.6529C19.0429 97.686 17.7129 96.202 16.6629 94.13H16.4949C15.4309 96.426 14.1709 97.924 12.7149 98.624H12.3789C11.9589 98.624 11.7069 98.344 11.6229 97.784C11.6229 97.406 12.1549 96.776 13.2189 95.894C14.3669 94.746 15.2349 92.898 15.8229 90.35C16.0049 90.21 16.2289 90.098 16.4949 90.014ZM24.7689 89.3C25.2169 89.3 25.4969 89.692 25.6089 90.476V93.164C25.6089 94.298 25.5809 95.502 25.5249 96.776C25.5809 97.07 25.6089 97.602 25.6089 98.372C25.5389 99.1 25.2589 99.464 24.7689 99.464H24.3489C23.9569 99.268 23.7609 98.988 23.7609 98.624V97.028C23.7609 96.79 23.7329 96.566 23.6769 96.356C23.7329 96.132 23.7609 95.908 23.7609 95.684V95.18H21.8289C21.1569 95.124 20.8209 94.844 20.8209 94.34V94.256C20.8209 93.64 21.2969 93.332 22.2489 93.332H23.7609V90.224C23.7609 89.678 24.0969 89.37 24.7689 89.3ZM15.0879 100.178C15.7599 100.178 16.0959 101.438 16.0959 103.958V104.882H20.5479C21.5559 104.882 22.9279 104.854 24.6639 104.798C25.2239 104.952 25.5039 105.232 25.5039 105.638V105.806C25.5039 106.184 25.2519 106.464 24.7479 106.646C22.3399 106.702 20.4919 106.73 19.2039 106.73H15.3399C14.6119 106.73 14.2479 106.142 14.2479 104.966C14.2479 103.286 14.2199 101.942 14.1639 100.934C14.3459 100.43 14.6539 100.178 15.0879 100.178ZM31.913 90.749H32.081C32.641 90.749 32.921 91.281 32.921 92.345C32.921 94.585 33.649 96.937 35.105 99.401C36.001 100.255 36.449 100.815 36.449 101.081V101.249C36.449 101.711 36.141 101.991 35.525 102.089C34.615 101.879 33.607 100.675 32.501 98.477C32.165 97.665 31.997 97.217 31.997 97.133H31.913C30.401 100.605 29.169 102.341 28.217 102.341H28.049C27.545 102.271 27.293 102.019 27.293 101.585V101.417C27.293 101.179 27.741 100.563 28.637 99.569C30.317 97.063 31.157 94.291 31.157 91.253C31.381 90.917 31.633 90.749 31.913 90.749ZM39.242 89.048C39.634 89.048 39.914 89.3 40.082 89.804C40.082 90.112 40.054 90.42 39.998 90.728C40.054 92.17 40.082 93.402 40.082 94.424V95.516H42.434C42.826 95.712 43.022 95.992 43.022 96.356C43.022 97.028 42.546 97.364 41.594 97.364H40.082V102.152C40.082 102.88 40.11 103.832 40.166 105.008C40.012 105.568 39.732 105.848 39.326 105.848H39.158C38.598 105.736 38.318 105.456 38.318 105.008C38.318 104.154 38.29 103.174 38.234 102.068C38.234 101.424 38.262 100.164 38.318 98.288C38.262 95.124 38.234 92.38 38.234 90.056C38.374 89.384 38.71 89.048 39.242 89.048ZM49.7463 89.741C50.3623 89.741 50.6703 90.105 50.6703 90.833V92.009L50.7543 92.177L51.7623 92.093H53.2743C54.2823 92.093 54.7863 92.429 54.7863 93.101C54.6463 93.661 54.3383 93.941 53.8623 93.941H47.3943C46.9463 93.941 46.3583 93.969 45.6303 94.025C45.1543 94.025 44.8463 93.689 44.7063 93.017C44.7063 92.527 45.0703 92.247 45.7983 92.177H48.6543C48.7663 92.177 48.8223 92.121 48.8223 92.009V90.833C48.8223 90.105 49.1303 89.741 49.7463 89.741ZM49.6623 94.865C51.4963 94.865 52.8123 95.817 53.6103 97.721C53.6663 97.931 53.6943 98.155 53.6943 98.393V98.645C53.6943 100.647 52.5463 101.963 50.2503 102.593L49.7463 102.677C47.8983 102.677 46.5823 101.753 45.7983 99.905L45.7143 99.317V99.149C45.7143 97.147 46.4703 95.831 47.9823 95.201C48.6263 94.977 49.1863 94.865 49.6623 94.865ZM47.5623 98.897V99.233C47.5623 99.947 48.1223 100.451 49.2423 100.745L49.8303 100.829C50.5303 100.829 51.1743 100.353 51.7623 99.401L51.8463 98.561V98.393C51.5523 97.273 50.6843 96.713 49.2423 96.713C48.1223 96.923 47.5623 97.651 47.5623 98.897ZM59.5533 89.195C60.0013 89.405 60.2253 89.685 60.2253 90.035C60.2253 91.323 60.2533 93.563 60.3093 96.755C60.3093 96.979 60.2813 97.483 60.2253 98.267C60.3373 100.101 60.3933 102.369 60.3933 105.071C60.3933 105.505 60.0853 105.813 59.4693 105.995C58.9513 105.995 58.6433 105.603 58.5453 104.819V104.399C58.5453 102.775 58.5173 100.535 58.4613 97.679H56.6973V102.215C56.6973 102.733 56.7253 103.461 56.7813 104.399C56.5573 104.959 56.2493 105.239 55.8573 105.239C55.2413 105.239 54.9333 104.651 54.9333 103.475C54.8773 102.873 54.8493 101.921 54.8493 100.619C54.8493 100.003 54.8773 99.611 54.9333 99.443C54.8773 98.687 54.8493 98.043 54.8493 97.511V90.539C54.8493 89.811 55.1573 89.447 55.7733 89.447C56.3893 89.545 56.6973 89.853 56.6973 90.371V95.831H56.7813C56.9353 95.831 57.4953 95.859 58.4613 95.915V95.579C58.4613 94.417 58.4333 92.653 58.3773 90.287C58.3773 89.587 58.7693 89.223 59.5533 89.195ZM74.3846 91.106C75.0006 91.106 75.3086 91.358 75.3086 91.862V92.282C75.1126 92.674 74.8326 92.87 74.4686 92.87C73.9366 92.87 73.4046 92.898 72.8726 92.954C72.6766 92.954 72.4246 92.926 72.1166 92.87C70.8286 92.926 69.6526 92.954 68.5886 92.954H65.8166V93.878C65.8166 94.732 65.8446 96.048 65.9006 97.826C68.4906 97.882 70.5066 97.91 71.9486 97.91H74.8046C75.3086 97.91 75.5886 98.246 75.6446 98.918C75.6446 99.408 75.1686 99.688 74.2166 99.758H73.9646C67.6366 99.758 64.4726 99.646 64.4726 99.422C64.2346 99.184 64.0946 98.764 64.0526 98.162C63.9966 95.166 63.9686 93.374 63.9686 92.786C63.9686 91.666 64.4166 91.106 65.3126 91.106H74.3846ZM63.7586 103.16H65.4386C67.9866 103.16 71.2346 103.188 75.1826 103.244C75.5746 103.188 75.9106 103.16 76.1906 103.16C76.7506 103.328 77.0306 103.636 77.0306 104.084C76.9326 104.7 76.6246 105.008 76.1066 105.008H63.0866C62.4146 104.952 62.0786 104.644 62.0786 104.084C62.0786 103.468 62.6386 103.16 63.7586 103.16ZM84.7606 90.245C85.6006 90.399 86.0206 90.791 86.0206 91.421C86.0206 93.885 85.7686 95.117 85.2646 95.117C85.2646 95.243 85.0406 95.355 84.5926 95.453C82.9406 95.509 81.5966 95.537 80.5606 95.537V97.175H80.7286C81.8486 97.175 83.6056 97.154 85.9996 97.112C86.4476 97.35 86.6716 97.63 86.6716 97.952C86.6716 98.624 85.9436 98.96 84.4876 98.96C83.1016 99.002 81.5686 99.023 79.8886 99.023C79.1606 98.883 78.7966 98.575 78.7966 98.099C78.7406 96.265 78.7126 95.019 78.7126 94.361C78.8806 93.913 79.2166 93.689 79.7206 93.689H82.8286C83.1086 93.689 83.5286 93.661 84.0886 93.605V93.521C84.1446 92.653 84.1726 92.177 84.1726 92.093H84.0886C83.4726 92.149 82.9406 92.177 82.4926 92.177H79.8046C79.1326 92.121 78.7966 91.841 78.7966 91.337V91.169C78.7966 90.665 79.1326 90.385 79.8046 90.329H83.5846C83.8926 90.329 84.2846 90.301 84.7606 90.245ZM90.4096 89.321H90.5776C91.0676 89.321 91.3476 89.685 91.4176 90.413V92.765C91.4176 94.165 91.4456 96.153 91.5016 98.729C91.4036 98.981 91.2076 99.205 90.9136 99.401H90.3256C89.8216 99.401 89.5696 98.113 89.5696 95.537V94.025L89.6536 93.521C89.5976 93.157 89.5696 92.793 89.5696 92.429V90.329C89.6256 89.657 89.9056 89.321 90.4096 89.321ZM81.1276 99.485H86.7556C89.6676 99.485 91.1236 99.625 91.1236 99.905C91.2916 100.339 91.3756 101.039 91.3756 102.005C91.3756 103.349 90.7876 104.021 89.6116 104.021C88.2396 104.077 85.7196 104.133 82.0516 104.189V105.155H85.8316C86.8116 105.155 87.8196 105.183 88.8556 105.239C89.1076 105.183 89.7236 105.155 90.7036 105.155C91.2356 105.155 91.5156 105.519 91.5436 106.247C91.3756 106.751 91.0116 107.003 90.4516 107.003H81.2956C80.5676 106.877 80.2036 106.597 80.2036 106.163L80.2876 105.575V105.407C80.2876 105.141 80.2596 104.791 80.2036 104.357C80.2036 103.013 80.6796 102.341 81.6316 102.341C81.8556 102.341 81.9676 102.369 81.9676 102.425C82.0236 102.425 82.2476 102.397 82.6396 102.341C86.1956 102.285 88.2956 102.257 88.9396 102.257L89.5276 102.173V101.333C86.9376 101.277 84.9216 101.249 83.4796 101.249H81.3796C81.2536 101.249 81.1416 101.277 81.0436 101.333C80.6656 101.333 80.3576 101.109 80.1196 100.661V100.325C80.1196 99.821 80.4556 99.541 81.1276 99.485ZM94.2423 90.875H97.3503C98.1343 90.945 98.5263 91.281 98.5263 91.883C98.5263 94.809 97.3503 98.309 94.9983 102.383C94.6903 102.551 94.4383 102.635 94.2423 102.635C93.7383 102.453 93.4863 102.173 93.4863 101.795V101.627C94.5503 99.415 95.0823 98.239 95.0823 98.099C96.0903 95.999 96.5943 94.207 96.5943 92.723H94.1583C93.6123 92.723 93.3043 92.387 93.2343 91.715C93.4583 91.155 93.7943 90.875 94.2423 90.875ZM98.4213 90.875H101.529C102.313 90.945 102.705 91.281 102.705 91.883C102.705 94.809 101.529 98.309 99.1773 102.383C98.8693 102.551 98.6173 102.635 98.4213 102.635C97.9173 102.453 97.6653 102.173 97.6653 101.795V101.627C98.7293 99.415 99.2613 98.239 99.2613 98.099C100.269 95.999 100.773 94.207 100.773 92.723H98.3373C97.7913 92.723 97.4833 92.387 97.4133 91.715C97.6373 91.155 97.9733 90.875 98.4213 90.875ZM108.648 88.922H108.732C109.082 88.922 109.362 89.146 109.572 89.594C109.572 91.162 109.6 92.814 109.656 94.55C109.6 98.162 109.572 101.606 109.572 104.882C109.474 105.498 109.194 105.806 108.732 105.806H108.564C108.004 105.806 107.724 105.302 107.724 104.294V103.286C107.724 102.684 107.752 102.208 107.808 101.858C107.752 101.382 107.724 100.99 107.724 100.682C107.724 99.1 107.78 97.448 107.892 95.726C107.836 94.69 107.808 93.57 107.808 92.366V89.93C107.864 89.258 108.144 88.922 108.648 88.922ZM105.624 89.258C106.184 89.496 106.464 89.832 106.464 90.266C106.464 90.602 106.436 91.106 106.38 91.778C106.38 92.87 106.408 94.382 106.464 96.314C106.408 99.016 106.38 101.676 106.38 104.294C106.254 104.854 105.974 105.134 105.54 105.134H105.372C104.924 105.134 104.644 104.826 104.532 104.21C104.588 100.43 104.616 98.05 104.616 97.07H104.532C103.958 97.126 103.51 97.154 103.188 97.154H102.768C102.208 97.07 101.928 96.818 101.928 96.398V96.146C101.928 95.53 102.824 95.222 104.616 95.222C104.616 95.012 104.588 94.312 104.532 93.122C104.588 91.33 104.616 90.294 104.616 90.014C104.784 89.51 105.12 89.258 105.624 89.258ZM118.968 90.875C121.012 90.875 122.804 91.575 124.344 92.975C124.904 93.843 125.184 94.935 125.184 96.251C125.184 97.889 123.98 99.233 121.572 100.283C120.592 100.451 119.836 100.535 119.304 100.535H118.8C116.896 100.535 115.3 99.835 114.012 98.435C113.396 97.581 113.088 96.657 113.088 95.663C113.088 94.207 113.816 92.947 115.272 91.883C116.616 91.253 117.848 90.917 118.968 90.875ZM114.936 95.579V95.747C114.936 97.301 116.056 98.281 118.296 98.687H119.388C121.278 98.687 122.566 98.015 123.252 96.671C123.308 96.573 123.336 96.461 123.336 96.335V96.167C123.336 94.669 122.888 93.773 121.992 93.479C121.04 92.975 119.948 92.723 118.716 92.723C117.512 92.723 116.42 93.199 115.44 94.151C115.104 94.795 114.936 95.271 114.936 95.579ZM121.677 99.149C122.293 99.149 122.601 99.625 122.601 100.577V100.745C122.601 101.403 122.629 102.159 122.685 103.013H122.769C123.231 103.013 124.239 103.041 125.793 103.097C126.115 103.209 126.339 103.405 126.465 103.685V104.021C126.353 104.581 126.073 104.861 125.625 104.861H112.185C111.625 104.749 111.345 104.469 111.345 104.021V103.937C111.345 103.321 111.821 103.013 112.773 103.013H115.125L115.209 102.173V100.157C115.307 99.541 115.615 99.233 116.133 99.233C116.651 99.233 116.959 99.625 117.057 100.409V101.585C117.057 101.879 117.029 102.355 116.973 103.013H120.837C120.781 101.165 120.753 100.129 120.753 99.905C120.935 99.401 121.243 99.149 121.677 99.149ZM129.969 90.182C130.641 90.182 130.977 90.91 130.977 92.366V100.43C130.865 101.046 130.557 101.354 130.053 101.354C129.493 101.2 129.213 100.92 129.213 100.514C129.213 99.548 129.185 96.608 129.129 91.694L129.045 91.106C129.157 90.49 129.465 90.182 129.969 90.182ZM129.801 103.118H130.137C130.809 103.258 131.145 103.594 131.145 104.126V104.546C131.005 105.218 130.669 105.554 130.137 105.554H129.801C129.227 105.554 128.891 105.106 128.793 104.21C128.989 103.482 129.325 103.118 129.801 103.118Z" fill="black"/>
</svg>
