<svg width="111" height="42" viewBox="0 0 111 42" fill="none" xmlns="http://www.w3.org/2000/svg">
<path d="M0.974652 2.497C1.59065 2.497 1.89865 3.169 1.89865 4.513C1.95465 6.375 1.98265 7.999 1.98265 9.385V11.737C3.62065 11.737 5.80465 11.569 8.53465 11.233C8.74465 11.233 8.99665 11.429 9.29065 11.821V12.241C9.29065 12.969 8.17065 13.333 5.93065 13.333C4.75465 13.445 3.38265 13.529 1.81465 13.585C0.750652 13.585 0.218652 13.053 0.218652 11.989C0.162652 10.757 0.106652 7.845 0.0506523 3.253C0.232652 2.749 0.540652 2.497 0.974652 2.497ZM14.5197 1.195C14.9677 1.405 15.1917 1.685 15.1917 2.035C15.1917 3.323 15.2197 5.563 15.2757 8.755C15.2757 8.979 15.2477 9.483 15.1917 10.267C15.3037 12.101 15.3597 14.369 15.3597 17.071C15.3597 17.505 15.0517 17.813 14.4357 17.995C13.9177 17.995 13.6097 17.603 13.5117 16.819V16.399C13.5117 14.775 13.4837 12.535 13.4277 9.679H11.6637V14.215C11.6637 14.733 11.6917 15.461 11.7477 16.399C11.5237 16.959 11.2157 17.239 10.8237 17.239C10.2077 17.239 9.89965 16.651 9.89965 15.475C9.84365 14.873 9.81565 13.921 9.81565 12.619C9.81565 12.003 9.84365 11.611 9.89965 11.443C9.84365 10.687 9.81565 10.043 9.81565 9.511V2.539C9.81565 1.811 10.1237 1.447 10.7397 1.447C11.3557 1.545 11.6637 1.853 11.6637 2.371V7.831H11.7477C11.9017 7.831 12.4617 7.859 13.4277 7.915V7.579C13.4277 6.417 13.3997 4.653 13.3437 2.287C13.3437 1.587 13.7357 1.223 14.5197 1.195ZM30.4387 1.909H30.6067C31.0967 1.909 31.3767 2.273 31.4467 3.001V3.757C31.6287 3.757 32.1047 3.785 32.8747 3.841C33.0847 3.841 33.8687 3.813 35.2267 3.757C36.2347 3.757 36.7387 4.037 36.7387 4.597V4.849C36.7387 5.353 36.4307 5.605 35.8147 5.605H31.4467V5.689C31.4467 6.809 32.2867 7.985 33.9667 9.217C36.0387 10.029 37.0747 10.589 37.0747 10.897C37.0747 10.925 37.1027 11.037 37.1587 11.233C37.0187 11.793 36.7107 12.073 36.2347 12.073C34.3447 11.569 32.8047 10.757 31.6147 9.637C30.9147 9.007 30.5507 8.559 30.5227 8.293C29.2067 10.057 27.2747 11.317 24.7267 12.073C24.2647 12.073 23.9847 11.737 23.8867 11.065C23.8867 10.631 24.7827 10.071 26.5747 9.385C28.5347 8.097 29.5147 6.893 29.5147 5.773V5.605C29.1507 5.605 27.6947 5.633 25.1467 5.689C24.7407 5.689 24.4887 5.353 24.3907 4.681V4.597C24.6147 4.093 25.0067 3.841 25.5667 3.841H26.4907C27.1487 3.841 28.1847 3.813 29.5987 3.757V2.917C29.6547 2.245 29.9347 1.909 30.4387 1.909ZM30.5647 11.17C31.1247 11.31 31.4047 11.618 31.4047 12.094L31.4257 15.139H35.2057C35.5277 15.139 35.9757 15.167 36.5497 15.223C36.6477 15.167 36.7877 15.139 36.9697 15.139C37.5297 15.293 37.8097 15.573 37.8097 15.979V16.147C37.6837 16.707 37.4037 16.987 36.9697 16.987C30.3897 16.931 26.1057 16.903 24.1177 16.903C23.3337 16.903 22.9417 16.623 22.9417 16.063V15.895C22.9417 15.447 23.2497 15.167 23.8657 15.055H29.5777C29.5777 14.943 29.5847 14.411 29.5987 13.459C29.5707 12.717 29.5567 12.262 29.5567 12.094C29.5567 11.632 29.8927 11.324 30.5647 11.17ZM51.3376 0.816999C51.9676 0.816999 52.3876 1.321 52.5976 2.329C52.4296 5.353 52.3456 7.173 52.3456 7.789C52.3456 8.251 52.0376 8.531 51.4216 8.629C50.9736 8.629 50.6936 8.321 50.5816 7.705V5.857C46.4096 5.913 43.6656 5.969 42.3496 6.025C41.8736 6.025 41.5656 5.689 41.4256 5.017C41.4256 4.625 41.7056 4.345 42.2656 4.177C44.0996 4.121 45.5276 4.093 46.5496 4.093H50.5816C50.6936 4.093 50.7496 4.037 50.7496 3.925V2.665H45.0376C44.6876 2.665 44.2676 2.693 43.7776 2.749C42.3216 2.749 41.5936 2.469 41.5936 1.909V1.489C41.7896 1.097 42.0696 0.900999 42.4336 0.900999C44.6456 0.900999 47.6136 0.872999 51.3376 0.816999ZM46.8016 6.193H47.2216C47.6136 6.417 47.8096 6.753 47.8096 7.201V8.629H48.4816C49.3216 8.629 50.6936 8.685 52.5976 8.797L53.4376 8.713C53.9416 8.881 54.1936 9.161 54.1936 9.553V9.721C54.0676 10.281 53.7876 10.561 53.3536 10.561C52.8076 10.561 49.8956 10.505 44.6176 10.393C42.3776 10.449 41.0896 10.477 40.7536 10.477C39.9136 10.379 39.4936 10.071 39.4936 9.553V9.469C39.6056 8.909 39.8856 8.629 40.3336 8.629C41.3556 8.629 43.2596 8.601 46.0456 8.545L45.9616 8.377V7.705C45.9616 6.697 46.2416 6.193 46.8016 6.193ZM42.0766 11.485H47.7046C50.6166 11.485 52.0726 11.625 52.0726 11.905C52.2406 12.339 52.3246 13.039 52.3246 14.005C52.3246 15.349 51.7366 16.021 50.5606 16.021C49.1886 16.077 46.6686 16.133 43.0006 16.189V17.155H46.7806C47.7606 17.155 48.7686 17.183 49.8046 17.239C50.0566 17.183 50.6726 17.155 51.6526 17.155C52.1846 17.155 52.4646 17.519 52.4926 18.247C52.3246 18.751 51.9606 19.003 51.4006 19.003H42.2446C41.5166 18.877 41.1526 18.597 41.1526 18.163L41.2366 17.575V17.407C41.2366 17.141 41.2086 16.791 41.1526 16.357C41.1526 15.013 41.6286 14.341 42.5806 14.341C42.8046 14.341 42.9166 14.369 42.9166 14.425C42.9726 14.425 43.1966 14.397 43.5886 14.341C47.1446 14.285 49.2446 14.257 49.8886 14.257L50.4766 14.173V13.333C47.8866 13.277 45.8706 13.249 44.4286 13.249H42.3286C42.2026 13.249 42.0906 13.277 41.9926 13.333C41.6146 13.333 41.3066 13.109 41.0686 12.661V12.325C41.0686 11.821 41.4046 11.541 42.0766 11.485ZM61.9295 2.245C62.7695 2.399 63.1895 2.791 63.1895 3.421C63.1895 5.885 62.9375 7.117 62.4335 7.117C62.4335 7.243 62.2095 7.355 61.7615 7.453C60.1095 7.509 58.7655 7.537 57.7295 7.537V9.175H57.8975C59.0175 9.175 60.7745 9.154 63.1685 9.112C63.6165 9.35 63.8405 9.63 63.8405 9.952C63.8405 10.624 63.1125 10.96 61.6565 10.96C60.2705 11.002 58.7375 11.023 57.0575 11.023C56.3295 10.883 55.9655 10.575 55.9655 10.099C55.9095 8.265 55.8815 7.019 55.8815 6.361C56.0495 5.913 56.3855 5.689 56.8895 5.689H59.9975C60.2775 5.689 60.6975 5.661 61.2575 5.605V5.521C61.3135 4.653 61.3415 4.177 61.3415 4.093H61.2575C60.6415 4.149 60.1095 4.177 59.6615 4.177H56.9735C56.3015 4.121 55.9655 3.841 55.9655 3.337V3.169C55.9655 2.665 56.3015 2.385 56.9735 2.329H60.7535C61.0615 2.329 61.4535 2.301 61.9295 2.245ZM67.5785 1.321H67.7465C68.2365 1.321 68.5165 1.685 68.5865 2.413V4.765C68.5865 6.165 68.6145 8.153 68.6705 10.729C68.5725 10.981 68.3765 11.205 68.0825 11.401H67.4945C66.9905 11.401 66.7385 10.113 66.7385 7.537V6.025L66.8225 5.521C66.7665 5.157 66.7385 4.793 66.7385 4.429V2.329C66.7945 1.657 67.0745 1.321 67.5785 1.321ZM63.0635 11.863C63.6375 11.863 64.0015 12.388 64.1555 13.438C64.7015 14.922 65.9895 16.147 68.0195 17.113C68.9155 17.239 69.3635 17.617 69.3635 18.247C69.2235 18.835 68.9155 19.129 68.4395 19.129C67.3055 19.129 65.7375 18.191 63.7355 16.315C63.2875 15.755 63.0635 15.405 63.0635 15.265H62.9795C62.0835 16.847 60.4315 18.107 58.0235 19.045C57.9395 19.101 57.7715 19.129 57.5195 19.129C57.1415 19.129 56.8895 18.835 56.7635 18.247V18.163C56.7635 17.617 57.4075 17.148 58.6955 16.756C60.4875 15.622 61.5795 14.488 61.9715 13.354C62.1675 12.36 62.5315 11.863 63.0635 11.863ZM81.9034 0.228999H81.9874C82.6034 0.228999 82.9114 0.676999 82.9114 1.573V2.413C83.5694 2.469 84.0454 2.497 84.3394 2.497H85.4314C86.4394 2.497 86.9434 2.833 86.9434 3.505C86.9434 3.855 86.6914 4.135 86.1874 4.345C84.5074 4.289 83.5274 4.261 83.2474 4.261C82.3094 4.261 80.4614 4.317 77.7034 4.429C77.1994 4.247 76.9474 3.939 76.9474 3.505C76.9474 2.833 77.9554 2.497 79.9714 2.497H81.0634V1.069C81.1754 0.508999 81.4554 0.228999 81.9034 0.228999ZM81.7354 4.513C83.7794 4.513 85.1794 5.409 85.9354 7.201L86.0194 7.705V8.293C86.0194 9.441 85.2074 10.309 83.5834 10.897C83.0234 11.009 82.5194 11.065 82.0714 11.065H81.4834C79.8034 11.065 78.7114 10.113 78.2074 8.209C78.2074 8.083 78.1794 7.971 78.1234 7.873C78.1234 6.193 79.3274 5.073 81.7354 4.513ZM79.9714 7.873C79.9714 8.657 80.6154 9.133 81.9034 9.301C83.4714 9.189 84.2554 8.741 84.2554 7.957C83.9894 6.977 83.2334 6.445 81.9874 6.361H81.7354C80.5594 6.725 79.9714 7.229 79.9714 7.873ZM89.8204 1.3C90.1704 1.3 90.4504 1.552 90.6604 2.056C90.7164 3.428 90.7444 4.52 90.7444 5.332V5.416H92.5924C93.1384 5.416 93.4464 5.752 93.5164 6.424C93.3204 6.928 93.0404 7.18 92.6764 7.18H90.6604V7.264C90.6604 7.6 90.6884 7.768 90.7444 7.768L90.6604 8.608V10.372C90.6604 10.498 90.6884 10.61 90.7444 10.708C90.5904 11.38 90.2544 11.716 89.7364 11.716C89.1764 11.562 88.8964 11.254 88.8964 10.792V4.324C88.8964 3.764 88.8684 3.092 88.8124 2.308C88.9664 1.636 89.3024 1.3 89.8204 1.3ZM81.2104 12.094H82.3024C84.1364 12.094 86.6844 12.122 89.9464 12.178C90.6184 12.178 90.9544 13.508 90.9544 16.168C91.0104 16.168 91.0384 16.476 91.0384 17.092C91.0384 18.436 90.6744 19.108 89.9464 19.108H88.2664C86.8944 19.108 85.7184 19.136 84.7384 19.192C84.1644 19.136 83.1564 19.108 81.7144 19.108C80.6504 19.108 80.1184 18.772 80.1184 18.1V17.344C80.1184 17.05 80.0904 16.798 80.0344 16.588C80.0904 16.294 80.1184 15.664 80.1184 14.698V13.186C80.3004 12.458 80.6644 12.094 81.2104 12.094ZM81.9664 13.942C81.9104 15.566 81.8824 16.616 81.8824 17.092L81.9664 17.26C82.3584 17.26 83.1144 17.288 84.2344 17.344C86.7684 17.288 88.4204 17.26 89.1904 17.26V17.176C89.1904 16.462 89.1344 15.412 89.0224 14.026C88.4904 14.026 86.7264 13.97 83.7304 13.858C82.8904 13.914 82.3024 13.942 81.9664 13.942ZM107.36 3.106C107.976 3.106 108.284 3.358 108.284 3.862V4.282C108.088 4.674 107.808 4.87 107.444 4.87C106.912 4.87 106.38 4.898 105.848 4.954C105.652 4.954 105.4 4.926 105.092 4.87C103.804 4.926 102.628 4.954 101.564 4.954H98.7925V5.878C98.7925 6.732 98.8205 8.048 98.8765 9.826C101.466 9.882 103.482 9.91 104.924 9.91H107.78C108.284 9.91 108.564 10.246 108.62 10.918C108.62 11.408 108.144 11.688 107.192 11.758H106.94C100.612 11.758 97.4485 11.646 97.4485 11.422C97.2105 11.184 97.0705 10.764 97.0285 10.162C96.9725 7.166 96.9445 5.374 96.9445 4.786C96.9445 3.666 97.3925 3.106 98.2885 3.106H107.36ZM102.824 11.17C103.384 11.31 103.664 11.618 103.664 12.094L103.685 15.139H107.465C107.787 15.139 108.235 15.167 108.809 15.223C108.907 15.167 109.047 15.139 109.229 15.139C109.789 15.293 110.069 15.573 110.069 15.979V16.147C109.943 16.707 109.663 16.987 109.229 16.987C102.649 16.931 98.3655 16.903 96.3775 16.903C95.5935 16.903 95.2015 16.623 95.2015 16.063V15.895C95.2015 15.447 95.5095 15.167 96.1255 15.055H101.837C101.837 14.943 101.844 14.411 101.858 13.459C101.83 12.717 101.816 12.262 101.816 12.094C101.816 11.632 102.152 11.324 102.824 11.17ZM11.281 23.006C16.447 23.062 19.275 23.09 19.765 23.09C20.773 23.09 21.277 23.482 21.277 24.266V24.35C21.277 26.24 21.025 28.06 20.521 29.81C20.283 30.034 20.059 30.146 19.849 30.146H19.513C19.121 29.95 18.925 29.67 18.925 29.306C19.261 26.982 19.429 25.61 19.429 25.19V24.938C16.657 24.882 14.501 24.854 12.961 24.854H10.777C10.413 24.854 10.133 24.658 9.93701 24.266V23.678C10.133 23.23 10.581 23.006 11.281 23.006ZM15.565 28.193H15.985C16.377 28.417 16.573 28.753 16.573 29.201V30.629H17.245C18.085 30.629 19.457 30.685 21.361 30.797L22.201 30.713C22.705 30.881 22.957 31.161 22.957 31.553V31.721C22.831 32.281 22.551 32.561 22.117 32.561C21.571 32.561 18.659 32.505 13.381 32.393C11.141 32.449 9.85301 32.477 9.51701 32.477C8.67701 32.379 8.25701 32.071 8.25701 31.553V31.469C8.36901 30.909 8.64901 30.629 9.09701 30.629C10.119 30.629 12.023 30.601 14.809 30.545L14.725 30.377V29.705C14.725 28.697 15.005 28.193 15.565 28.193ZM15.754 33.695C18.274 33.695 20.01 34.528 20.962 36.194C21.186 36.768 21.298 37.335 21.298 37.895C21.298 39.925 19.786 41.241 16.762 41.843H16.006C12.814 41.843 10.826 41.003 10.042 39.323C9.87401 38.875 9.79001 38.462 9.79001 38.084V37.811C9.79001 36.061 10.742 34.836 12.646 34.136C13.36 33.842 14.396 33.695 15.754 33.695ZM11.554 38.084C11.918 39.274 13.178 39.869 15.334 39.869H16.594C17.91 39.869 18.862 39.274 19.45 38.084V37.727C19.45 36.537 18.274 35.851 15.922 35.669H15.67C12.926 35.669 11.554 36.474 11.554 38.084ZM32.3729 23.699C34.8929 23.699 36.6289 24.483 37.5809 26.051C37.8049 26.583 37.9169 27.115 37.9169 27.647C37.9169 29.551 36.4049 30.783 33.3809 31.343H32.6249C29.4329 31.343 27.4449 30.559 26.6609 28.991C26.4929 28.557 26.4089 28.165 26.4089 27.815V27.563C26.4089 25.911 27.3609 24.763 29.2649 24.119C29.9789 23.839 31.0149 23.699 32.3729 23.699ZM28.1729 27.815C28.5369 28.935 29.7969 29.495 31.9529 29.495H33.2129C34.5289 29.495 35.4809 28.935 36.0689 27.815V27.479C36.0689 26.373 34.8929 25.729 32.5409 25.547H32.2889C29.5449 25.547 28.1729 26.303 28.1729 27.815ZM27.3329 32.477C29.3629 32.533 31.0709 32.561 32.4569 32.561H38.4209C39.2049 32.659 39.5969 32.967 39.5969 33.485C39.4849 34.101 39.1769 34.409 38.6729 34.409H38.0009C37.5249 34.409 36.7689 34.381 35.7329 34.325V39.617C35.5369 40.009 35.2569 40.205 34.8929 40.205C34.2209 40.205 33.8849 39.505 33.8849 38.105V34.325H30.2729V39.197C30.2729 39.505 30.0769 39.785 29.6849 40.037H29.0969C28.8449 39.953 28.6209 39.673 28.4249 39.197C28.4809 38.357 28.5089 37.741 28.5089 37.349V34.325H25.6529C24.9809 34.283 24.6449 33.975 24.6449 33.401C24.6449 32.841 25.1769 32.561 26.2409 32.561C26.6049 32.561 26.9689 32.533 27.3329 32.477ZM46.3189 23.741C46.9349 23.741 47.2429 24.105 47.2429 24.833V26.009L47.3269 26.177L48.3349 26.093H49.8469C50.8549 26.093 51.3589 26.429 51.3589 27.101C51.2189 27.661 50.9109 27.941 50.4349 27.941H43.9669C43.5189 27.941 42.9309 27.969 42.2029 28.025C41.7269 28.025 41.4189 27.689 41.2789 27.017C41.2789 26.527 41.6429 26.247 42.3709 26.177H45.2269C45.3389 26.177 45.3949 26.121 45.3949 26.009V24.833C45.3949 24.105 45.7029 23.741 46.3189 23.741ZM46.2349 28.865C48.0689 28.865 49.3849 29.817 50.1829 31.721C50.2389 31.931 50.2669 32.155 50.2669 32.393V32.645C50.2669 34.647 49.1189 35.963 46.8229 36.593L46.3189 36.677C44.4709 36.677 43.1549 35.753 42.3709 33.905L42.2869 33.317V33.149C42.2869 31.147 43.0429 29.831 44.5549 29.201C45.1989 28.977 45.7589 28.865 46.2349 28.865ZM44.1349 32.897V33.233C44.1349 33.947 44.6949 34.451 45.8149 34.745L46.4029 34.829C47.1029 34.829 47.7469 34.353 48.3349 33.401L48.4189 32.561V32.393C48.1249 31.273 47.2569 30.713 45.8149 30.713C44.6949 30.923 44.1349 31.651 44.1349 32.897ZM56.1259 23.195C56.5739 23.405 56.7979 23.685 56.7979 24.035C56.7979 25.323 56.8259 27.563 56.8819 30.755C56.8819 30.979 56.8539 31.483 56.7979 32.267C56.9099 34.101 56.9659 36.369 56.9659 39.071C56.9659 39.505 56.6579 39.813 56.0419 39.995C55.5239 39.995 55.2159 39.603 55.1179 38.819V38.399C55.1179 36.775 55.0899 34.535 55.0339 31.679H53.2699V36.215C53.2699 36.733 53.2979 37.461 53.3539 38.399C53.1299 38.959 52.8219 39.239 52.4299 39.239C51.8139 39.239 51.5059 38.651 51.5059 37.475C51.4499 36.873 51.4219 35.921 51.4219 34.619C51.4219 34.003 51.4499 33.611 51.5059 33.443C51.4499 32.687 51.4219 32.043 51.4219 31.511V24.539C51.4219 23.811 51.7299 23.447 52.3459 23.447C52.9619 23.545 53.2699 23.853 53.2699 24.371V29.831H53.3539C53.5079 29.831 54.0679 29.859 55.0339 29.915V29.579C55.0339 28.417 55.0059 26.653 54.9499 24.287C54.9499 23.587 55.3419 23.223 56.1259 23.195ZM70.8942 24.875H71.0622C71.5522 24.875 71.8322 25.239 71.9022 25.967C71.9582 28.907 71.9862 31.147 71.9862 32.687C71.7342 33.359 71.2862 33.695 70.6422 33.695H69.1302C67.7442 33.695 66.3722 33.723 65.0142 33.779C64.4402 33.723 63.4322 33.695 61.9902 33.695C61.2062 33.695 60.8142 32.995 60.8142 31.595C60.7582 31.021 60.7302 30.573 60.7302 30.251C60.7862 28.725 60.8142 27.269 60.8142 25.883C60.9122 25.267 61.1922 24.959 61.6542 24.959H61.8222C62.3822 24.959 62.6622 25.379 62.6622 26.219C62.6622 26.317 62.6342 26.821 62.5782 27.731L63.5862 27.815H64.4262C65.2242 27.815 65.8122 27.843 66.1902 27.899C66.6802 27.843 67.2962 27.815 68.0382 27.815H70.0542V25.883C70.1102 25.211 70.3902 24.875 70.8942 24.875ZM62.5782 29.579V31.427L62.6622 31.847C63.8662 31.903 64.7622 31.931 65.3502 31.931H67.8702C68.3462 31.931 69.1022 31.903 70.1382 31.847V29.663H64.4262C64.0342 29.663 63.4182 29.635 62.5782 29.579ZM66.2742 33.17C66.8342 33.31 67.1142 33.618 67.1142 34.094L67.1352 37.139H70.9152C71.2372 37.139 71.6852 37.167 72.2592 37.223C72.3572 37.167 72.4972 37.139 72.6792 37.139C73.2392 37.293 73.5192 37.573 73.5192 37.979V38.147C73.3932 38.707 73.1132 38.987 72.6792 38.987C66.0992 38.931 61.8152 38.903 59.8272 38.903C59.0432 38.903 58.6512 38.623 58.6512 38.063V37.895C58.6512 37.447 58.9592 37.167 59.5752 37.055H65.2872C65.2872 36.943 65.2942 36.411 65.3082 35.459C65.2802 34.717 65.2662 34.262 65.2662 34.094C65.2662 33.632 65.6022 33.324 66.2742 33.17ZM79.8231 24.749H79.9911C80.5511 24.749 80.8311 25.281 80.8311 26.345C80.8311 28.585 81.5591 30.937 83.0151 33.401C83.9111 34.255 84.3591 34.815 84.3591 35.081V35.249C84.3591 35.711 84.0511 35.991 83.4351 36.089C82.5251 35.879 81.5171 34.675 80.4111 32.477C80.0751 31.665 79.9071 31.217 79.9071 31.133H79.8231C78.3111 34.605 77.0791 36.341 76.1271 36.341H75.9591C75.4551 36.271 75.2031 36.019 75.2031 35.585V35.417C75.2031 35.179 75.6511 34.563 76.5471 33.569C78.2271 31.063 79.0671 28.291 79.0671 25.253C79.2911 24.917 79.5431 24.749 79.8231 24.749ZM89.9241 22.922H90.0081C90.3581 22.922 90.6381 23.146 90.8481 23.594C90.8481 25.162 90.8761 26.814 90.9321 28.55C90.8761 32.162 90.8481 35.606 90.8481 38.882C90.7501 39.498 90.4701 39.806 90.0081 39.806H89.8401C89.2801 39.806 89.0001 39.302 89.0001 38.294V37.286C89.0001 36.684 89.0281 36.208 89.0841 35.858C89.0281 35.382 89.0001 34.99 89.0001 34.682C89.0001 33.1 89.0561 31.448 89.1681 29.726C89.1121 28.69 89.0841 27.57 89.0841 26.366V23.93C89.1401 23.258 89.4201 22.922 89.9241 22.922ZM86.9001 23.258C87.4601 23.496 87.7401 23.832 87.7401 24.266C87.7401 24.602 87.7121 25.106 87.6561 25.778C87.6561 26.87 87.6841 28.382 87.7401 30.314C87.6841 33.016 87.6561 35.676 87.6561 38.294C87.5301 38.854 87.2501 39.134 86.8161 39.134H86.6481C86.2001 39.134 85.9201 38.826 85.8081 38.21C85.8641 34.43 85.8921 32.05 85.8921 31.07H85.8081C85.2341 31.126 84.7861 31.154 84.4641 31.154H84.0441C83.4841 31.07 83.2041 30.818 83.2041 30.398V30.146C83.2041 29.53 84.1001 29.222 85.8921 29.222C85.8921 29.012 85.8641 28.312 85.8081 27.122C85.8641 25.33 85.8921 24.294 85.8921 24.014C86.0601 23.51 86.3961 23.258 86.9001 23.258ZM100.239 24.875C102.283 24.875 104.075 25.575 105.615 26.975C106.175 27.843 106.455 28.935 106.455 30.251C106.455 31.889 105.251 33.233 102.843 34.283C101.863 34.451 101.107 34.535 100.575 34.535H100.071C98.1674 34.535 96.5714 33.835 95.2834 32.435C94.6674 31.581 94.3594 30.657 94.3594 29.663C94.3594 28.207 95.0874 26.947 96.5434 25.883C97.8874 25.253 99.1194 24.917 100.239 24.875ZM96.2074 29.579V29.747C96.2074 31.301 97.3274 32.281 99.5674 32.687H100.659C102.549 32.687 103.837 32.015 104.523 30.671C104.579 30.573 104.607 30.461 104.607 30.335V30.167C104.607 28.669 104.159 27.773 103.263 27.479C102.311 26.975 101.219 26.723 99.9874 26.723C98.7834 26.723 97.6914 27.199 96.7114 28.151C96.3754 28.795 96.2074 29.271 96.2074 29.579ZM102.948 33.149C103.564 33.149 103.872 33.625 103.872 34.577V34.745C103.872 35.403 103.9 36.159 103.956 37.013H104.04C104.502 37.013 105.51 37.041 107.064 37.097C107.386 37.209 107.61 37.405 107.736 37.685V38.021C107.624 38.581 107.344 38.861 106.896 38.861H93.4564C92.8964 38.749 92.6164 38.469 92.6164 38.021V37.937C92.6164 37.321 93.0924 37.013 94.0444 37.013H96.3964L96.4804 36.173V34.157C96.5784 33.541 96.8864 33.233 97.4044 33.233C97.9224 33.233 98.2304 33.625 98.3284 34.409V35.585C98.3284 35.879 98.3004 36.355 98.2444 37.013H102.108C102.052 35.165 102.024 34.129 102.024 33.905C102.206 33.401 102.514 33.149 102.948 33.149Z" fill="black"/>
</svg>
