<svg width="155" height="42" viewBox="0 0 155 42" fill="none" xmlns="http://www.w3.org/2000/svg">
<path d="M28.997 1.909H29.165C29.655 1.909 29.935 2.273 30.005 3.001V3.757C30.187 3.757 30.663 3.785 31.433 3.841C31.643 3.841 32.427 3.813 33.785 3.757C34.793 3.757 35.297 4.037 35.297 4.597V4.849C35.297 5.353 34.989 5.605 34.373 5.605H30.005V5.689C30.005 6.809 30.845 7.985 32.525 9.217C34.597 10.029 35.633 10.589 35.633 10.897C35.633 10.925 35.661 11.037 35.717 11.233C35.577 11.793 35.269 12.073 34.793 12.073C32.903 11.569 31.363 10.757 30.173 9.637C29.473 9.007 29.109 8.559 29.081 8.293C27.765 10.057 25.833 11.317 23.285 12.073C22.823 12.073 22.543 11.737 22.445 11.065C22.445 10.631 23.341 10.071 25.133 9.385C27.093 8.097 28.073 6.893 28.073 5.773V5.605C27.709 5.605 26.253 5.633 23.705 5.689C23.299 5.689 23.047 5.353 22.949 4.681V4.597C23.173 4.093 23.565 3.841 24.125 3.841H25.049C25.707 3.841 26.743 3.813 28.157 3.757V2.917C28.213 2.245 28.493 1.909 28.997 1.909ZM29.123 11.17C29.683 11.31 29.963 11.618 29.963 12.094L29.984 15.139H33.764C34.086 15.139 34.534 15.167 35.108 15.223C35.206 15.167 35.346 15.139 35.528 15.139C36.088 15.293 36.368 15.573 36.368 15.979V16.147C36.242 16.707 35.962 16.987 35.528 16.987C28.948 16.931 24.664 16.903 22.676 16.903C21.892 16.903 21.5 16.623 21.5 16.063V15.895C21.5 15.447 21.808 15.167 22.424 15.055H28.136C28.136 14.943 28.143 14.411 28.157 13.459C28.129 12.717 28.115 12.262 28.115 12.094C28.115 11.632 28.451 11.324 29.123 11.17ZM49.8959 0.816999C50.5259 0.816999 50.9459 1.321 51.1559 2.329C50.9879 5.353 50.9039 7.173 50.9039 7.789C50.9039 8.251 50.5959 8.531 49.9799 8.629C49.5319 8.629 49.2519 8.321 49.1399 7.705V5.857C44.9679 5.913 42.2239 5.969 40.9079 6.025C40.4319 6.025 40.1239 5.689 39.9839 5.017C39.9839 4.625 40.2639 4.345 40.8239 4.177C42.6579 4.121 44.0859 4.093 45.1079 4.093H49.1399C49.2519 4.093 49.3079 4.037 49.3079 3.925V2.665H43.5959C43.2459 2.665 42.8259 2.693 42.3359 2.749C40.8799 2.749 40.1519 2.469 40.1519 1.909V1.489C40.3479 1.097 40.6279 0.900999 40.9919 0.900999C43.2039 0.900999 46.1719 0.872999 49.8959 0.816999ZM45.3599 6.193H45.7799C46.1719 6.417 46.3679 6.753 46.3679 7.201V8.629H47.0399C47.8799 8.629 49.2519 8.685 51.1559 8.797L51.9959 8.713C52.4999 8.881 52.7519 9.161 52.7519 9.553V9.721C52.6259 10.281 52.3459 10.561 51.9119 10.561C51.3659 10.561 48.4539 10.505 43.1759 10.393C40.9359 10.449 39.6479 10.477 39.3119 10.477C38.4719 10.379 38.0519 10.071 38.0519 9.553V9.469C38.1639 8.909 38.4439 8.629 38.8919 8.629C39.9139 8.629 41.8179 8.601 44.6039 8.545L44.5199 8.377V7.705C44.5199 6.697 44.7999 6.193 45.3599 6.193ZM40.6349 11.485H46.2629C49.1749 11.485 50.6309 11.625 50.6309 11.905C50.7989 12.339 50.8829 13.039 50.8829 14.005C50.8829 15.349 50.2949 16.021 49.1189 16.021C47.7469 16.077 45.2269 16.133 41.5589 16.189V17.155H45.3389C46.3189 17.155 47.3269 17.183 48.3629 17.239C48.6149 17.183 49.2309 17.155 50.2109 17.155C50.7429 17.155 51.0229 17.519 51.0509 18.247C50.8829 18.751 50.5189 19.003 49.9589 19.003H40.8029C40.0749 18.877 39.7109 18.597 39.7109 18.163L39.7949 17.575V17.407C39.7949 17.141 39.7669 16.791 39.7109 16.357C39.7109 15.013 40.1869 14.341 41.1389 14.341C41.3629 14.341 41.4749 14.369 41.4749 14.425C41.5309 14.425 41.7549 14.397 42.1469 14.341C45.7029 14.285 47.8029 14.257 48.4469 14.257L49.0349 14.173V13.333C46.4449 13.277 44.4289 13.249 42.9869 13.249H40.8869C40.7609 13.249 40.6489 13.277 40.5509 13.333C40.1729 13.333 39.8649 13.109 39.6269 12.661V12.325C39.6269 11.821 39.9629 11.541 40.6349 11.485ZM60.4878 2.245C61.3278 2.399 61.7478 2.791 61.7478 3.421C61.7478 5.885 61.4958 7.117 60.9918 7.117C60.9918 7.243 60.7678 7.355 60.3198 7.453C58.6678 7.509 57.3238 7.537 56.2878 7.537V9.175H56.4558C57.5758 9.175 59.3328 9.154 61.7268 9.112C62.1748 9.35 62.3988 9.63 62.3988 9.952C62.3988 10.624 61.6708 10.96 60.2148 10.96C58.8288 11.002 57.2958 11.023 55.6158 11.023C54.8878 10.883 54.5238 10.575 54.5238 10.099C54.4678 8.265 54.4398 7.019 54.4398 6.361C54.6078 5.913 54.9438 5.689 55.4478 5.689H58.5558C58.8358 5.689 59.2558 5.661 59.8158 5.605V5.521C59.8718 4.653 59.8998 4.177 59.8998 4.093H59.8158C59.1998 4.149 58.6678 4.177 58.2198 4.177H55.5318C54.8598 4.121 54.5238 3.841 54.5238 3.337V3.169C54.5238 2.665 54.8598 2.385 55.5318 2.329H59.3118C59.6198 2.329 60.0118 2.301 60.4878 2.245ZM66.1368 1.321H66.3048C66.7948 1.321 67.0748 1.685 67.1448 2.413V4.765C67.1448 6.165 67.1728 8.153 67.2288 10.729C67.1308 10.981 66.9348 11.205 66.6408 11.401H66.0528C65.5488 11.401 65.2968 10.113 65.2968 7.537V6.025L65.3808 5.521C65.3248 5.157 65.2968 4.793 65.2968 4.429V2.329C65.3528 1.657 65.6328 1.321 66.1368 1.321ZM61.6218 11.863C62.1958 11.863 62.5598 12.388 62.7138 13.438C63.2598 14.922 64.5478 16.147 66.5778 17.113C67.4738 17.239 67.9218 17.617 67.9218 18.247C67.7818 18.835 67.4738 19.129 66.9978 19.129C65.8638 19.129 64.2958 18.191 62.2938 16.315C61.8458 15.755 61.6218 15.405 61.6218 15.265H61.5378C60.6418 16.847 58.9898 18.107 56.5818 19.045C56.4978 19.101 56.3298 19.129 56.0778 19.129C55.6998 19.129 55.4478 18.835 55.3218 18.247V18.163C55.3218 17.617 55.9658 17.148 57.2538 16.756C59.0458 15.622 60.1378 14.488 60.5298 13.354C60.7258 12.36 61.0898 11.863 61.6218 11.863ZM81.7558 0.984999C82.3158 1.139 82.5958 1.391 82.5958 1.741C82.5958 2.385 82.6238 3.365 82.6798 4.681C82.6238 5.759 82.5958 6.459 82.5958 6.781C82.6518 7.145 82.6798 7.509 82.6798 7.873C83.1838 7.873 83.7438 7.845 84.3598 7.789C85.0318 7.887 85.3678 8.195 85.3678 8.713V8.797C85.3678 9.357 84.8358 9.637 83.7718 9.637C83.4078 9.693 83.0438 9.721 82.6798 9.721V17.029C82.5678 17.645 82.2598 17.953 81.7558 17.953C81.1398 17.953 80.8318 17.253 80.8318 15.853V15.517C80.8318 14.761 80.8598 14.313 80.9158 14.173C80.8598 13.053 80.8318 12.073 80.8318 11.233V1.909C80.8318 1.461 81.1398 1.153 81.7558 0.984999ZM74.8678 9.805C75.4838 9.805 75.7918 10.225 75.7918 11.065V12.493L79.6558 12.451C80.0618 12.451 80.3138 12.787 80.4118 13.459V13.543C80.4118 14.061 79.0258 14.369 76.2538 14.467C73.5938 14.439 71.6898 14.425 70.5418 14.425C69.9258 14.313 69.6178 14.033 69.6178 13.585V13.165C69.8418 12.773 70.1778 12.577 70.6258 12.577H72.9358L73.9438 12.493V10.729C74.0558 10.113 74.3638 9.805 74.8678 9.805ZM72.8098 3.274C73.3698 3.274 75.0218 3.302 77.7658 3.358C78.4938 3.358 78.8578 4.114 78.8578 5.626C78.8578 8.804 78.6058 10.624 78.1018 11.086L77.6818 11.17H77.5978C77.1078 11.17 76.8278 10.862 76.7578 10.246C76.9258 7.978 77.0098 6.326 77.0098 5.29V5.206C75.8898 5.15 75.0498 5.122 74.4898 5.122H71.4658C70.9618 5.122 70.6818 4.786 70.6258 4.114C70.6258 3.554 71.3538 3.274 72.8098 3.274ZM97.8955 0.228999H97.9795C98.5955 0.228999 98.9035 0.676999 98.9035 1.573V2.413C99.5615 2.469 100.037 2.497 100.331 2.497H101.423C102.431 2.497 102.935 2.833 102.935 3.505C102.935 3.855 102.683 4.135 102.179 4.345C100.499 4.289 99.5195 4.261 99.2395 4.261C98.3015 4.261 96.4535 4.317 93.6955 4.429C93.1915 4.247 92.9395 3.939 92.9395 3.505C92.9395 2.833 93.9475 2.497 95.9635 2.497H97.0555V1.069C97.1675 0.508999 97.4475 0.228999 97.8955 0.228999ZM97.7275 4.513C99.7715 4.513 101.171 5.409 101.927 7.201L102.011 7.705V8.293C102.011 9.441 101.199 10.309 99.5755 10.897C99.0155 11.009 98.5115 11.065 98.0635 11.065H97.4755C95.7955 11.065 94.7035 10.113 94.1995 8.209C94.1995 8.083 94.1715 7.971 94.1155 7.873C94.1155 6.193 95.3195 5.073 97.7275 4.513ZM95.9635 7.873C95.9635 8.657 96.6075 9.133 97.8955 9.301C99.4635 9.189 100.247 8.741 100.247 7.957C99.9815 6.977 99.2255 6.445 97.9795 6.361H97.7275C96.5515 6.725 95.9635 7.229 95.9635 7.873ZM105.812 1.3C106.162 1.3 106.442 1.552 106.652 2.056C106.708 3.428 106.736 4.52 106.736 5.332V5.416H108.584C109.13 5.416 109.438 5.752 109.508 6.424C109.312 6.928 109.032 7.18 108.668 7.18H106.652V7.264C106.652 7.6 106.68 7.768 106.736 7.768L106.652 8.608V10.372C106.652 10.498 106.68 10.61 106.736 10.708C106.582 11.38 106.246 11.716 105.728 11.716C105.168 11.562 104.888 11.254 104.888 10.792V4.324C104.888 3.764 104.86 3.092 104.804 2.308C104.958 1.636 105.294 1.3 105.812 1.3ZM97.2025 12.094H98.2945C100.128 12.094 102.676 12.122 105.938 12.178C106.61 12.178 106.946 13.508 106.946 16.168C107.002 16.168 107.03 16.476 107.03 17.092C107.03 18.436 106.666 19.108 105.938 19.108H104.258C102.886 19.108 101.71 19.136 100.73 19.192C100.156 19.136 99.1485 19.108 97.7065 19.108C96.6425 19.108 96.1105 18.772 96.1105 18.1V17.344C96.1105 17.05 96.0825 16.798 96.0265 16.588C96.0825 16.294 96.1105 15.664 96.1105 14.698V13.186C96.2925 12.458 96.6565 12.094 97.2025 12.094ZM97.9585 13.942C97.9025 15.566 97.8745 16.616 97.8745 17.092L97.9585 17.26C98.3505 17.26 99.1065 17.288 100.226 17.344C102.76 17.288 104.412 17.26 105.182 17.26V17.176C105.182 16.462 105.126 15.412 105.014 14.026C104.482 14.026 102.718 13.97 99.7225 13.858C98.8825 13.914 98.2945 13.942 97.9585 13.942ZM112.202 2.875H115.31C116.094 2.945 116.486 3.281 116.486 3.883C116.486 6.809 115.31 10.309 112.958 14.383C112.65 14.551 112.398 14.635 112.202 14.635C111.698 14.453 111.446 14.173 111.446 13.795V13.627C112.51 11.415 113.042 10.239 113.042 10.099C114.05 7.999 114.554 6.207 114.554 4.723H112.118C111.572 4.723 111.264 4.387 111.194 3.715C111.418 3.155 111.754 2.875 112.202 2.875ZM116.381 2.875H119.489C120.273 2.945 120.665 3.281 120.665 3.883C120.665 6.809 119.489 10.309 117.137 14.383C116.829 14.551 116.577 14.635 116.381 14.635C115.877 14.453 115.625 14.173 115.625 13.795V13.627C116.689 11.415 117.221 10.239 117.221 10.099C118.229 7.999 118.733 6.207 118.733 4.723H116.297C115.751 4.723 115.443 4.387 115.373 3.715C115.597 3.155 115.933 2.875 116.381 2.875ZM126.608 0.921999H126.692C127.042 0.921999 127.322 1.146 127.532 1.594C127.532 3.162 127.56 4.814 127.616 6.55C127.56 10.162 127.532 13.606 127.532 16.882C127.434 17.498 127.154 17.806 126.692 17.806H126.524C125.964 17.806 125.684 17.302 125.684 16.294V15.286C125.684 14.684 125.712 14.208 125.768 13.858C125.712 13.382 125.684 12.99 125.684 12.682C125.684 11.1 125.74 9.448 125.852 7.726C125.796 6.69 125.768 5.57 125.768 4.366V1.93C125.824 1.258 126.104 0.921999 126.608 0.921999ZM123.584 1.258C124.144 1.496 124.424 1.832 124.424 2.266C124.424 2.602 124.396 3.106 124.34 3.778C124.34 4.87 124.368 6.382 124.424 8.314C124.368 11.016 124.34 13.676 124.34 16.294C124.214 16.854 123.934 17.134 123.5 17.134H123.332C122.884 17.134 122.604 16.826 122.492 16.21C122.548 12.43 122.576 10.05 122.576 9.07H122.492C121.918 9.126 121.47 9.154 121.148 9.154H120.728C120.168 9.07 119.888 8.818 119.888 8.398V8.146C119.888 7.53 120.784 7.222 122.576 7.222C122.576 7.012 122.548 6.312 122.492 5.122C122.548 3.33 122.576 2.294 122.576 2.014C122.744 1.51 123.08 1.258 123.584 1.258ZM1.82131 24.56H6.94531C7.84131 24.56 8.28931 25.232 8.28931 26.576C8.34531 26.786 8.37331 27.402 8.37331 28.424V28.592C8.26131 30.818 8.20531 32.022 8.20531 32.204V32.792C8.20531 33.03 8.23331 33.338 8.28931 33.716C8.23331 33.8 8.20531 33.968 8.20531 34.22L8.28931 34.808C8.05131 35.704 7.57531 36.152 6.86131 36.152H4.59331C4.32731 36.152 4.04731 36.124 3.75331 36.068C3.54331 36.124 3.29131 36.152 2.99731 36.152H1.98931C1.03731 36.152 0.561307 35.508 0.561307 34.22V28.34C0.561307 27.57 0.533307 26.562 0.477307 25.316C0.477307 24.868 0.925307 24.616 1.82131 24.56ZM2.32531 26.408V26.492C2.38131 27.108 2.40931 27.64 2.40931 28.088V34.304H5.18131C5.46131 34.304 5.88131 34.332 6.44131 34.388V34.304C6.44131 33.548 6.41331 32.932 6.35731 32.456C6.46931 30.986 6.52531 29.362 6.52531 27.584V26.828C6.52531 26.492 6.24531 26.324 5.68531 26.324C3.96331 26.38 2.84331 26.408 2.32531 26.408ZM11.8803 23.048C12.2723 23.048 12.5523 23.3 12.7203 23.804C12.7203 24.112 12.6923 24.42 12.6363 24.728C12.6923 26.17 12.7203 27.402 12.7203 28.424V29.516H15.0723C15.4643 29.712 15.6603 29.992 15.6603 30.356C15.6603 31.028 15.1843 31.364 14.2323 31.364H12.7203V36.152C12.7203 36.88 12.7483 37.832 12.8043 39.008C12.6503 39.568 12.3703 39.848 11.9643 39.848H11.7963C11.2363 39.736 10.9563 39.456 10.9563 39.008C10.9563 38.154 10.9283 37.174 10.8723 36.068C10.8723 35.424 10.9003 34.164 10.9563 32.288C10.9003 29.124 10.8723 26.38 10.8723 24.056C11.0123 23.384 11.3483 23.048 11.8803 23.048ZM24.1404 22.922C27.7804 22.936 29.8804 23.832 30.4404 25.61C30.4964 25.918 30.5244 26.17 30.5244 26.366C30.5244 28.13 28.8724 29.222 25.5684 29.642H25.2324C21.1444 29.642 19.1004 28.578 19.1004 26.45C19.1004 24.812 20.3044 23.692 22.7124 23.09C23.4404 22.978 23.9164 22.922 24.1404 22.922ZM20.9484 26.366V26.45C20.9484 27.346 22.4604 27.794 25.4844 27.794C26.8424 27.794 27.9344 27.346 28.7604 26.45V26.366C28.7604 25.582 27.6404 25.05 25.4004 24.77C25.3444 24.77 25.3164 24.798 25.3164 24.854C24.8964 24.798 24.6164 24.742 24.4764 24.686C22.1244 24.966 20.9484 25.526 20.9484 26.366ZM18.2814 30.503C19.1214 30.559 19.7374 30.587 20.1294 30.587H21.5574C23.8954 30.587 27.0874 30.615 31.1334 30.671C31.6374 30.867 31.8894 31.147 31.8894 31.511V31.679C31.7634 32.239 31.4834 32.519 31.0494 32.519C28.5714 32.463 26.6394 32.435 25.2534 32.435H21.2214C21.1654 32.435 21.1374 32.407 21.1374 32.351C21.0814 32.351 21.0534 32.379 21.0534 32.435L20.6334 32.351H18.1974C17.8334 32.351 17.5534 32.155 17.3574 31.763V31.427C17.3574 31.007 17.6654 30.699 18.2814 30.503ZM20.3394 34.094H21.4314C23.2654 34.094 25.8134 34.122 29.0754 34.178C29.7474 34.178 30.0834 35.508 30.0834 38.168C30.1394 38.168 30.1674 38.476 30.1674 39.092C30.1674 40.436 29.8034 41.108 29.0754 41.108H27.3954C26.0234 41.108 24.8474 41.136 23.8674 41.192C23.2934 41.136 22.2854 41.108 20.8434 41.108C19.7794 41.108 19.2474 40.772 19.2474 40.1V39.344C19.2474 39.05 19.2194 38.798 19.1634 38.588C19.2194 38.294 19.2474 37.664 19.2474 36.698V35.186C19.4294 34.458 19.7934 34.094 20.3394 34.094ZM21.0954 35.942C21.0394 37.566 21.0114 38.616 21.0114 39.092L21.0954 39.26C21.4874 39.26 22.2434 39.288 23.3634 39.344C25.8974 39.288 27.5494 39.26 28.3194 39.26V39.176C28.3194 38.462 28.2634 37.412 28.1514 36.026C27.6194 36.026 25.8554 35.97 22.8594 35.858C22.0194 35.914 21.4314 35.942 21.0954 35.942ZM40.3642 22.922C44.0042 22.936 46.1042 23.832 46.6642 25.61C46.7202 25.918 46.7482 26.17 46.7482 26.366C46.7482 28.13 45.0962 29.222 41.7922 29.642H41.4562C37.3682 29.642 35.3242 28.578 35.3242 26.45C35.3242 24.812 36.5282 23.692 38.9362 23.09C39.6642 22.978 40.1402 22.922 40.3642 22.922ZM37.1722 26.366V26.45C37.1722 27.346 38.6842 27.794 41.7082 27.794C43.0662 27.794 44.1582 27.346 44.9842 26.45V26.366C44.9842 25.582 43.8642 25.05 41.6242 24.77C41.5682 24.77 41.5402 24.798 41.5402 24.854C41.1202 24.798 40.8402 24.742 40.7002 24.686C38.3482 24.966 37.1722 25.526 37.1722 26.366ZM34.5052 30.503C35.3452 30.559 35.9612 30.587 36.3532 30.587H37.7812C40.1192 30.587 43.3112 30.615 47.3572 30.671C47.8612 30.867 48.1132 31.147 48.1132 31.511V31.679C47.9872 32.239 47.7072 32.519 47.2732 32.519C44.7952 32.463 42.8632 32.435 41.4772 32.435H37.4452C37.3892 32.435 37.3612 32.407 37.3612 32.351C37.3052 32.351 37.2772 32.379 37.2772 32.435L36.8572 32.351H34.4212C34.0572 32.351 33.7772 32.155 33.5812 31.763V31.427C33.5812 31.007 33.8892 30.699 34.5052 30.503ZM36.2482 33.485H41.8762C44.7882 33.485 46.2442 33.625 46.2442 33.905C46.4122 34.339 46.4962 35.039 46.4962 36.005C46.4962 37.349 45.9082 38.021 44.7322 38.021C43.3602 38.077 40.8402 38.133 37.1722 38.189V39.155H40.9522C41.9322 39.155 42.9402 39.183 43.9762 39.239C44.2282 39.183 44.8442 39.155 45.8242 39.155C46.3562 39.155 46.6362 39.519 46.6642 40.247C46.4962 40.751 46.1322 41.003 45.5722 41.003H36.4162C35.6882 40.877 35.3242 40.597 35.3242 40.163L35.4082 39.575V39.407C35.4082 39.141 35.3802 38.791 35.3242 38.357C35.3242 37.013 35.8002 36.341 36.7522 36.341C36.9762 36.341 37.0882 36.369 37.0882 36.425C37.1442 36.425 37.3682 36.397 37.7602 36.341C41.3162 36.285 43.4162 36.257 44.0602 36.257L44.6482 36.173V35.333C42.0582 35.277 40.0422 35.249 38.6002 35.249H36.5002C36.3742 35.249 36.2622 35.277 36.1642 35.333C35.7862 35.333 35.4782 35.109 35.2402 34.661V34.325C35.2402 33.821 35.5762 33.541 36.2482 33.485ZM56.785 24.35H59.221C60.327 24.35 61.979 24.378 64.177 24.434C64.681 24.616 64.933 24.924 64.933 25.358C64.933 25.876 64.569 26.184 63.841 26.282C63.533 26.282 62.749 26.254 61.489 26.198C61.489 28.13 62.693 29.782 65.101 31.154L65.269 31.742C65.115 32.302 64.835 32.582 64.429 32.582H64.093C62.973 32.26 61.741 31.14 60.397 29.222C59.781 30.524 58.717 31.644 57.205 32.582L56.617 32.666H56.533C56.071 32.666 55.791 32.358 55.693 31.742C55.693 31.42 56.281 30.888 57.457 30.146C58.661 28.956 59.333 27.64 59.473 26.198H59.053C56.981 26.198 55.945 26.002 55.945 25.61L55.861 25.19C56.015 24.63 56.323 24.35 56.785 24.35ZM68.923 23.3C69.371 23.3 69.651 23.692 69.763 24.476V27.164C69.763 28.298 69.735 29.502 69.679 30.776C69.735 31.07 69.763 31.602 69.763 32.372C69.693 33.1 69.413 33.464 68.923 33.464H68.503C68.111 33.268 67.915 32.988 67.915 32.624V31.028C67.915 30.79 67.887 30.566 67.831 30.356C67.887 30.132 67.915 29.908 67.915 29.684V29.18H65.983C65.311 29.124 64.975 28.844 64.975 28.34V28.256C64.975 27.64 65.451 27.332 66.403 27.332H67.915V24.224C67.915 23.678 68.251 23.37 68.923 23.3ZM59.221 34.178C59.893 34.178 60.229 35.438 60.229 37.958V38.882H64.681C65.689 38.882 67.061 38.854 68.797 38.798C69.357 38.952 69.637 39.232 69.637 39.638V39.806C69.637 40.184 69.385 40.464 68.881 40.646C66.473 40.702 64.625 40.73 63.337 40.73H59.473C58.745 40.73 58.381 40.142 58.381 38.966C58.381 37.286 58.353 35.942 58.297 34.934C58.479 34.43 58.787 34.178 59.221 34.178ZM75.7291 24.455C76.0231 24.511 76.3031 24.539 76.5691 24.539H78.2491C78.9771 24.609 79.3411 24.889 79.3411 25.379V25.799C79.0891 26.191 78.7811 26.387 78.4171 26.387C78.2771 26.387 78.0531 26.359 77.7451 26.303L77.2411 26.387C76.5411 26.331 76.1771 26.303 76.1491 26.303C74.8331 26.359 73.8531 26.387 73.2091 26.387V26.471L73.3771 30.755H73.4611C74.4971 30.755 76.5131 30.671 79.5091 30.503C80.0131 30.685 80.2651 30.993 80.2651 31.427C80.2651 32.099 79.3691 32.435 77.5771 32.435C75.5751 32.547 73.8671 32.603 72.4531 32.603C72.0191 32.603 71.7111 32.267 71.5291 31.595C71.4731 28.767 71.4451 26.667 71.4451 25.295C71.4451 24.847 71.8931 24.595 72.7891 24.539H74.9731C75.2671 24.539 75.5191 24.511 75.7291 24.455ZM82.6801 23.3C83.0301 23.3 83.3101 23.552 83.5201 24.056C83.5761 25.428 83.6041 26.52 83.6041 27.332V27.416H85.4521C85.9981 27.416 86.3061 27.752 86.3761 28.424C86.1801 28.928 85.9001 29.18 85.5361 29.18H83.5201V29.264C83.5201 29.6 83.5481 29.768 83.6041 29.768L83.5201 30.608V32.372C83.5201 32.498 83.5481 32.61 83.6041 32.708C83.4501 33.38 83.1141 33.716 82.5961 33.716C82.0361 33.562 81.7561 33.254 81.7561 32.792V26.324C81.7561 25.764 81.7281 25.092 81.6721 24.308C81.8261 23.636 82.1621 23.3 82.6801 23.3ZM73.7551 33.485H79.3831C82.2951 33.485 83.7511 33.625 83.7511 33.905C83.9191 34.339 84.0031 35.039 84.0031 36.005C84.0031 37.349 83.4151 38.021 82.2391 38.021C80.8671 38.077 78.3471 38.133 74.6791 38.189V39.155H78.4591C79.4391 39.155 80.4471 39.183 81.4831 39.239C81.7351 39.183 82.3511 39.155 83.3311 39.155C83.8631 39.155 84.1431 39.519 84.1711 40.247C84.0031 40.751 83.6391 41.003 83.0791 41.003H73.9231C73.1951 40.877 72.8311 40.597 72.8311 40.163L72.9151 39.575V39.407C72.9151 39.141 72.8871 38.791 72.8311 38.357C72.8311 37.013 73.3071 36.341 74.2591 36.341C74.4831 36.341 74.5951 36.369 74.5951 36.425C74.6511 36.425 74.8751 36.397 75.2671 36.341C78.8231 36.285 80.9231 36.257 81.5671 36.257L82.1551 36.173V35.333C79.5651 35.277 77.5491 35.249 76.1071 35.249H74.0071C73.8811 35.249 73.7691 35.277 73.6711 35.333C73.2931 35.333 72.9851 35.109 72.7471 34.661V34.325C72.7471 33.821 73.0831 33.541 73.7551 33.485ZM93.0986 23.741C93.7146 23.741 94.0226 24.105 94.0226 24.833V26.009L94.1066 26.177L95.1146 26.093H96.6266C97.6346 26.093 98.1386 26.429 98.1386 27.101C97.9986 27.661 97.6906 27.941 97.2146 27.941H90.7466C90.2986 27.941 89.7106 27.969 88.9826 28.025C88.5066 28.025 88.1986 27.689 88.0586 27.017C88.0586 26.527 88.4226 26.247 89.1506 26.177H92.0066C92.1186 26.177 92.1746 26.121 92.1746 26.009V24.833C92.1746 24.105 92.4826 23.741 93.0986 23.741ZM93.0146 28.865C94.8486 28.865 96.1646 29.817 96.9626 31.721C97.0186 31.931 97.0466 32.155 97.0466 32.393V32.645C97.0466 34.647 95.8986 35.963 93.6026 36.593L93.0986 36.677C91.2506 36.677 89.9346 35.753 89.1506 33.905L89.0666 33.317V33.149C89.0666 31.147 89.8226 29.831 91.3346 29.201C91.9786 28.977 92.5386 28.865 93.0146 28.865ZM90.9146 32.897V33.233C90.9146 33.947 91.4746 34.451 92.5946 34.745L93.1826 34.829C93.8826 34.829 94.5266 34.353 95.1146 33.401L95.1986 32.561V32.393C94.9046 31.273 94.0366 30.713 92.5946 30.713C91.4746 30.923 90.9146 31.651 90.9146 32.897ZM102.906 23.195C103.354 23.405 103.578 23.685 103.578 24.035C103.578 25.323 103.606 27.563 103.662 30.755C103.662 30.979 103.634 31.483 103.578 32.267C103.69 34.101 103.746 36.369 103.746 39.071C103.746 39.505 103.438 39.813 102.822 39.995C102.304 39.995 101.996 39.603 101.898 38.819V38.399C101.898 36.775 101.87 34.535 101.814 31.679H100.05V36.215C100.05 36.733 100.078 37.461 100.134 38.399C99.9096 38.959 99.6016 39.239 99.2096 39.239C98.5936 39.239 98.2856 38.651 98.2856 37.475C98.2296 36.873 98.2016 35.921 98.2016 34.619C98.2016 34.003 98.2296 33.611 98.2856 33.443C98.2296 32.687 98.2016 32.043 98.2016 31.511V24.539C98.2016 23.811 98.5096 23.447 99.1256 23.447C99.7416 23.545 100.05 23.853 100.05 24.371V29.831H100.134C100.288 29.831 100.848 29.859 101.814 29.915V29.579C101.814 28.417 101.786 26.653 101.73 24.287C101.73 23.587 102.122 23.223 102.906 23.195ZM117.674 24.875H117.842C118.332 24.875 118.612 25.239 118.682 25.967C118.738 28.907 118.766 31.147 118.766 32.687C118.514 33.359 118.066 33.695 117.422 33.695H115.91C114.524 33.695 113.152 33.723 111.794 33.779C111.22 33.723 110.212 33.695 108.77 33.695C107.986 33.695 107.594 32.995 107.594 31.595C107.538 31.021 107.51 30.573 107.51 30.251C107.566 28.725 107.594 27.269 107.594 25.883C107.692 25.267 107.972 24.959 108.434 24.959H108.602C109.162 24.959 109.442 25.379 109.442 26.219C109.442 26.317 109.414 26.821 109.358 27.731L110.366 27.815H111.206C112.004 27.815 112.592 27.843 112.97 27.899C113.46 27.843 114.076 27.815 114.818 27.815H116.834V25.883C116.89 25.211 117.17 24.875 117.674 24.875ZM109.358 29.579V31.427L109.442 31.847C110.646 31.903 111.542 31.931 112.13 31.931H114.65C115.126 31.931 115.882 31.903 116.918 31.847V29.663H111.206C110.814 29.663 110.198 29.635 109.358 29.579ZM113.054 33.17C113.614 33.31 113.894 33.618 113.894 34.094L113.915 37.139H117.695C118.017 37.139 118.465 37.167 119.039 37.223C119.137 37.167 119.277 37.139 119.459 37.139C120.019 37.293 120.299 37.573 120.299 37.979V38.147C120.173 38.707 119.893 38.987 119.459 38.987C112.879 38.931 108.595 38.903 106.607 38.903C105.823 38.903 105.431 38.623 105.431 38.063V37.895C105.431 37.447 105.739 37.167 106.355 37.055H112.067C112.067 36.943 112.074 36.411 112.088 35.459C112.06 34.717 112.046 34.262 112.046 34.094C112.046 33.632 112.382 33.324 113.054 33.17ZM126.603 24.749H126.771C127.331 24.749 127.611 25.281 127.611 26.345C127.611 28.585 128.339 30.937 129.795 33.401C130.691 34.255 131.139 34.815 131.139 35.081V35.249C131.139 35.711 130.831 35.991 130.215 36.089C129.305 35.879 128.297 34.675 127.191 32.477C126.855 31.665 126.687 31.217 126.687 31.133H126.603C125.091 34.605 123.859 36.341 122.907 36.341H122.739C122.235 36.271 121.983 36.019 121.983 35.585V35.417C121.983 35.179 122.431 34.563 123.327 33.569C125.007 31.063 125.847 28.291 125.847 25.253C126.071 24.917 126.323 24.749 126.603 24.749ZM136.704 22.922H136.788C137.138 22.922 137.418 23.146 137.628 23.594C137.628 25.162 137.656 26.814 137.712 28.55C137.656 32.162 137.628 35.606 137.628 38.882C137.53 39.498 137.25 39.806 136.788 39.806H136.62C136.06 39.806 135.78 39.302 135.78 38.294V37.286C135.78 36.684 135.808 36.208 135.864 35.858C135.808 35.382 135.78 34.99 135.78 34.682C135.78 33.1 135.836 31.448 135.948 29.726C135.892 28.69 135.864 27.57 135.864 26.366V23.93C135.92 23.258 136.2 22.922 136.704 22.922ZM133.68 23.258C134.24 23.496 134.52 23.832 134.52 24.266C134.52 24.602 134.492 25.106 134.436 25.778C134.436 26.87 134.464 28.382 134.52 30.314C134.464 33.016 134.436 35.676 134.436 38.294C134.31 38.854 134.03 39.134 133.596 39.134H133.428C132.98 39.134 132.7 38.826 132.588 38.21C132.644 34.43 132.672 32.05 132.672 31.07H132.588C132.014 31.126 131.566 31.154 131.244 31.154H130.824C130.264 31.07 129.984 30.818 129.984 30.398V30.146C129.984 29.53 130.88 29.222 132.672 29.222C132.672 29.012 132.644 28.312 132.588 27.122C132.644 25.33 132.672 24.294 132.672 24.014C132.84 23.51 133.176 23.258 133.68 23.258ZM147.019 24.875C149.063 24.875 150.855 25.575 152.395 26.975C152.955 27.843 153.235 28.935 153.235 30.251C153.235 31.889 152.031 33.233 149.623 34.283C148.643 34.451 147.887 34.535 147.355 34.535H146.851C144.947 34.535 143.351 33.835 142.063 32.435C141.447 31.581 141.139 30.657 141.139 29.663C141.139 28.207 141.867 26.947 143.323 25.883C144.667 25.253 145.899 24.917 147.019 24.875ZM142.987 29.579V29.747C142.987 31.301 144.107 32.281 146.347 32.687H147.439C149.329 32.687 150.617 32.015 151.303 30.671C151.359 30.573 151.387 30.461 151.387 30.335V30.167C151.387 28.669 150.939 27.773 150.043 27.479C149.091 26.975 147.999 26.723 146.767 26.723C145.563 26.723 144.471 27.199 143.491 28.151C143.155 28.795 142.987 29.271 142.987 29.579ZM149.728 33.149C150.344 33.149 150.652 33.625 150.652 34.577V34.745C150.652 35.403 150.68 36.159 150.736 37.013H150.82C151.282 37.013 152.29 37.041 153.844 37.097C154.166 37.209 154.39 37.405 154.516 37.685V38.021C154.404 38.581 154.124 38.861 153.676 38.861H140.236C139.676 38.749 139.396 38.469 139.396 38.021V37.937C139.396 37.321 139.872 37.013 140.824 37.013H143.176L143.26 36.173V34.157C143.358 33.541 143.666 33.233 144.184 33.233C144.702 33.233 145.01 33.625 145.108 34.409V35.585C145.108 35.879 145.08 36.355 145.024 37.013H148.888C148.832 35.165 148.804 34.129 148.804 33.905C148.986 33.401 149.294 33.149 149.728 33.149Z" fill="black"/>
</svg>
