<svg width="174" height="96" viewBox="0 0 174 96" fill="none" xmlns="http://www.w3.org/2000/svg">
<path d="M19.4424 2.56H24.5664C25.4624 2.56 25.9104 3.232 25.9104 4.576C25.9664 4.786 25.9944 5.402 25.9944 6.424V6.592C25.8824 8.818 25.8264 10.022 25.8264 10.204V10.792C25.8264 11.03 25.8544 11.338 25.9104 11.716C25.8544 11.8 25.8264 11.968 25.8264 12.22L25.9104 12.808C25.6724 13.704 25.1964 14.152 24.4824 14.152H22.2144C21.9484 14.152 21.6684 14.124 21.3744 14.068C21.1644 14.124 20.9124 14.152 20.6184 14.152H19.6104C18.6584 14.152 18.1824 13.508 18.1824 12.22V6.34C18.1824 5.57 18.1544 4.562 18.0984 3.316C18.0984 2.868 18.5464 2.616 19.4424 2.56ZM19.9464 4.408V4.492C20.0024 5.108 20.0304 5.64 20.0304 6.088V12.304H22.8024C23.0824 12.304 23.5024 12.332 24.0624 12.388V12.304C24.0624 11.548 24.0344 10.932 23.9784 10.456C24.0904 8.986 24.1464 7.362 24.1464 5.584V4.828C24.1464 4.492 23.8664 4.324 23.3064 4.324C21.5844 4.38 20.4644 4.408 19.9464 4.408ZM31.9794 1.195C32.4274 1.405 32.6514 1.685 32.6514 2.035C32.6514 3.323 32.6794 5.563 32.7354 8.755C32.7354 8.979 32.7074 9.483 32.6514 10.267C32.7634 12.101 32.8194 14.369 32.8194 17.071C32.8194 17.505 32.5114 17.813 31.8954 17.995C31.3774 17.995 31.0694 17.603 30.9714 16.819V16.399C30.9714 14.775 30.9434 12.535 30.8874 9.679H29.1234V14.215C29.1234 14.733 29.1514 15.461 29.2074 16.399C28.9834 16.959 28.6754 17.239 28.2834 17.239C27.6674 17.239 27.3594 16.651 27.3594 15.475C27.3034 14.873 27.2754 13.921 27.2754 12.619C27.2754 12.003 27.3034 11.611 27.3594 11.443C27.3034 10.687 27.2754 10.043 27.2754 9.511V2.539C27.2754 1.811 27.5834 1.447 28.1994 1.447C28.8154 1.545 29.1234 1.853 29.1234 2.371V7.831H29.2074C29.3614 7.831 29.9214 7.859 30.8874 7.915V7.579C30.8874 6.417 30.8594 4.653 30.8034 2.287C30.8034 1.587 31.1954 1.223 31.9794 1.195ZM39.0428 2.119C40.5548 2.119 41.7588 2.91 42.6548 4.492C42.8788 5.206 43.0188 5.794 43.0748 6.256C43.0748 8.076 42.0388 9.455 39.9668 10.393C39.5888 10.449 39.2808 10.477 39.0428 10.477H38.2028C36.5228 10.477 35.3188 9.392 34.5908 7.222L34.5068 6.34C34.5068 4.24 35.6268 2.833 37.8668 2.119H39.0428ZM36.3548 6.34C36.3548 7.6 37.0268 8.363 38.3708 8.629C39.9248 8.629 40.8768 7.929 41.2268 6.529V6.256C41.2268 5.15 40.4988 4.387 39.0428 3.967C37.8108 3.967 36.9428 4.464 36.4388 5.458L36.3548 6.34ZM46.6238 1.321H46.7918C47.2818 1.321 47.5618 1.685 47.6318 2.413V4.765C47.6318 6.165 47.6598 8.153 47.7158 10.729C47.6178 10.981 47.4218 11.205 47.1278 11.401H46.5398C46.0358 11.401 45.7838 10.113 45.7838 7.537V6.025L45.8678 5.521C45.8118 5.157 45.7838 4.793 45.7838 4.429V2.329C45.8398 1.657 46.1198 1.321 46.6238 1.321ZM37.3628 11.485H42.9908C45.9028 11.485 47.3588 11.625 47.3588 11.905C47.5268 12.339 47.6108 13.039 47.6108 14.005C47.6108 15.349 47.0228 16.021 45.8468 16.021C44.4748 16.077 41.9548 16.133 38.2868 16.189V17.155H42.0668C43.0468 17.155 44.0548 17.183 45.0908 17.239C45.3428 17.183 45.9588 17.155 46.9388 17.155C47.4708 17.155 47.7508 17.519 47.7788 18.247C47.6108 18.751 47.2468 19.003 46.6868 19.003H37.5308C36.8028 18.877 36.4388 18.597 36.4388 18.163L36.5228 17.575V17.407C36.5228 17.141 36.4948 16.791 36.4388 16.357C36.4388 15.013 36.9148 14.341 37.8668 14.341C38.0908 14.341 38.2028 14.369 38.2028 14.425C38.2588 14.425 38.4828 14.397 38.8748 14.341C42.4308 14.285 44.5308 14.257 45.1748 14.257L45.7628 14.173V13.333C43.1728 13.277 41.1568 13.249 39.7148 13.249H37.6148C37.4888 13.249 37.3768 13.277 37.2788 13.333C36.9008 13.333 36.5928 13.109 36.3548 12.661V12.325C36.3548 11.821 36.6908 11.541 37.3628 11.485ZM62.0036 2.056H62.1716C62.6196 2.056 62.8996 2.364 63.0116 2.98V9.406C63.0116 10.19 62.6476 10.582 61.9196 10.582H58.7276C56.4876 10.582 55.3676 10.218 55.3676 9.49V3.484C55.3676 3.036 55.5636 2.7 55.9556 2.476H56.3756C56.8796 2.546 57.1316 2.798 57.1316 3.232V3.736L57.2156 4.744H61.2476V4.66C61.2476 4.366 61.2196 3.806 61.1636 2.98C61.2756 2.364 61.5556 2.056 62.0036 2.056ZM57.3836 6.592H57.1316L57.2156 8.23V8.734H61.2476L61.1636 7.894V6.592H61.0796C60.4216 6.592 59.8896 6.564 59.4836 6.508C58.9236 6.564 58.2236 6.592 57.3836 6.592ZM66.6026 1.3C66.9526 1.3 67.2326 1.552 67.4426 2.056C67.4986 3.428 67.5266 4.52 67.5266 5.332V5.416H69.3746C69.9206 5.416 70.2286 5.752 70.2986 6.424C70.1026 6.928 69.8226 7.18 69.4586 7.18H67.4426V7.264C67.4426 7.6 67.4706 7.768 67.5266 7.768L67.4426 8.608V10.372C67.4426 10.498 67.4706 10.61 67.5266 10.708C67.3726 11.38 67.0366 11.716 66.5186 11.716C65.9586 11.562 65.6786 11.254 65.6786 10.792V4.324C65.6786 3.764 65.6506 3.092 65.5946 2.308C65.7486 1.636 66.0846 1.3 66.6026 1.3ZM61.2056 11.779C63.8796 11.835 65.8396 11.863 67.0856 11.863C67.6456 11.989 67.9256 12.269 67.9256 12.703V12.787C67.9256 13.305 67.5336 13.613 66.7496 13.711C64.0336 13.655 61.7936 13.627 60.0296 13.627H58.7696L58.6016 13.711L58.6856 13.879V14.215C58.6856 14.607 58.7136 15.503 58.7696 16.903H63.0536C64.4676 16.903 65.8396 16.847 67.1696 16.735C67.7296 16.931 68.0096 17.267 68.0096 17.743C68.0096 18.359 67.2396 18.667 65.6996 18.667C64.7336 18.723 64.0756 18.751 63.7256 18.751C61.0936 18.695 59.0776 18.667 57.6776 18.667C57.4116 18.667 57.1596 18.415 56.9216 17.911C56.9776 17.617 57.0056 17.449 57.0056 17.407C56.8936 16.035 56.8376 14.943 56.8376 14.131V12.787C56.8376 12.353 57.0896 12.045 57.5936 11.863C58.4616 11.863 59.6656 11.835 61.2056 11.779ZM78.764 0.921999C82.404 0.936 84.504 1.832 85.064 3.61C85.12 3.918 85.148 4.17 85.148 4.366C85.148 6.13 83.496 7.222 80.192 7.642H79.856C75.768 7.642 73.724 6.578 73.724 4.45C73.724 2.812 74.928 1.692 77.336 1.09C78.064 0.977999 78.54 0.921999 78.764 0.921999ZM75.572 4.366V4.45C75.572 5.346 77.084 5.794 80.108 5.794C81.466 5.794 82.558 5.346 83.384 4.45V4.366C83.384 3.582 82.264 3.05 80.024 2.77C79.968 2.77 79.94 2.798 79.94 2.854C79.52 2.798 79.24 2.742 79.1 2.686C76.748 2.966 75.572 3.526 75.572 4.366ZM72.905 8.503C73.745 8.559 74.361 8.587 74.753 8.587H76.181C78.519 8.587 81.711 8.615 85.757 8.671C86.261 8.867 86.513 9.147 86.513 9.511V9.679C86.387 10.239 86.107 10.519 85.673 10.519C83.195 10.463 81.263 10.435 79.877 10.435H75.845C75.789 10.435 75.761 10.407 75.761 10.351C75.705 10.351 75.677 10.379 75.677 10.435L75.257 10.351H72.821C72.457 10.351 72.177 10.155 71.981 9.763V9.427C71.981 9.007 72.289 8.699 72.905 8.503ZM74.774 12.178C75.446 12.178 75.782 13.438 75.782 15.958V16.882H80.234C81.242 16.882 82.614 16.854 84.35 16.798C84.91 16.952 85.19 17.232 85.19 17.638V17.806C85.19 18.184 84.938 18.464 84.434 18.646C82.026 18.702 80.178 18.73 78.89 18.73H75.026C74.298 18.73 73.934 18.142 73.934 16.966C73.934 15.286 73.906 13.942 73.85 12.934C74.032 12.43 74.34 12.178 74.774 12.178ZM101.59 1.909H101.758C102.248 1.909 102.528 2.273 102.598 3.001V3.757C102.78 3.757 103.256 3.785 104.026 3.841C104.236 3.841 105.02 3.813 106.378 3.757C107.386 3.757 107.89 4.037 107.89 4.597V4.849C107.89 5.353 107.582 5.605 106.966 5.605H102.598V5.689C102.598 6.809 103.438 7.985 105.118 9.217C107.19 10.029 108.226 10.589 108.226 10.897C108.226 10.925 108.254 11.037 108.31 11.233C108.17 11.793 107.862 12.073 107.386 12.073C105.496 11.569 103.956 10.757 102.766 9.637C102.066 9.007 101.702 8.559 101.674 8.293C100.358 10.057 98.4258 11.317 95.8778 12.073C95.4158 12.073 95.1358 11.737 95.0378 11.065C95.0378 10.631 95.9338 10.071 97.7258 9.385C99.6858 8.097 100.666 6.893 100.666 5.773V5.605C100.302 5.605 98.8458 5.633 96.2978 5.689C95.8918 5.689 95.6398 5.353 95.5418 4.681V4.597C95.7658 4.093 96.1578 3.841 96.7178 3.841H97.6418C98.2998 3.841 99.3358 3.813 100.75 3.757V2.917C100.806 2.245 101.086 1.909 101.59 1.909ZM101.716 11.17C102.276 11.31 102.556 11.618 102.556 12.094L102.577 15.139H106.357C106.679 15.139 107.127 15.167 107.701 15.223C107.799 15.167 107.939 15.139 108.121 15.139C108.681 15.293 108.961 15.573 108.961 15.979V16.147C108.835 16.707 108.555 16.987 108.121 16.987C101.541 16.931 97.2568 16.903 95.2688 16.903C94.4848 16.903 94.0928 16.623 94.0928 16.063V15.895C94.0928 15.447 94.4008 15.167 95.0168 15.055H100.729C100.729 14.943 100.736 14.411 100.75 13.459C100.722 12.717 100.708 12.262 100.708 12.094C100.708 11.632 101.044 11.324 101.716 11.17ZM122.489 0.816999C123.119 0.816999 123.539 1.321 123.749 2.329C123.581 5.353 123.497 7.173 123.497 7.789C123.497 8.251 123.189 8.531 122.573 8.629C122.125 8.629 121.845 8.321 121.733 7.705V5.857C117.561 5.913 114.817 5.969 113.501 6.025C113.025 6.025 112.717 5.689 112.577 5.017C112.577 4.625 112.857 4.345 113.417 4.177C115.251 4.121 116.679 4.093 117.701 4.093H121.733C121.845 4.093 121.901 4.037 121.901 3.925V2.665H116.189C115.839 2.665 115.419 2.693 114.929 2.749C113.473 2.749 112.745 2.469 112.745 1.909V1.489C112.941 1.097 113.221 0.900999 113.585 0.900999C115.797 0.900999 118.765 0.872999 122.489 0.816999ZM117.953 6.193H118.373C118.765 6.417 118.961 6.753 118.961 7.201V8.629H119.633C120.473 8.629 121.845 8.685 123.749 8.797L124.589 8.713C125.093 8.881 125.345 9.161 125.345 9.553V9.721C125.219 10.281 124.939 10.561 124.505 10.561C123.959 10.561 121.047 10.505 115.769 10.393C113.529 10.449 112.241 10.477 111.905 10.477C111.065 10.379 110.645 10.071 110.645 9.553V9.469C110.757 8.909 111.037 8.629 111.485 8.629C112.507 8.629 114.411 8.601 117.197 8.545L117.113 8.377V7.705C117.113 6.697 117.393 6.193 117.953 6.193ZM113.228 11.485H118.856C121.768 11.485 123.224 11.625 123.224 11.905C123.392 12.339 123.476 13.039 123.476 14.005C123.476 15.349 122.888 16.021 121.712 16.021C120.34 16.077 117.82 16.133 114.152 16.189V17.155H117.932C118.912 17.155 119.92 17.183 120.956 17.239C121.208 17.183 121.824 17.155 122.804 17.155C123.336 17.155 123.616 17.519 123.644 18.247C123.476 18.751 123.112 19.003 122.552 19.003H113.396C112.668 18.877 112.304 18.597 112.304 18.163L112.388 17.575V17.407C112.388 17.141 112.36 16.791 112.304 16.357C112.304 15.013 112.78 14.341 113.732 14.341C113.956 14.341 114.068 14.369 114.068 14.425C114.124 14.425 114.348 14.397 114.74 14.341C118.296 14.285 120.396 14.257 121.04 14.257L121.628 14.173V13.333C119.038 13.277 117.022 13.249 115.58 13.249H113.48C113.354 13.249 113.242 13.277 113.144 13.333C112.766 13.333 112.458 13.109 112.22 12.661V12.325C112.22 11.821 112.556 11.541 113.228 11.485ZM133.081 2.245C133.921 2.399 134.341 2.791 134.341 3.421C134.341 5.885 134.089 7.117 133.585 7.117C133.585 7.243 133.361 7.355 132.913 7.453C131.261 7.509 129.917 7.537 128.881 7.537V9.175H129.049C130.169 9.175 131.926 9.154 134.32 9.112C134.768 9.35 134.992 9.63 134.992 9.952C134.992 10.624 134.264 10.96 132.808 10.96C131.422 11.002 129.889 11.023 128.209 11.023C127.481 10.883 127.117 10.575 127.117 10.099C127.061 8.265 127.033 7.019 127.033 6.361C127.201 5.913 127.537 5.689 128.041 5.689H131.149C131.429 5.689 131.849 5.661 132.409 5.605V5.521C132.465 4.653 132.493 4.177 132.493 4.093H132.409C131.793 4.149 131.261 4.177 130.813 4.177H128.125C127.453 4.121 127.117 3.841 127.117 3.337V3.169C127.117 2.665 127.453 2.385 128.125 2.329H131.905C132.213 2.329 132.605 2.301 133.081 2.245ZM138.73 1.321H138.898C139.388 1.321 139.668 1.685 139.738 2.413V4.765C139.738 6.165 139.766 8.153 139.822 10.729C139.724 10.981 139.528 11.205 139.234 11.401H138.646C138.142 11.401 137.89 10.113 137.89 7.537V6.025L137.974 5.521C137.918 5.157 137.89 4.793 137.89 4.429V2.329C137.946 1.657 138.226 1.321 138.73 1.321ZM134.215 11.863C134.789 11.863 135.153 12.388 135.307 13.438C135.853 14.922 137.141 16.147 139.171 17.113C140.067 17.239 140.515 17.617 140.515 18.247C140.375 18.835 140.067 19.129 139.591 19.129C138.457 19.129 136.889 18.191 134.887 16.315C134.439 15.755 134.215 15.405 134.215 15.265H134.131C133.235 16.847 131.583 18.107 129.175 19.045C129.091 19.101 128.923 19.129 128.671 19.129C128.293 19.129 128.041 18.835 127.915 18.247V18.163C127.915 17.617 128.559 17.148 129.847 16.756C131.639 15.622 132.731 14.488 133.123 13.354C133.319 12.36 133.683 11.863 134.215 11.863ZM146.936 2.917H147.881C149.239 2.917 150.38 3.897 151.304 5.857C151.416 6.277 151.472 6.669 151.472 7.033V7.453C151.472 8.377 150.912 9.301 149.792 10.225C149.078 10.729 148.308 10.981 147.482 10.981H147.419C145.151 10.981 143.716 9.889 143.114 7.705V7.033C143.114 5.045 144.122 3.701 146.138 3.001C146.418 2.945 146.684 2.917 146.936 2.917ZM144.836 7.117C144.836 8.097 145.522 8.769 146.894 9.133H147.776C148.756 9.133 149.442 8.489 149.834 7.201C149.834 6.221 149.253 5.409 148.091 4.765C147.881 4.709 147.671 4.681 147.461 4.681C145.809 4.849 144.983 5.465 144.983 6.529C144.913 6.529 144.864 6.725 144.836 7.117ZM154.895 1.216H154.979C155.539 1.286 155.819 1.566 155.819 2.056V6.424C155.819 7.124 155.847 7.768 155.903 8.356C155.847 8.678 155.819 9.126 155.819 9.7C155.819 10.708 155.847 11.688 155.903 12.64C155.847 13.634 155.819 14.894 155.819 16.42C155.819 17.54 155.511 18.1 154.895 18.1H154.811C154.307 18.1 154.027 17.764 153.971 17.092C153.971 15.636 153.999 13.984 154.055 12.136C153.999 11.016 153.971 10.26 153.971 9.868C153.971 9.546 153.999 9.098 154.055 8.524C153.999 7.278 153.971 5.99 153.971 4.66V2.392C154.055 1.608 154.363 1.216 154.895 1.216ZM153.047 12.052C153.551 12.22 153.803 12.5 153.803 12.892V12.976C153.803 13.704 152.851 14.068 150.947 14.068L143.051 14.488C142.491 14.362 142.211 14.082 142.211 13.648V13.48C142.211 12.99 142.575 12.71 143.303 12.64C144.227 12.64 147.475 12.444 153.047 12.052ZM21.1807 24.35H23.6167C24.7227 24.35 26.3747 24.378 28.5727 24.434C29.0767 24.616 29.3287 24.924 29.3287 25.358C29.3287 25.876 28.9647 26.184 28.2367 26.282C27.9287 26.282 27.1447 26.254 25.8847 26.198C25.8847 28.13 27.0887 29.782 29.4967 31.154L29.6647 31.742C29.5107 32.302 29.2307 32.582 28.8247 32.582H28.4887C27.3687 32.26 26.1367 31.14 24.7927 29.222C24.1767 30.524 23.1127 31.644 21.6007 32.582L21.0127 32.666H20.9287C20.4667 32.666 20.1867 32.358 20.0887 31.742C20.0887 31.42 20.6767 30.888 21.8527 30.146C23.0567 28.956 23.7287 27.64 23.8687 26.198H23.4487C21.3767 26.198 20.3407 26.002 20.3407 25.61L20.2567 25.19C20.4107 24.63 20.7187 24.35 21.1807 24.35ZM33.3187 23.3C33.7667 23.3 34.0467 23.692 34.1587 24.476V27.164C34.1587 28.298 34.1307 29.502 34.0747 30.776C34.1307 31.07 34.1587 31.602 34.1587 32.372C34.0887 33.1 33.8087 33.464 33.3187 33.464H32.8987C32.5067 33.268 32.3107 32.988 32.3107 32.624V31.028C32.3107 30.79 32.2827 30.566 32.2267 30.356C32.2827 30.132 32.3107 29.908 32.3107 29.684V29.18H30.3787C29.7067 29.124 29.3707 28.844 29.3707 28.34V28.256C29.3707 27.64 29.8467 27.332 30.7987 27.332H32.3107V24.224C32.3107 23.678 32.6467 23.37 33.3187 23.3ZM23.5117 33.485H29.1397C32.0517 33.485 33.5077 33.625 33.5077 33.905C33.6757 34.339 33.7597 35.039 33.7597 36.005C33.7597 37.349 33.1717 38.021 31.9957 38.021C30.6237 38.077 28.1037 38.133 24.4357 38.189V39.155H28.2157C29.1957 39.155 30.2037 39.183 31.2397 39.239C31.4917 39.183 32.1077 39.155 33.0877 39.155C33.6197 39.155 33.8997 39.519 33.9277 40.247C33.7597 40.751 33.3957 41.003 32.8357 41.003H23.6797C22.9517 40.877 22.5877 40.597 22.5877 40.163L22.6717 39.575V39.407C22.6717 39.141 22.6437 38.791 22.5877 38.357C22.5877 37.013 23.0637 36.341 24.0157 36.341C24.2397 36.341 24.3517 36.369 24.3517 36.425C24.4077 36.425 24.6317 36.397 25.0237 36.341C28.5797 36.285 30.6797 36.257 31.3237 36.257L31.9117 36.173V35.333C29.3217 35.277 27.3057 35.249 25.8637 35.249H23.7637C23.6377 35.249 23.5257 35.277 23.4277 35.333C23.0497 35.333 22.7417 35.109 22.5037 34.661V34.325C22.5037 33.821 22.8397 33.541 23.5117 33.485ZM42.4769 24.056H42.6449C43.0929 24.056 43.3729 24.364 43.4849 24.98V31.406C43.4849 32.19 43.1209 32.582 42.3929 32.582H39.2009C36.9609 32.582 35.8409 32.218 35.8409 31.49V25.484C35.8409 25.036 36.0369 24.7 36.4289 24.476H36.8489C37.3529 24.546 37.6049 24.798 37.6049 25.232V25.736L37.6889 26.744H41.7209V26.66C41.7209 26.366 41.6929 25.806 41.6369 24.98C41.7489 24.364 42.0289 24.056 42.4769 24.056ZM37.8569 28.592H37.6049L37.6889 30.23V30.734H41.7209L41.6369 29.894V28.592H41.5529C40.8949 28.592 40.3629 28.564 39.9569 28.508C39.3969 28.564 38.6969 28.592 37.8569 28.592ZM47.0759 23.3C47.4259 23.3 47.7059 23.552 47.9159 24.056C47.9719 25.428 47.9999 26.52 47.9999 27.332V27.416H49.8479C50.3939 27.416 50.7019 27.752 50.7719 28.424C50.5759 28.928 50.2959 29.18 49.9319 29.18H47.9159V29.264C47.9159 29.6 47.9439 29.768 47.9999 29.768L47.9159 30.608V32.372C47.9159 32.498 47.9439 32.61 47.9999 32.708C47.8459 33.38 47.5099 33.716 46.9919 33.716C46.4319 33.562 46.1519 33.254 46.1519 32.792V26.324C46.1519 25.764 46.1239 25.092 46.0679 24.308C46.2219 23.636 46.5579 23.3 47.0759 23.3ZM38.2769 34.178C38.9489 34.178 39.2849 35.438 39.2849 37.958V38.882H43.7369C44.7449 38.882 46.1169 38.854 47.8529 38.798C48.4129 38.952 48.6929 39.232 48.6929 39.638V39.806C48.6929 40.184 48.4409 40.464 47.9369 40.646C45.5289 40.702 43.6809 40.73 42.3929 40.73H38.5289C37.8009 40.73 37.4369 40.142 37.4369 38.966C37.4369 37.286 37.4089 35.942 37.3529 34.934C37.5349 34.43 37.8429 34.178 38.2769 34.178ZM59.2374 22.922C62.8774 22.936 64.9774 23.832 65.5374 25.61C65.5934 25.918 65.6214 26.17 65.6214 26.366C65.6214 28.13 63.9694 29.222 60.6654 29.642H60.3294C56.2414 29.642 54.1974 28.578 54.1974 26.45C54.1974 24.812 55.4014 23.692 57.8094 23.09C58.5374 22.978 59.0134 22.922 59.2374 22.922ZM56.0454 26.366V26.45C56.0454 27.346 57.5574 27.794 60.5814 27.794C61.9394 27.794 63.0314 27.346 63.8574 26.45V26.366C63.8574 25.582 62.7374 25.05 60.4974 24.77C60.4414 24.77 60.4134 24.798 60.4134 24.854C59.9934 24.798 59.7134 24.742 59.5734 24.686C57.2214 24.966 56.0454 25.526 56.0454 26.366ZM53.3784 30.503C54.2184 30.559 54.8344 30.587 55.2264 30.587H56.6544C58.9924 30.587 62.1844 30.615 66.2304 30.671C66.7344 30.867 66.9864 31.147 66.9864 31.511V31.679C66.8604 32.239 66.5804 32.519 66.1464 32.519C63.6684 32.463 61.7364 32.435 60.3504 32.435H56.3184C56.2624 32.435 56.2344 32.407 56.2344 32.351C56.1784 32.351 56.1504 32.379 56.1504 32.435L55.7304 32.351H53.2944C52.9304 32.351 52.6504 32.155 52.4544 31.763V31.427C52.4544 31.007 52.7624 30.699 53.3784 30.503ZM55.1214 33.485H60.7494C63.6614 33.485 65.1174 33.625 65.1174 33.905C65.2854 34.339 65.3694 35.039 65.3694 36.005C65.3694 37.349 64.7814 38.021 63.6054 38.021C62.2334 38.077 59.7134 38.133 56.0454 38.189V39.155H59.8254C60.8054 39.155 61.8134 39.183 62.8494 39.239C63.1014 39.183 63.7174 39.155 64.6974 39.155C65.2294 39.155 65.5094 39.519 65.5374 40.247C65.3694 40.751 65.0054 41.003 64.4454 41.003H55.2894C54.5614 40.877 54.1974 40.597 54.1974 40.163L54.2814 39.575V39.407C54.2814 39.141 54.2534 38.791 54.1974 38.357C54.1974 37.013 54.6734 36.341 55.6254 36.341C55.8494 36.341 55.9614 36.369 55.9614 36.425C56.0174 36.425 56.2414 36.397 56.6334 36.341C60.1894 36.285 62.2894 36.257 62.9334 36.257L63.5214 36.173V35.333C60.9314 35.277 58.9154 35.249 57.4734 35.249H55.3734C55.2474 35.249 55.1354 35.277 55.0374 35.333C54.6594 35.333 54.3514 35.109 54.1134 34.661V34.325C54.1134 33.821 54.4494 33.541 55.1214 33.485ZM79.1021 24.119C80.6141 24.119 81.8181 24.91 82.7141 26.492C82.9381 27.206 83.0781 27.794 83.1341 28.256C83.1341 30.076 82.0981 31.455 80.0261 32.393C79.6481 32.449 79.3401 32.477 79.1021 32.477H78.2621C76.5821 32.477 75.3781 31.392 74.6501 29.222L74.5661 28.34C74.5661 26.24 75.6861 24.833 77.9261 24.119H79.1021ZM76.4141 28.34C76.4141 29.6 77.0861 30.363 78.4301 30.629C79.9841 30.629 80.9361 29.929 81.2861 28.529V28.256C81.2861 27.15 80.5581 26.387 79.1021 25.967C77.8701 25.967 77.0021 26.464 76.4981 27.458L76.4141 28.34ZM86.9561 23.216C87.5161 23.44 87.7961 23.748 87.7961 24.14C87.7961 24.308 87.7681 24.392 87.7121 24.392C87.7681 25.316 87.7961 26.016 87.7961 26.492V29.516C87.7961 30.328 87.8241 31.42 87.8801 32.792C87.6841 33.352 87.3481 33.632 86.8721 33.632C86.4381 33.632 86.1581 33.268 86.0321 32.54V31.28H83.0921L82.5881 31.364C82.0281 31.21 81.7481 30.902 81.7481 30.44C81.7481 29.768 82.2521 29.432 83.2601 29.432H86.0321V27.668H82.8401C82.1681 27.612 81.8321 27.332 81.8321 26.828V26.66C81.8321 26.212 82.1401 25.932 82.7561 25.82H85.9481V24.308C85.9481 23.58 86.2841 23.216 86.9561 23.216ZM77.4221 33.485H83.0501C85.9621 33.485 87.4181 33.625 87.4181 33.905C87.5861 34.339 87.6701 35.039 87.6701 36.005C87.6701 37.349 87.0821 38.021 85.9061 38.021C84.5341 38.077 82.0141 38.133 78.3461 38.189V39.155H82.1261C83.1061 39.155 84.1141 39.183 85.1501 39.239C85.4021 39.183 86.0181 39.155 86.9981 39.155C87.5301 39.155 87.8101 39.519 87.8381 40.247C87.6701 40.751 87.3061 41.003 86.7461 41.003H77.5901C76.8621 40.877 76.4981 40.597 76.4981 40.163L76.5821 39.575V39.407C76.5821 39.141 76.5541 38.791 76.4981 38.357C76.4981 37.013 76.9741 36.341 77.9261 36.341C78.1501 36.341 78.2621 36.369 78.2621 36.425C78.3181 36.425 78.5421 36.397 78.9341 36.341C82.4901 36.285 84.5901 36.257 85.2341 36.257L85.8221 36.173V35.333C83.2321 35.277 81.2161 35.249 79.7741 35.249H77.6741C77.5481 35.249 77.4361 35.277 77.3381 35.333C76.9601 35.333 76.6521 35.109 76.4141 34.661V34.325C76.4141 33.821 76.7501 33.541 77.4221 33.485ZM93.864 24.686C95.488 24.686 96.692 25.862 97.476 28.214C97.7 29.362 97.812 30.09 97.812 30.398V31.49C97.812 33.884 96.776 35.508 94.704 36.362C94.214 36.418 93.794 36.446 93.444 36.446C91.82 36.446 90.588 35.13 89.748 32.498C89.636 31.77 89.58 31.238 89.58 30.902C89.58 27.654 90.7 25.61 92.94 24.77C93.066 24.77 93.374 24.742 93.864 24.686ZM91.428 30.986V31.07C91.428 32.778 92.072 33.954 93.36 34.598H93.612C95.236 34.598 96.048 33.366 96.048 30.902C95.698 28.326 95.278 27.038 94.788 27.038C94.564 26.702 94.228 26.534 93.78 26.534H93.528C92.38 26.87 91.708 27.934 91.512 29.726C91.456 29.964 91.428 30.384 91.428 30.986ZM102.117 23.069C102.481 23.069 102.789 23.293 103.041 23.741C103.097 25.771 103.125 27.227 103.125 28.109V39.113C103.125 39.841 102.789 40.205 102.117 40.205C101.557 40.079 101.277 39.715 101.277 39.113V31.385H101.193C98.841 31.385 97.665 31.217 97.665 30.881L97.581 30.461V30.377C97.693 29.761 98.001 29.453 98.505 29.453C99.499 29.509 100.339 29.537 101.025 29.537H101.277V26.345C101.277 25.827 101.249 25.099 101.193 24.161C101.347 23.433 101.655 23.069 102.117 23.069ZM117.062 24.875H117.23C117.72 24.875 118 25.239 118.07 25.967C118.126 28.907 118.154 31.147 118.154 32.687C117.902 33.359 117.454 33.695 116.81 33.695H115.298C113.912 33.695 112.54 33.723 111.182 33.779C110.608 33.723 109.6 33.695 108.158 33.695C107.374 33.695 106.982 32.995 106.982 31.595C106.926 31.021 106.898 30.573 106.898 30.251C106.954 28.725 106.982 27.269 106.982 25.883C107.08 25.267 107.36 24.959 107.822 24.959H107.99C108.55 24.959 108.83 25.379 108.83 26.219C108.83 26.317 108.802 26.821 108.746 27.731L109.754 27.815H110.594C111.392 27.815 111.98 27.843 112.358 27.899C112.848 27.843 113.464 27.815 114.206 27.815H116.222V25.883C116.278 25.211 116.558 24.875 117.062 24.875ZM108.746 29.579V31.427L108.83 31.847C110.034 31.903 110.93 31.931 111.518 31.931H114.038C114.514 31.931 115.27 31.903 116.306 31.847V29.663H110.594C110.202 29.663 109.586 29.635 108.746 29.579ZM112.442 33.17C113.002 33.31 113.282 33.618 113.282 34.094L113.303 37.139H117.083C117.405 37.139 117.853 37.167 118.427 37.223C118.525 37.167 118.665 37.139 118.847 37.139C119.407 37.293 119.687 37.573 119.687 37.979V38.147C119.561 38.707 119.281 38.987 118.847 38.987C112.267 38.931 107.983 38.903 105.995 38.903C105.211 38.903 104.819 38.623 104.819 38.063V37.895C104.819 37.447 105.127 37.167 105.743 37.055H111.455C111.455 36.943 111.462 36.411 111.476 35.459C111.448 34.717 111.434 34.262 111.434 34.094C111.434 33.632 111.77 33.324 112.442 33.17ZM125.991 24.749H126.159C126.719 24.749 126.999 25.281 126.999 26.345C126.999 28.585 127.727 30.937 129.183 33.401C130.079 34.255 130.527 34.815 130.527 35.081V35.249C130.527 35.711 130.219 35.991 129.603 36.089C128.693 35.879 127.685 34.675 126.579 32.477C126.243 31.665 126.075 31.217 126.075 31.133H125.991C124.479 34.605 123.247 36.341 122.295 36.341H122.127C121.623 36.271 121.371 36.019 121.371 35.585V35.417C121.371 35.179 121.819 34.563 122.715 33.569C124.395 31.063 125.235 28.291 125.235 25.253C125.459 24.917 125.711 24.749 125.991 24.749ZM136.092 22.922H136.176C136.526 22.922 136.806 23.146 137.016 23.594C137.016 25.162 137.044 26.814 137.1 28.55C137.044 32.162 137.016 35.606 137.016 38.882C136.918 39.498 136.638 39.806 136.176 39.806H136.008C135.448 39.806 135.168 39.302 135.168 38.294V37.286C135.168 36.684 135.196 36.208 135.252 35.858C135.196 35.382 135.168 34.99 135.168 34.682C135.168 33.1 135.224 31.448 135.336 29.726C135.28 28.69 135.252 27.57 135.252 26.366V23.93C135.308 23.258 135.588 22.922 136.092 22.922ZM133.068 23.258C133.628 23.496 133.908 23.832 133.908 24.266C133.908 24.602 133.88 25.106 133.824 25.778C133.824 26.87 133.852 28.382 133.908 30.314C133.852 33.016 133.824 35.676 133.824 38.294C133.698 38.854 133.418 39.134 132.984 39.134H132.816C132.368 39.134 132.088 38.826 131.976 38.21C132.032 34.43 132.06 32.05 132.06 31.07H131.976C131.402 31.126 130.954 31.154 130.632 31.154H130.212C129.652 31.07 129.372 30.818 129.372 30.398V30.146C129.372 29.53 130.268 29.222 132.06 29.222C132.06 29.012 132.032 28.312 131.976 27.122C132.032 25.33 132.06 24.294 132.06 24.014C132.228 23.51 132.564 23.258 133.068 23.258ZM146.408 24.875C148.452 24.875 150.244 25.575 151.784 26.975C152.344 27.843 152.624 28.935 152.624 30.251C152.624 31.889 151.42 33.233 149.012 34.283C148.032 34.451 147.276 34.535 146.744 34.535H146.24C144.336 34.535 142.74 33.835 141.452 32.435C140.836 31.581 140.528 30.657 140.528 29.663C140.528 28.207 141.256 26.947 142.712 25.883C144.056 25.253 145.288 24.917 146.408 24.875ZM142.376 29.579V29.747C142.376 31.301 143.496 32.281 145.736 32.687H146.828C148.718 32.687 150.006 32.015 150.692 30.671C150.748 30.573 150.776 30.461 150.776 30.335V30.167C150.776 28.669 150.328 27.773 149.432 27.479C148.48 26.975 147.388 26.723 146.156 26.723C144.952 26.723 143.86 27.199 142.88 28.151C142.544 28.795 142.376 29.271 142.376 29.579ZM149.117 33.149C149.733 33.149 150.041 33.625 150.041 34.577V34.745C150.041 35.403 150.069 36.159 150.125 37.013H150.209C150.671 37.013 151.679 37.041 153.233 37.097C153.555 37.209 153.779 37.405 153.905 37.685V38.021C153.793 38.581 153.513 38.861 153.065 38.861H139.625C139.065 38.749 138.785 38.469 138.785 38.021V37.937C138.785 37.321 139.261 37.013 140.213 37.013H142.565L142.649 36.173V34.157C142.747 33.541 143.055 33.233 143.573 33.233C144.091 33.233 144.399 33.625 144.497 34.409V35.585C144.497 35.879 144.469 36.355 144.413 37.013H148.277C148.221 35.165 148.193 34.129 148.193 33.905C148.375 33.401 148.683 33.149 149.117 33.149ZM4.19783 57.14C5.89183 57.14 7.03983 58.064 7.64183 59.912C7.75383 60.164 7.80983 60.528 7.80983 61.004V61.928C7.80983 63.748 6.32583 66.1 3.35783 68.984V69.068C4.19783 69.012 4.81383 68.984 5.20583 68.984H5.96183C6.22783 68.984 6.50783 69.012 6.80183 69.068C7.01183 69.012 7.26383 68.984 7.55783 68.984H7.64183C8.36983 69.054 8.73383 69.334 8.73383 69.824V69.992C8.73383 70.496 8.39783 70.776 7.72583 70.832H5.96183C4.95383 70.832 3.24583 70.888 0.837833 71C0.277833 70.874 -0.00216755 70.594 -0.00216755 70.16V69.992C-0.00216755 69.684 0.893833 68.732 2.68583 67.136C4.92583 64.798 6.04583 62.922 6.04583 61.508C6.04583 59.828 5.37383 58.988 4.02983 58.988H3.86183C3.10583 58.988 2.29383 59.38 1.42583 60.164H1.08983C0.627832 60.164 0.347832 59.856 0.249832 59.24C0.249832 58.274 1.45383 57.574 3.86183 57.14H4.19783ZM14.8027 55.901C16.7627 56.209 17.7427 56.573 17.7427 56.993C18.5267 57.819 18.9187 58.659 18.9187 59.513C18.5267 61.025 18.1067 61.781 17.6587 61.781C17.0427 62.397 16.0907 62.705 14.8027 62.705C12.5627 62.299 11.4427 61.823 11.4427 61.277C11.1907 61.277 10.9667 60.689 10.7707 59.513C10.7707 58.015 11.6667 56.895 13.4587 56.153C13.9207 56.041 14.3687 55.957 14.8027 55.901ZM12.6187 59.597C12.6187 60.227 13.2907 60.647 14.6347 60.857H15.0547C16.3987 60.857 17.0707 60.353 17.0707 59.345C16.7347 58.337 16.1747 57.833 15.3907 57.833L14.8027 57.749C13.3467 57.945 12.6187 58.561 12.6187 59.597ZM22.6777 56.111C23.1957 56.111 23.5037 56.503 23.6017 57.287V58.547C23.6017 58.911 23.5457 60.927 23.4337 64.595V66.191C23.4337 66.919 23.1257 67.283 22.5097 67.283C22.0197 67.283 21.6837 66.947 21.5017 66.275C19.2617 66.275 18.1417 66.107 18.1417 65.771C18.0297 65.547 17.9737 65.351 17.9737 65.183C18.1557 64.679 18.4357 64.427 18.8137 64.427H21.6697V63.671C21.6837 61.193 21.7397 59.765 21.8377 59.387L21.7537 58.883V57.035C21.8657 56.419 22.1737 56.111 22.6777 56.111ZM19.8217 62.327C20.3817 62.453 20.6617 62.733 20.6617 63.167V63.251C20.6617 63.923 19.9057 64.259 18.3937 64.259C18.3937 64.329 17.6377 64.413 16.1257 64.511V66.275C16.1257 67.059 15.8457 67.451 15.2857 67.451H15.0337C14.6137 67.451 14.3617 67.171 14.2777 66.611V64.679L10.9177 64.847C10.3577 64.623 10.0777 64.315 10.0777 63.923C10.0777 63.307 10.6657 62.999 11.8417 62.999C15.0617 62.775 17.7217 62.551 19.8217 62.327ZM12.2617 66.485H17.8897C20.8017 66.485 22.2577 66.625 22.2577 66.905C22.4257 67.339 22.5097 68.039 22.5097 69.005C22.5097 70.349 21.9217 71.021 20.7457 71.021C19.3737 71.077 16.8537 71.133 13.1857 71.189V72.155H16.9657C17.9457 72.155 18.9537 72.183 19.9897 72.239C20.2417 72.183 20.8577 72.155 21.8377 72.155C22.3697 72.155 22.6497 72.519 22.6777 73.247C22.5097 73.751 22.1457 74.003 21.5857 74.003H12.4297C11.7017 73.877 11.3377 73.597 11.3377 73.163L11.4217 72.575V72.407C11.4217 72.141 11.3937 71.791 11.3377 71.357C11.3377 70.013 11.8137 69.341 12.7657 69.341C12.9897 69.341 13.1017 69.369 13.1017 69.425C13.1577 69.425 13.3817 69.397 13.7737 69.341C17.3297 69.285 19.4297 69.257 20.0737 69.257L20.6617 69.173V68.333C18.0717 68.277 16.0557 68.249 14.6137 68.249H12.5137C12.3877 68.249 12.2757 68.277 12.1777 68.333C11.7997 68.333 11.4917 68.109 11.2537 67.661V67.325C11.2537 66.821 11.5897 66.541 12.2617 66.485ZM35.4685 57.392C36.0845 57.49 36.3925 57.77 36.3925 58.232V60.92C36.3925 61.732 36.3645 62.292 36.3085 62.6C36.3645 63.188 36.3925 63.832 36.3925 64.532V69.152L36.8125 69.068C38.2685 69.068 38.9965 69.404 38.9965 70.076V70.244C38.6885 70.748 38.4085 71 38.1565 71L37.6525 70.916C36.0285 70.972 34.6845 71 33.6205 71H32.8645C32.1365 71 31.7725 70.692 31.7725 70.076C31.8705 69.46 32.1785 69.152 32.6965 69.152H34.5445V59.492C33.6905 59.828 33.1585 59.996 32.9485 59.996C32.3325 59.884 32.0245 59.576 32.0245 59.072C32.0245 58.386 33.1725 57.826 35.4685 57.392ZM46.0944 57.392H46.5144C47.2984 57.504 47.6904 57.896 47.6904 58.568C47.6904 58.68 47.6624 58.736 47.6064 58.736L47.6904 59.744V65.456C47.7044 65.568 47.7604 65.624 47.8584 65.624H48.8664C49.3144 65.624 49.5944 65.932 49.7064 66.548C49.5664 67.108 49.2584 67.388 48.7824 67.388H47.6904V70.244C47.6204 70.748 47.3684 71 46.9344 71H46.5144C46.1224 70.804 45.9264 70.524 45.9264 70.16V67.388H45.8424C44.8204 67.388 43.1964 67.36 40.9704 67.304C40.4664 67.122 40.2144 66.814 40.2144 66.38C40.2144 65.862 41.6984 63.398 44.6664 58.988C45.2124 57.924 45.6884 57.392 46.0944 57.392ZM45.7584 60.5L42.6504 65.54H45.8424V65.204C45.8424 64.966 45.8704 64.742 45.9264 64.532L45.8424 64.112C45.8424 63.832 45.8704 63.496 45.9264 63.104C45.8704 62.362 45.8424 61.578 45.8424 60.752V60.5H45.7584ZM55.1663 57.119C56.6783 57.119 57.8823 57.91 58.7783 59.492C59.0023 60.206 59.1423 60.794 59.1983 61.256C59.1983 63.076 58.1623 64.455 56.0903 65.393C55.7123 65.449 55.4043 65.477 55.1663 65.477H54.3263C52.6463 65.477 51.4423 64.392 50.7143 62.222L50.6303 61.34C50.6303 59.24 51.7503 57.833 53.9903 57.119H55.1663ZM52.4783 61.34C52.4783 62.6 53.1503 63.363 54.4943 63.629C56.0483 63.629 57.0003 62.929 57.3503 61.529V61.256C57.3503 60.15 56.6223 59.387 55.1663 58.967C53.9343 58.967 53.0663 59.464 52.5623 60.458L52.4783 61.34ZM62.7473 56.321H62.9153C63.4053 56.321 63.6853 56.685 63.7553 57.413V59.765C63.7553 61.165 63.7833 63.153 63.8393 65.729C63.7413 65.981 63.5453 66.205 63.2513 66.401H62.6633C62.1593 66.401 61.9073 65.113 61.9073 62.537V61.025L61.9913 60.521C61.9353 60.157 61.9073 59.793 61.9073 59.429V57.329C61.9633 56.657 62.2433 56.321 62.7473 56.321ZM53.4863 66.485H59.1143C62.0263 66.485 63.4823 66.625 63.4823 66.905C63.6503 67.339 63.7343 68.039 63.7343 69.005C63.7343 70.349 63.1463 71.021 61.9703 71.021C60.5983 71.077 58.0783 71.133 54.4103 71.189V72.155H58.1903C59.1703 72.155 60.1783 72.183 61.2143 72.239C61.4663 72.183 62.0823 72.155 63.0623 72.155C63.5943 72.155 63.8743 72.519 63.9023 73.247C63.7343 73.751 63.3703 74.003 62.8103 74.003H53.6543C52.9263 73.877 52.5623 73.597 52.5623 73.163L52.6463 72.575V72.407C52.6463 72.141 52.6183 71.791 52.5623 71.357C52.5623 70.013 53.0383 69.341 53.9903 69.341C54.2143 69.341 54.3263 69.369 54.3263 69.425C54.3823 69.425 54.6063 69.397 54.9983 69.341C58.5543 69.285 60.6543 69.257 61.2983 69.257L61.8863 69.173V68.333C59.2963 68.277 57.2803 68.249 55.8383 68.249H53.7383C53.6123 68.249 53.5003 68.277 53.4023 68.333C53.0243 68.333 52.7163 68.109 52.4783 67.661V67.325C52.4783 66.821 52.8143 66.541 53.4863 66.485ZM74.389 55.796H82.201C83.769 55.796 84.553 56.076 84.553 56.636V56.804C84.413 57.364 84.105 57.644 83.629 57.644H75.229V57.728L75.313 58.316H83.545C84.161 58.428 84.469 58.708 84.469 59.156V59.324C84.469 59.786 84.133 60.066 83.461 60.164C82.789 60.164 81.193 60.136 78.673 60.08C77.021 60.136 75.901 60.164 75.313 60.164V60.92H78.757C79.401 60.92 79.989 60.948 80.521 61.004C80.815 60.948 81.347 60.92 82.117 60.92H83.629C84.189 60.99 84.469 61.242 84.469 61.676V61.928C84.469 62.488 83.853 62.768 82.621 62.768H76.573C76.125 62.768 75.537 62.74 74.809 62.684C74.711 62.74 74.571 62.768 74.389 62.768C73.773 62.586 73.465 62.166 73.465 61.508V56.72C73.563 56.104 73.871 55.796 74.389 55.796ZM72.415 63.503C73.255 63.559 73.871 63.587 74.263 63.587H75.691C78.029 63.587 81.221 63.615 85.267 63.671C85.771 63.867 86.023 64.147 86.023 64.511V64.679C85.897 65.239 85.617 65.519 85.183 65.519C82.705 65.463 80.773 65.435 79.387 65.435H75.355C75.299 65.435 75.271 65.407 75.271 65.351C75.215 65.351 75.187 65.379 75.187 65.435L74.767 65.351H72.331C71.967 65.351 71.687 65.155 71.491 64.763V64.427C71.491 64.007 71.799 63.699 72.415 63.503ZM74.053 67.094H83.293C83.867 67.094 84.203 67.514 84.301 68.354V70.958C84.301 73.254 84.077 74.402 83.629 74.402C83.629 74.514 83.461 74.57 83.125 74.57C82.691 74.57 82.411 74.262 82.285 73.646C82.397 72.904 82.453 72.176 82.453 71.462V68.942H82.369C80.969 68.942 78.113 68.914 73.801 68.858C73.353 68.662 73.129 68.354 73.129 67.934C73.283 67.374 73.591 67.094 74.053 67.094ZM94.3509 57.056H94.5189C94.9669 57.056 95.2469 57.364 95.3589 57.98V64.406C95.3589 65.19 94.9949 65.582 94.2669 65.582H91.0749C88.8349 65.582 87.7149 65.218 87.7149 64.49V58.484C87.7149 58.036 87.9109 57.7 88.3029 57.476H88.7229C89.2269 57.546 89.4789 57.798 89.4789 58.232V58.736L89.5629 59.744H93.5949V59.66C93.5949 59.366 93.5669 58.806 93.5109 57.98C93.6229 57.364 93.9029 57.056 94.3509 57.056ZM89.7309 61.592H89.4789L89.5629 63.23V63.734H93.5949L93.5109 62.894V61.592H93.4269C92.7689 61.592 92.2369 61.564 91.8309 61.508C91.2709 61.564 90.5709 61.592 89.7309 61.592ZM99.5799 56.216C100.14 56.44 100.42 56.748 100.42 57.14C100.42 57.308 100.392 57.392 100.336 57.392C100.392 58.316 100.42 59.016 100.42 59.492V62.516C100.42 63.328 100.448 64.42 100.504 65.792C100.308 66.352 99.9719 66.632 99.4959 66.632C99.0619 66.632 98.7819 66.268 98.6559 65.54V64.28H95.7159L95.2119 64.364C94.6519 64.21 94.3719 63.902 94.3719 63.44C94.3719 62.768 94.8759 62.432 95.8839 62.432H98.6559V60.668H95.4639C94.7919 60.612 94.4559 60.332 94.4559 59.828V59.66C94.4559 59.212 94.7639 58.932 95.3799 58.82H98.5719V57.308C98.5719 56.58 98.9079 56.216 99.5799 56.216ZM90.0459 66.485H95.6739C98.5859 66.485 100.042 66.625 100.042 66.905C100.21 67.339 100.294 68.039 100.294 69.005C100.294 70.349 99.7059 71.021 98.5299 71.021C97.1579 71.077 94.6379 71.133 90.9699 71.189V72.155H94.7499C95.7299 72.155 96.7379 72.183 97.7739 72.239C98.0259 72.183 98.6419 72.155 99.6219 72.155C100.154 72.155 100.434 72.519 100.462 73.247C100.294 73.751 99.9299 74.003 99.3699 74.003H90.2139C89.4859 73.877 89.1219 73.597 89.1219 73.163L89.2059 72.575V72.407C89.2059 72.141 89.1779 71.791 89.1219 71.357C89.1219 70.013 89.5979 69.341 90.5499 69.341C90.7739 69.341 90.8859 69.369 90.8859 69.425C90.9419 69.425 91.1659 69.397 91.5579 69.341C95.1139 69.285 97.2139 69.257 97.8579 69.257L98.4459 69.173V68.333C95.8559 68.277 93.8399 68.249 92.3979 68.249H90.2979C90.1719 68.249 90.0599 68.277 89.9619 68.333C89.5839 68.333 89.2759 68.109 89.0379 67.661V67.325C89.0379 66.821 89.3739 66.541 90.0459 66.485ZM107.152 55.229H107.236C107.852 55.229 108.16 55.677 108.16 56.573V57.413C108.818 57.469 109.294 57.497 109.588 57.497H110.68C111.688 57.497 112.192 57.833 112.192 58.505C112.192 58.855 111.94 59.135 111.436 59.345C109.756 59.289 108.776 59.261 108.496 59.261C107.558 59.261 105.71 59.317 102.952 59.429C102.448 59.247 102.196 58.939 102.196 58.505C102.196 57.833 103.204 57.497 105.22 57.497H106.312V56.069C106.424 55.509 106.704 55.229 107.152 55.229ZM106.984 59.513C109.028 59.513 110.428 60.409 111.184 62.201L111.268 62.705V63.293C111.268 64.441 110.456 65.309 108.832 65.897C108.272 66.009 107.768 66.065 107.32 66.065H106.732C105.052 66.065 103.96 65.113 103.456 63.209C103.456 63.083 103.428 62.971 103.372 62.873C103.372 61.193 104.576 60.073 106.984 59.513ZM105.22 62.873C105.22 63.657 105.864 64.133 107.152 64.301C108.72 64.189 109.504 63.741 109.504 62.957C109.238 61.977 108.482 61.445 107.236 61.361H106.984C105.808 61.725 105.22 62.229 105.22 62.873ZM115.069 56.3C115.419 56.3 115.699 56.552 115.909 57.056C115.965 58.428 115.993 59.52 115.993 60.332V60.416H117.841C118.387 60.416 118.695 60.752 118.765 61.424C118.569 61.928 118.289 62.18 117.925 62.18H115.909V62.264C115.909 62.6 115.937 62.768 115.993 62.768L115.909 63.608V65.372C115.909 65.498 115.937 65.61 115.993 65.708C115.839 66.38 115.503 66.716 114.985 66.716C114.425 66.562 114.145 66.254 114.145 65.792V59.324C114.145 58.764 114.117 58.092 114.061 57.308C114.215 56.636 114.551 56.3 115.069 56.3ZM106.27 67.178C106.942 67.178 107.278 68.438 107.278 70.958V71.882H111.73C112.738 71.882 114.11 71.854 115.846 71.798C116.406 71.952 116.686 72.232 116.686 72.638V72.806C116.686 73.184 116.434 73.464 115.93 73.646C113.522 73.702 111.674 73.73 110.386 73.73H106.522C105.794 73.73 105.43 73.142 105.43 71.966C105.43 70.286 105.402 68.942 105.346 67.934C105.528 67.43 105.836 67.178 106.27 67.178ZM128.522 57.686H129.278C130.09 57.686 131.014 57.714 132.05 57.77C132.274 57.714 132.498 57.686 132.722 57.686C133.45 57.686 133.814 58.498 133.814 60.122V60.626C133.814 63.566 133.646 65.036 133.31 65.036C133.072 65.148 132.456 65.232 131.462 65.288C130.426 65.232 129.558 65.204 128.858 65.204C128.774 65.204 128.382 65.232 127.682 65.288C126.786 65.148 126.338 64.756 126.338 64.112V58.694C126.338 58.022 127.066 57.686 128.522 57.686ZM128.186 59.534V63.44H131.966V62.516C131.966 62.222 131.994 61.76 132.05 61.13C131.994 60.836 131.966 60.556 131.966 60.29V59.534C131.91 59.534 131.882 59.562 131.882 59.618C131.322 59.562 130.902 59.534 130.622 59.534H128.186ZM137.426 56.3C137.776 56.3 138.056 56.552 138.266 57.056C138.322 58.428 138.35 59.52 138.35 60.332V60.416H140.198C140.744 60.416 141.052 60.752 141.122 61.424C140.926 61.928 140.646 62.18 140.282 62.18H138.266V62.264C138.266 62.6 138.294 62.768 138.35 62.768L138.266 63.608V65.372C138.266 65.498 138.294 65.61 138.35 65.708C138.196 66.38 137.86 66.716 137.342 66.716C136.782 66.562 136.502 66.254 136.502 65.792V59.324C136.502 58.764 136.474 58.092 136.418 57.308C136.572 56.636 136.908 56.3 137.426 56.3ZM128.627 67.178C129.299 67.178 129.635 68.438 129.635 70.958V71.882H134.087C135.095 71.882 136.467 71.854 138.203 71.798C138.763 71.952 139.043 72.232 139.043 72.638V72.806C139.043 73.184 138.791 73.464 138.287 73.646C135.879 73.702 134.031 73.73 132.743 73.73H128.879C128.151 73.73 127.787 73.142 127.787 71.966C127.787 70.286 127.759 68.942 127.703 67.934C127.885 67.43 128.193 67.178 128.627 67.178ZM143.731 57.539C144.249 57.539 144.557 57.903 144.655 58.631V63.755C148.715 63.643 150.871 63.531 151.123 63.419C151.585 63.419 151.865 63.727 151.963 64.343C151.963 65.071 150.871 65.435 148.687 65.435C147.777 65.491 146.293 65.547 144.235 65.603C143.339 65.519 142.891 65.127 142.891 64.427V63.671C142.891 62.285 142.863 60.493 142.807 58.295C142.989 57.791 143.297 57.539 143.731 57.539ZM153.727 56.3C154.077 56.3 154.357 56.552 154.567 57.056C154.623 58.428 154.651 59.52 154.651 60.332V60.416H156.499C157.045 60.416 157.353 60.752 157.423 61.424C157.227 61.928 156.947 62.18 156.583 62.18H154.567V62.264C154.567 62.6 154.595 62.768 154.651 62.768L154.567 63.608V65.372C154.567 65.498 154.595 65.61 154.651 65.708C154.497 66.38 154.161 66.716 153.643 66.716C153.083 66.562 152.803 66.254 152.803 65.792V59.324C152.803 58.764 152.775 58.092 152.719 57.308C152.873 56.636 153.209 56.3 153.727 56.3ZM145.117 67.094H146.209C148.043 67.094 150.591 67.122 153.853 67.178C154.525 67.178 154.861 68.508 154.861 71.168C154.917 71.168 154.945 71.476 154.945 72.092C154.945 73.436 154.581 74.108 153.853 74.108H152.173C150.801 74.108 149.625 74.136 148.645 74.192C148.071 74.136 147.063 74.108 145.621 74.108C144.557 74.108 144.025 73.772 144.025 73.1V72.344C144.025 72.05 143.997 71.798 143.941 71.588C143.997 71.294 144.025 70.664 144.025 69.698V68.186C144.207 67.458 144.571 67.094 145.117 67.094ZM145.873 68.942C145.817 70.566 145.789 71.616 145.789 72.092L145.873 72.26C146.265 72.26 147.021 72.288 148.141 72.344C150.675 72.288 152.327 72.26 153.097 72.26V72.176C153.097 71.462 153.041 70.412 152.929 69.026C152.397 69.026 150.633 68.97 147.637 68.858C146.797 68.914 146.209 68.942 145.873 68.942ZM165.896 55.922C169.536 55.936 171.636 56.832 172.196 58.61C172.252 58.918 172.28 59.17 172.28 59.366C172.28 61.13 170.628 62.222 167.324 62.642H166.988C162.9 62.642 160.856 61.578 160.856 59.45C160.856 57.812 162.06 56.692 164.468 56.09C165.196 55.978 165.672 55.922 165.896 55.922ZM162.704 59.366V59.45C162.704 60.346 164.216 60.794 167.24 60.794C168.598 60.794 169.69 60.346 170.516 59.45V59.366C170.516 58.582 169.396 58.05 167.156 57.77C167.1 57.77 167.072 57.798 167.072 57.854C166.652 57.798 166.372 57.742 166.232 57.686C163.88 57.966 162.704 58.526 162.704 59.366ZM160.037 63.503C160.877 63.559 161.493 63.587 161.885 63.587H163.313C165.651 63.587 168.843 63.615 172.889 63.671C173.393 63.867 173.645 64.147 173.645 64.511V64.679C173.519 65.239 173.239 65.519 172.805 65.519C170.327 65.463 168.395 65.435 167.009 65.435H162.977C162.921 65.435 162.893 65.407 162.893 65.351C162.837 65.351 162.809 65.379 162.809 65.435L162.389 65.351H159.953C159.589 65.351 159.309 65.155 159.113 64.763V64.427C159.113 64.007 159.421 63.699 160.037 63.503ZM161.78 66.485H167.408C170.32 66.485 171.776 66.625 171.776 66.905C171.944 67.339 172.028 68.039 172.028 69.005C172.028 70.349 171.44 71.021 170.264 71.021C168.892 71.077 166.372 71.133 162.704 71.189V72.155H166.484C167.464 72.155 168.472 72.183 169.508 72.239C169.76 72.183 170.376 72.155 171.356 72.155C171.888 72.155 172.168 72.519 172.196 73.247C172.028 73.751 171.664 74.003 171.104 74.003H161.948C161.22 73.877 160.856 73.597 160.856 73.163L160.94 72.575V72.407C160.94 72.141 160.912 71.791 160.856 71.357C160.856 70.013 161.332 69.341 162.284 69.341C162.508 69.341 162.62 69.369 162.62 69.425C162.676 69.425 162.9 69.397 163.292 69.341C166.848 69.285 168.948 69.257 169.592 69.257L170.18 69.173V68.333C167.59 68.277 165.574 68.249 164.132 68.249H162.032C161.906 68.249 161.794 68.277 161.696 68.333C161.318 68.333 161.01 68.109 160.772 67.661V67.325C160.772 66.821 161.108 66.541 161.78 66.485ZM32.2615 79.014C33.0455 79.014 33.4375 79.49 33.4375 80.442C33.4375 81.618 34.2775 83.102 35.9575 84.894C36.8815 85.636 37.3435 86.196 37.3435 86.574V86.742C37.2735 87.302 36.9935 87.582 36.5035 87.582H36.4195C34.8095 86.686 33.4795 85.202 32.4295 83.13H32.2615C31.1975 85.426 29.9375 86.924 28.4815 87.624H28.1455C27.7255 87.624 27.4735 87.344 27.3895 86.784C27.3895 86.406 27.9215 85.776 28.9855 84.894C30.1335 83.746 31.0015 81.898 31.5895 79.35C31.7715 79.21 31.9955 79.098 32.2615 79.014ZM40.5355 78.3C40.9835 78.3 41.2635 78.692 41.3755 79.476V82.164C41.3755 83.298 41.3475 84.502 41.2915 85.776C41.3475 86.07 41.3755 86.602 41.3755 87.372C41.3055 88.1 41.0255 88.464 40.5355 88.464H40.1155C39.7235 88.268 39.5275 87.988 39.5275 87.624V86.028C39.5275 85.79 39.4995 85.566 39.4435 85.356C39.4995 85.132 39.5275 84.908 39.5275 84.684V84.18H37.5955C36.9235 84.124 36.5875 83.844 36.5875 83.34V83.256C36.5875 82.64 37.0635 82.332 38.0155 82.332H39.5275V79.224C39.5275 78.678 39.8635 78.37 40.5355 78.3ZM30.8545 89.178C31.5265 89.178 31.8625 90.438 31.8625 92.958V93.882H36.3145C37.3225 93.882 38.6945 93.854 40.4305 93.798C40.9905 93.952 41.2705 94.232 41.2705 94.638V94.806C41.2705 95.184 41.0185 95.464 40.5145 95.646C38.1065 95.702 36.2585 95.73 34.9705 95.73H31.1065C30.3785 95.73 30.0145 95.142 30.0145 93.966C30.0145 92.286 29.9865 90.942 29.9305 89.934C30.1125 89.43 30.4205 89.178 30.8545 89.178ZM47.6796 79.749H47.8476C48.4076 79.749 48.6876 80.281 48.6876 81.345C48.6876 83.585 49.4156 85.937 50.8716 88.401C51.7676 89.255 52.2156 89.815 52.2156 90.081V90.249C52.2156 90.711 51.9076 90.991 51.2916 91.089C50.3816 90.879 49.3736 89.675 48.2676 87.477C47.9316 86.665 47.7636 86.217 47.7636 86.133H47.6796C46.1676 89.605 44.9356 91.341 43.9836 91.341H43.8156C43.3116 91.271 43.0596 91.019 43.0596 90.585V90.417C43.0596 90.179 43.5076 89.563 44.4036 88.569C46.0836 86.063 46.9236 83.291 46.9236 80.253C47.1476 79.917 47.3996 79.749 47.6796 79.749ZM55.0086 78.048C55.4006 78.048 55.6806 78.3 55.8486 78.804C55.8486 79.112 55.8206 79.42 55.7646 79.728C55.8206 81.17 55.8486 82.402 55.8486 83.424V84.516H58.2006C58.5926 84.712 58.7886 84.992 58.7886 85.356C58.7886 86.028 58.3126 86.364 57.3606 86.364H55.8486V91.152C55.8486 91.88 55.8766 92.832 55.9326 94.008C55.7786 94.568 55.4986 94.848 55.0926 94.848H54.9246C54.3646 94.736 54.0846 94.456 54.0846 94.008C54.0846 93.154 54.0566 92.174 54.0006 91.068C54.0006 90.424 54.0286 89.164 54.0846 87.288C54.0286 84.124 54.0006 81.38 54.0006 79.056C54.1406 78.384 54.4766 78.048 55.0086 78.048ZM65.5129 78.741C66.1289 78.741 66.4369 79.105 66.4369 79.833V81.009L66.5209 81.177L67.5289 81.093H69.0409C70.0489 81.093 70.5529 81.429 70.5529 82.101C70.4129 82.661 70.1049 82.941 69.6289 82.941H63.1609C62.7129 82.941 62.1249 82.969 61.3969 83.025C60.9209 83.025 60.6129 82.689 60.4729 82.017C60.4729 81.527 60.8369 81.247 61.5649 81.177H64.4209C64.5329 81.177 64.5889 81.121 64.5889 81.009V79.833C64.5889 79.105 64.8969 78.741 65.5129 78.741ZM65.4289 83.865C67.2629 83.865 68.5789 84.817 69.3769 86.721C69.4329 86.931 69.4609 87.155 69.4609 87.393V87.645C69.4609 89.647 68.3129 90.963 66.0169 91.593L65.5129 91.677C63.6649 91.677 62.3489 90.753 61.5649 88.905L61.4809 88.317V88.149C61.4809 86.147 62.2369 84.831 63.7489 84.201C64.3929 83.977 64.9529 83.865 65.4289 83.865ZM63.3289 87.897V88.233C63.3289 88.947 63.8889 89.451 65.0089 89.745L65.5969 89.829C66.2969 89.829 66.9409 89.353 67.5289 88.401L67.6129 87.561V87.393C67.3189 86.273 66.4509 85.713 65.0089 85.713C63.8889 85.923 63.3289 86.651 63.3289 87.897ZM75.3199 78.195C75.7679 78.405 75.9919 78.685 75.9919 79.035C75.9919 80.323 76.0199 82.563 76.0759 85.755C76.0759 85.979 76.0479 86.483 75.9919 87.267C76.1039 89.101 76.1599 91.369 76.1599 94.071C76.1599 94.505 75.8519 94.813 75.2359 94.995C74.7179 94.995 74.4099 94.603 74.3119 93.819V93.399C74.3119 91.775 74.2839 89.535 74.2279 86.679H72.4639V91.215C72.4639 91.733 72.4919 92.461 72.5479 93.399C72.3239 93.959 72.0159 94.239 71.6239 94.239C71.0079 94.239 70.6999 93.651 70.6999 92.475C70.6439 91.873 70.6159 90.921 70.6159 89.619C70.6159 89.003 70.6439 88.611 70.6999 88.443C70.6439 87.687 70.6159 87.043 70.6159 86.511V79.539C70.6159 78.811 70.9239 78.447 71.5399 78.447C72.1559 78.545 72.4639 78.853 72.4639 79.371V84.831H72.5479C72.7019 84.831 73.2619 84.859 74.2279 84.915V84.579C74.2279 83.417 74.1999 81.653 74.1439 79.287C74.1439 78.587 74.5359 78.223 75.3199 78.195ZM90.1512 80.106C90.7672 80.106 91.0752 80.358 91.0752 80.862V81.282C90.8792 81.674 90.5992 81.87 90.2352 81.87C89.7032 81.87 89.1712 81.898 88.6392 81.954C88.4432 81.954 88.1912 81.926 87.8832 81.87C86.5952 81.926 85.4192 81.954 84.3552 81.954H81.5832V82.878C81.5832 83.732 81.6112 85.048 81.6672 86.826C84.2572 86.882 86.2732 86.91 87.7152 86.91H90.5712C91.0752 86.91 91.3552 87.246 91.4112 87.918C91.4112 88.408 90.9352 88.688 89.9832 88.758H89.7312C83.4032 88.758 80.2392 88.646 80.2392 88.422C80.0012 88.184 79.8612 87.764 79.8192 87.162C79.7632 84.166 79.7352 82.374 79.7352 81.786C79.7352 80.666 80.1832 80.106 81.0792 80.106H90.1512ZM79.5252 92.16H81.2052C83.7532 92.16 87.0012 92.188 90.9492 92.244C91.3412 92.188 91.6772 92.16 91.9572 92.16C92.5172 92.328 92.7972 92.636 92.7972 93.084C92.6992 93.7 92.3912 94.008 91.8732 94.008H78.8532C78.1812 93.952 77.8452 93.644 77.8452 93.084C77.8452 92.468 78.4052 92.16 79.5252 92.16ZM100.527 79.245C101.367 79.399 101.787 79.791 101.787 80.421C101.787 82.885 101.535 84.117 101.031 84.117C101.031 84.243 100.807 84.355 100.359 84.453C98.7072 84.509 97.3632 84.537 96.3272 84.537V86.175H96.4952C97.6152 86.175 99.3722 86.154 101.766 86.112C102.214 86.35 102.438 86.63 102.438 86.952C102.438 87.624 101.71 87.96 100.254 87.96C98.8682 88.002 97.3352 88.023 95.6552 88.023C94.9272 87.883 94.5632 87.575 94.5632 87.099C94.5072 85.265 94.4792 84.019 94.4792 83.361C94.6472 82.913 94.9832 82.689 95.4872 82.689H98.5952C98.8752 82.689 99.2952 82.661 99.8552 82.605V82.521C99.9112 81.653 99.9392 81.177 99.9392 81.093H99.8552C99.2392 81.149 98.7072 81.177 98.2592 81.177H95.5712C94.8992 81.121 94.5632 80.841 94.5632 80.337V80.169C94.5632 79.665 94.8992 79.385 95.5712 79.329H99.3512C99.6592 79.329 100.051 79.301 100.527 79.245ZM106.176 78.321H106.344C106.834 78.321 107.114 78.685 107.184 79.413V81.765C107.184 83.165 107.212 85.153 107.268 87.729C107.17 87.981 106.974 88.205 106.68 88.401H106.092C105.588 88.401 105.336 87.113 105.336 84.537V83.025L105.42 82.521C105.364 82.157 105.336 81.793 105.336 81.429V79.329C105.392 78.657 105.672 78.321 106.176 78.321ZM96.8942 88.485H102.522C105.434 88.485 106.89 88.625 106.89 88.905C107.058 89.339 107.142 90.039 107.142 91.005C107.142 92.349 106.554 93.021 105.378 93.021C104.006 93.077 101.486 93.133 97.8182 93.189V94.155H101.598C102.578 94.155 103.586 94.183 104.622 94.239C104.874 94.183 105.49 94.155 106.47 94.155C107.002 94.155 107.282 94.519 107.31 95.247C107.142 95.751 106.778 96.003 106.218 96.003H97.0622C96.3342 95.877 95.9702 95.597 95.9702 95.163L96.0542 94.575V94.407C96.0542 94.141 96.0262 93.791 95.9702 93.357C95.9702 92.013 96.4462 91.341 97.3982 91.341C97.6222 91.341 97.7342 91.369 97.7342 91.425C97.7902 91.425 98.0142 91.397 98.4062 91.341C101.962 91.285 104.062 91.257 104.706 91.257L105.294 91.173V90.333C102.704 90.277 100.688 90.249 99.2462 90.249H97.1462C97.0202 90.249 96.9082 90.277 96.8102 90.333C96.4322 90.333 96.1242 90.109 95.8862 89.661V89.325C95.8862 88.821 96.2222 88.541 96.8942 88.485ZM110.345 79.791H116.057C116.673 79.889 116.981 80.197 116.981 80.715V80.967C116.981 82.759 116.169 84.999 114.545 87.687C112.403 90.319 110.947 91.635 110.177 91.635C109.799 91.537 109.547 91.341 109.421 91.047V90.627C109.421 90.319 110.121 89.591 111.521 88.443C113.537 86.189 114.657 84.173 114.881 82.395C114.993 81.975 115.049 81.723 115.049 81.639H109.925C109.309 81.527 109.001 81.247 109.001 80.799V80.715C109.001 80.099 109.449 79.791 110.345 79.791ZM123.869 77.922H123.953C124.303 77.922 124.583 78.146 124.793 78.594C124.793 80.162 124.821 81.814 124.877 83.55C124.821 87.162 124.793 90.606 124.793 93.882C124.695 94.498 124.415 94.806 123.953 94.806H123.785C123.225 94.806 122.945 94.302 122.945 93.294V92.286C122.945 91.684 122.973 91.208 123.029 90.858C122.973 90.382 122.945 89.99 122.945 89.682C122.945 88.1 123.001 86.448 123.113 84.726C123.057 83.69 123.029 82.57 123.029 81.366V78.93C123.085 78.258 123.365 77.922 123.869 77.922ZM120.845 78.258C121.405 78.496 121.685 78.832 121.685 79.266C121.685 79.602 121.657 80.106 121.601 80.778C121.601 81.87 121.629 83.382 121.685 85.314C121.629 88.016 121.601 90.676 121.601 93.294C121.475 93.854 121.195 94.134 120.761 94.134H120.593C120.145 94.134 119.865 93.826 119.753 93.21C119.809 89.43 119.837 87.05 119.837 86.07H119.753C119.179 86.126 118.731 86.154 118.409 86.154H117.989C117.429 86.07 117.149 85.818 117.149 85.398V85.146C117.149 84.53 118.045 84.222 119.837 84.222C119.837 84.012 119.809 83.312 119.753 82.122C119.809 80.33 119.837 79.294 119.837 79.014C120.005 78.51 120.341 78.258 120.845 78.258ZM134.201 79.875C136.245 79.875 138.037 80.575 139.577 81.975C140.137 82.843 140.417 83.935 140.417 85.251C140.417 86.889 139.213 88.233 136.805 89.283C135.825 89.451 135.069 89.535 134.537 89.535H134.033C132.129 89.535 130.533 88.835 129.245 87.435C128.629 86.581 128.321 85.657 128.321 84.663C128.321 83.207 129.049 81.947 130.505 80.883C131.849 80.253 133.081 79.917 134.201 79.875ZM130.169 84.579V84.747C130.169 86.301 131.289 87.281 133.529 87.687H134.621C136.511 87.687 137.799 87.015 138.485 85.671C138.541 85.573 138.569 85.461 138.569 85.335V85.167C138.569 83.669 138.121 82.773 137.225 82.479C136.273 81.975 135.181 81.723 133.949 81.723C132.745 81.723 131.653 82.199 130.673 83.151C130.337 83.795 130.169 84.271 130.169 84.579ZM136.91 88.149C137.526 88.149 137.834 88.625 137.834 89.577V89.745C137.834 90.403 137.862 91.159 137.918 92.013H138.002C138.464 92.013 139.472 92.041 141.026 92.097C141.348 92.209 141.572 92.405 141.698 92.685V93.021C141.586 93.581 141.306 93.861 140.858 93.861H127.418C126.858 93.749 126.578 93.469 126.578 93.021V92.937C126.578 92.321 127.054 92.013 128.006 92.013H130.358L130.442 91.173V89.157C130.54 88.541 130.848 88.233 131.366 88.233C131.884 88.233 132.192 88.625 132.29 89.409V90.585C132.29 90.879 132.262 91.355 132.206 92.013H136.07C136.014 90.165 135.986 89.129 135.986 88.905C136.168 88.401 136.476 88.149 136.91 88.149ZM145.203 79.182C145.875 79.182 146.211 79.91 146.211 81.366V89.43C146.099 90.046 145.791 90.354 145.287 90.354C144.727 90.2 144.447 89.92 144.447 89.514C144.447 88.548 144.419 85.608 144.363 80.694L144.279 80.106C144.391 79.49 144.699 79.182 145.203 79.182ZM145.035 92.118H145.371C146.043 92.258 146.379 92.594 146.379 93.126V93.546C146.239 94.218 145.903 94.554 145.371 94.554H145.035C144.461 94.554 144.125 94.106 144.027 93.21C144.223 92.482 144.559 92.118 145.035 92.118Z" fill="black"/>
</svg>
