<svg width="106" height="41" viewBox="0 0 106 41" fill="none" xmlns="http://www.w3.org/2000/svg">
<path d="M1.31362 1.497C1.92962 1.497 2.23762 2.169 2.23762 3.513C2.29362 5.375 2.32162 6.999 2.32162 8.385V10.737C3.95962 10.737 6.14362 10.569 8.87362 10.233C9.08362 10.233 9.33562 10.429 9.62962 10.821V11.241C9.62962 11.969 8.50962 12.333 6.26962 12.333C5.09362 12.445 3.72162 12.529 2.15362 12.585C1.08962 12.585 0.557623 12.053 0.557623 10.989C0.501623 9.757 0.445623 6.845 0.389623 2.253C0.571623 1.749 0.879623 1.497 1.31362 1.497ZM14.8586 0.194999C15.3066 0.404999 15.5306 0.684999 15.5306 1.035C15.5306 2.323 15.5586 4.563 15.6146 7.755C15.6146 7.979 15.5866 8.483 15.5306 9.267C15.6426 11.101 15.6986 13.369 15.6986 16.071C15.6986 16.505 15.3906 16.813 14.7746 16.995C14.2566 16.995 13.9486 16.603 13.8506 15.819V15.399C13.8506 13.775 13.8226 11.535 13.7666 8.679H12.0026V13.215C12.0026 13.733 12.0306 14.461 12.0866 15.399C11.8626 15.959 11.5546 16.239 11.1626 16.239C10.5466 16.239 10.2386 15.651 10.2386 14.475C10.1826 13.873 10.1546 12.921 10.1546 11.619C10.1546 11.003 10.1826 10.611 10.2386 10.443C10.1826 9.687 10.1546 9.043 10.1546 8.511V1.539C10.1546 0.811 10.4626 0.447 11.0786 0.447C11.6946 0.544999 12.0026 0.852999 12.0026 1.371V6.831H12.0866C12.2406 6.831 12.8006 6.859 13.7666 6.915V6.579C13.7666 5.417 13.7386 3.653 13.6826 1.287C13.6826 0.586999 14.0746 0.223 14.8586 0.194999ZM28.1527 1.014C28.9367 1.014 29.3287 1.49 29.3287 2.442C29.3287 3.618 30.1687 5.102 31.8487 6.894C32.7727 7.636 33.2347 8.196 33.2347 8.574V8.742C33.1647 9.302 32.8847 9.582 32.3947 9.582H32.3107C30.7007 8.686 29.3707 7.202 28.3207 5.13H28.1527C27.0887 7.426 25.8287 8.924 24.3727 9.624H24.0367C23.6167 9.624 23.3647 9.344 23.2807 8.784C23.2807 8.406 23.8127 7.776 24.8767 6.894C26.0247 5.746 26.8927 3.898 27.4807 1.35C27.6627 1.21 27.8867 1.098 28.1527 1.014ZM36.4267 0.299999C36.8747 0.299999 37.1547 0.691999 37.2667 1.476V4.164C37.2667 5.298 37.2387 6.502 37.1827 7.776C37.2387 8.07 37.2667 8.602 37.2667 9.372C37.1967 10.1 36.9167 10.464 36.4267 10.464H36.0067C35.6147 10.268 35.4187 9.988 35.4187 9.624V8.028C35.4187 7.79 35.3907 7.566 35.3347 7.356C35.3907 7.132 35.4187 6.908 35.4187 6.684V6.18H33.4867C32.8147 6.124 32.4787 5.844 32.4787 5.34V5.256C32.4787 4.64 32.9547 4.332 33.9067 4.332H35.4187V1.224C35.4187 0.677999 35.7547 0.369999 36.4267 0.299999ZM26.7457 11.178C27.4177 11.178 27.7537 12.438 27.7537 14.958V15.882H32.2057C33.2137 15.882 34.5857 15.854 36.3217 15.798C36.8817 15.952 37.1617 16.232 37.1617 16.638V16.806C37.1617 17.184 36.9097 17.464 36.4057 17.646C33.9977 17.702 32.1497 17.73 30.8617 17.73H26.9977C26.2697 17.73 25.9057 17.142 25.9057 15.966C25.9057 14.286 25.8777 12.942 25.8217 11.934C26.0037 11.43 26.3117 11.178 26.7457 11.178ZM45.0618 0.0689995H49.5138C50.8018 0.0689995 51.4458 0.713 51.4458 2.001V4.605C51.4458 5.445 50.6898 5.865 49.1778 5.865C48.9258 5.921 48.0858 5.949 46.6578 5.949C42.9618 5.949 41.1138 5.781 41.1138 5.445L40.8618 4.689C40.9178 4.101 40.9458 3.625 40.9458 3.261C40.9458 2.869 40.9178 2.141 40.8618 1.077C40.9738 0.684999 41.1978 0.376999 41.5338 0.153C43.0318 0.0969995 44.2078 0.0689995 45.0618 0.0689995ZM42.7098 1.917V2.001C42.7098 2.309 42.7378 2.701 42.7938 3.177C42.7378 3.471 42.7098 3.751 42.7098 4.017C43.2698 4.073 43.6898 4.101 43.9698 4.101H49.5978V2.001C49.5978 1.889 49.5418 1.833 49.4298 1.833H49.1778C47.6378 1.833 45.4818 1.861 42.7098 1.917ZM39.8748 7.314C41.1628 7.314 43.4868 7.342 46.8468 7.398C48.8768 7.342 50.3328 7.314 51.2148 7.314V7.398L51.3828 7.314C52.9508 7.314 53.7348 7.594 53.7348 8.154V8.406C53.6088 8.966 53.3288 9.246 52.8948 9.246C52.1388 9.19 51.5788 9.162 51.2148 9.162H49.3668C48.8908 9.162 48.1348 9.19 47.0988 9.246V10.674C47.0428 11.346 46.7348 11.682 46.1748 11.682C45.5588 11.682 45.2508 11.122 45.2508 10.002V9.246C44.5928 9.19 44.1168 9.162 43.8228 9.162H40.2948C39.3988 9.162 38.9508 8.882 38.9508 8.322V8.154C38.9508 7.692 39.2588 7.412 39.8748 7.314ZM41.3448 10.485H46.9728C49.8848 10.485 51.3408 10.625 51.3408 10.905C51.5088 11.339 51.5928 12.039 51.5928 13.005C51.5928 14.349 51.0048 15.021 49.8288 15.021C48.4568 15.077 45.9368 15.133 42.2688 15.189V16.155H46.0488C47.0288 16.155 48.0368 16.183 49.0728 16.239C49.3248 16.183 49.9408 16.155 50.9208 16.155C51.4528 16.155 51.7328 16.519 51.7608 17.247C51.5928 17.751 51.2288 18.003 50.6688 18.003H41.5128C40.7848 17.877 40.4208 17.597 40.4208 17.163L40.5048 16.575V16.407C40.5048 16.141 40.4768 15.791 40.4208 15.357C40.4208 14.013 40.8968 13.341 41.8488 13.341C42.0728 13.341 42.1848 13.369 42.1848 13.425C42.2408 13.425 42.4648 13.397 42.8568 13.341C46.4128 13.285 48.5128 13.257 49.1568 13.257L49.7448 13.173V12.333C47.1548 12.277 45.1388 12.249 43.6968 12.249H41.5968C41.4708 12.249 41.3588 12.277 41.2608 12.333C40.8828 12.333 40.5748 12.109 40.3368 11.661V11.325C40.3368 10.821 40.6728 10.541 41.3448 10.485ZM60.2927 1.014C61.0767 1.014 61.4687 1.49 61.4687 2.442C61.4687 3.618 62.3087 5.102 63.9887 6.894C64.9127 7.636 65.3747 8.196 65.3747 8.574V8.742C65.3047 9.302 65.0247 9.582 64.5347 9.582H64.4507C62.8407 8.686 61.5107 7.202 60.4607 5.13H60.2927C59.2287 7.426 57.9687 8.924 56.5127 9.624H56.1767C55.7567 9.624 55.5047 9.344 55.4207 8.784C55.4207 8.406 55.9527 7.776 57.0167 6.894C58.1647 5.746 59.0327 3.898 59.6207 1.35C59.8027 1.21 60.0267 1.098 60.2927 1.014ZM67.6847 0.299999C68.0347 0.299999 68.3147 0.551999 68.5247 1.056C68.5807 2.428 68.6087 3.52 68.6087 4.332V4.416H70.4567C71.0027 4.416 71.3107 4.752 71.3807 5.424C71.1847 5.928 70.9047 6.18 70.5407 6.18H68.5247V6.264C68.5247 6.6 68.5527 6.768 68.6087 6.768L68.5247 7.608V9.372C68.5247 9.498 68.5527 9.61 68.6087 9.708C68.4547 10.38 68.1187 10.716 67.6007 10.716C67.0407 10.562 66.7607 10.254 66.7607 9.792V3.324C66.7607 2.764 66.7327 2.092 66.6767 1.308C66.8307 0.635999 67.1667 0.299999 67.6847 0.299999ZM63.6947 10.695C66.2147 10.695 67.9507 11.528 68.9027 13.194C69.1267 13.768 69.2387 14.335 69.2387 14.895C69.2387 16.925 67.7267 18.241 64.7027 18.843H63.9467C60.7547 18.843 58.7667 18.003 57.9827 16.323C57.8147 15.875 57.7307 15.462 57.7307 15.084V14.811C57.7307 13.061 58.6827 11.836 60.5867 11.136C61.3007 10.842 62.3367 10.695 63.6947 10.695ZM59.4947 15.084C59.8587 16.274 61.1187 16.869 63.2747 16.869H64.5347C65.8507 16.869 66.8027 16.274 67.3907 15.084V14.727C67.3907 13.537 66.2147 12.851 63.8627 12.669H63.6107C60.8667 12.669 59.4947 13.474 59.4947 15.084ZM76.3561 1.98C76.8181 1.98 77.8541 2.008 79.4641 2.064C80.2201 2.008 80.8641 1.98 81.3961 1.98C82.1241 2.12 82.4881 2.428 82.4881 2.904C82.3761 3.52 82.0681 3.828 81.5641 3.828H78.7081L78.6241 4.584C78.6241 7.384 79.9961 9.96 82.7401 12.312C82.7401 12.494 82.7681 12.634 82.8241 12.732C82.6701 13.292 82.3901 13.572 81.9841 13.572H81.8161C80.4301 13.026 79.1141 11.514 77.8681 9.036L76.6081 11.388C75.5721 12.956 74.7321 13.74 74.0881 13.74H73.8361C73.3321 13.67 73.0801 13.418 73.0801 12.984V12.816C73.0801 12.508 73.5841 11.976 74.5921 11.22C75.9921 9.344 76.6921 6.88 76.6921 3.828H75.1801C74.8721 3.828 74.4801 3.856 74.0041 3.912C73.4441 3.758 73.1641 3.45 73.1641 2.988C73.1641 2.316 73.9201 1.98 75.4321 1.98H76.3561ZM85.3861 0.0479997C85.7781 0.0479997 86.0581 0.299999 86.2261 0.803999C86.2261 1.112 86.1981 1.42 86.1421 1.728C86.1981 3.17 86.2261 4.402 86.2261 5.424V6.516H88.5781C88.9701 6.712 89.1661 6.992 89.1661 7.356C89.1661 8.028 88.6901 8.364 87.7381 8.364H86.2261V13.152C86.2261 13.88 86.2541 14.832 86.3101 16.008C86.1561 16.568 85.8761 16.848 85.4701 16.848H85.3021C84.7421 16.736 84.4621 16.456 84.4621 16.008C84.4621 15.154 84.4341 14.174 84.3781 13.068C84.3781 12.424 84.4061 11.164 84.4621 9.288C84.4061 6.124 84.3781 3.38 84.3781 1.056C84.5181 0.384 84.8541 0.0479997 85.3861 0.0479997ZM103.022 2.106C103.638 2.106 103.946 2.358 103.946 2.862V3.282C103.75 3.674 103.47 3.87 103.106 3.87C102.574 3.87 102.042 3.898 101.51 3.954C101.314 3.954 101.062 3.926 100.754 3.87C99.4655 3.926 98.2895 3.954 97.2255 3.954H94.4535V4.878C94.4535 5.732 94.4815 7.048 94.5375 8.826C97.1275 8.882 99.1435 8.91 100.586 8.91H103.442C103.946 8.91 104.226 9.246 104.282 9.918C104.282 10.408 103.806 10.688 102.854 10.758H102.602C96.2735 10.758 93.1095 10.646 93.1095 10.422C92.8715 10.184 92.7315 9.764 92.6895 9.162C92.6335 6.166 92.6055 4.374 92.6055 3.786C92.6055 2.666 93.0535 2.106 93.9495 2.106H103.022ZM98.4855 10.17C99.0455 10.31 99.3255 10.618 99.3255 11.094L99.3465 14.139H103.127C103.449 14.139 103.897 14.167 104.471 14.223C104.569 14.167 104.709 14.139 104.891 14.139C105.451 14.293 105.731 14.573 105.731 14.979V15.147C105.605 15.707 105.325 15.987 104.891 15.987C98.3105 15.931 94.0265 15.903 92.0385 15.903C91.2545 15.903 90.8625 15.623 90.8625 15.063V14.895C90.8625 14.447 91.1705 14.167 91.7865 14.055H97.4985C97.4985 13.943 97.5055 13.411 97.5195 12.459C97.4915 11.717 97.4775 11.262 97.4775 11.094C97.4775 10.632 97.8135 10.324 98.4855 10.17ZM9.28101 22.006C14.447 22.062 17.275 22.09 17.765 22.09C18.773 22.09 19.277 22.482 19.277 23.266V23.35C19.277 25.24 19.025 27.06 18.521 28.81C18.283 29.034 18.059 29.146 17.849 29.146H17.513C17.121 28.95 16.925 28.67 16.925 28.306C17.261 25.982 17.429 24.61 17.429 24.19V23.938C14.657 23.882 12.501 23.854 10.961 23.854H8.77701C8.41301 23.854 8.13301 23.658 7.93701 23.266V22.678C8.13301 22.23 8.58101 22.006 9.28101 22.006ZM13.565 27.193H13.985C14.377 27.417 14.573 27.753 14.573 28.201V29.629H15.245C16.085 29.629 17.457 29.685 19.361 29.797L20.201 29.713C20.705 29.881 20.957 30.161 20.957 30.553V30.721C20.831 31.281 20.551 31.561 20.117 31.561C19.571 31.561 16.659 31.505 11.381 31.393C9.14101 31.449 7.85301 31.477 7.51701 31.477C6.67701 31.379 6.25701 31.071 6.25701 30.553V30.469C6.36901 29.909 6.64901 29.629 7.09701 29.629C8.11901 29.629 10.023 29.601 12.809 29.545L12.725 29.377V28.705C12.725 27.697 13.005 27.193 13.565 27.193ZM13.754 32.695C16.274 32.695 18.01 33.528 18.962 35.194C19.186 35.768 19.298 36.335 19.298 36.895C19.298 38.925 17.786 40.241 14.762 40.843H14.006C10.814 40.843 8.82601 40.003 8.04201 38.323C7.87401 37.875 7.79001 37.462 7.79001 37.084V36.811C7.79001 35.061 8.74201 33.836 10.646 33.136C11.36 32.842 12.396 32.695 13.754 32.695ZM9.55401 37.084C9.91801 38.274 11.178 38.869 13.334 38.869H14.594C15.91 38.869 16.862 38.274 17.45 37.084V36.727C17.45 35.537 16.274 34.851 13.922 34.669H13.67C10.926 34.669 9.55401 35.474 9.55401 37.084ZM30.3729 22.699C32.8929 22.699 34.6289 23.483 35.5809 25.051C35.8049 25.583 35.9169 26.115 35.9169 26.647C35.9169 28.551 34.4049 29.783 31.3809 30.343H30.6249C27.4329 30.343 25.4449 29.559 24.6609 27.991C24.4929 27.557 24.4089 27.165 24.4089 26.815V26.563C24.4089 24.911 25.3609 23.763 27.2649 23.119C27.9789 22.839 29.0149 22.699 30.3729 22.699ZM26.1729 26.815C26.5369 27.935 27.7969 28.495 29.9529 28.495H31.2129C32.5289 28.495 33.4809 27.935 34.0689 26.815V26.479C34.0689 25.373 32.8929 24.729 30.5409 24.547H30.2889C27.5449 24.547 26.1729 25.303 26.1729 26.815ZM25.3329 31.477C27.3629 31.533 29.0709 31.561 30.4569 31.561H36.4209C37.2049 31.659 37.5969 31.967 37.5969 32.485C37.4849 33.101 37.1769 33.409 36.6729 33.409H36.0009C35.5249 33.409 34.7689 33.381 33.7329 33.325V38.617C33.5369 39.009 33.2569 39.205 32.8929 39.205C32.2209 39.205 31.8849 38.505 31.8849 37.105V33.325H28.2729V38.197C28.2729 38.505 28.0769 38.785 27.6849 39.037H27.0969C26.8449 38.953 26.6209 38.673 26.4249 38.197C26.4809 37.357 26.5089 36.741 26.5089 36.349V33.325H23.6529C22.9809 33.283 22.6449 32.975 22.6449 32.401C22.6449 31.841 23.1769 31.561 24.2409 31.561C24.6049 31.561 24.9689 31.533 25.3329 31.477ZM44.3189 22.741C44.9349 22.741 45.2429 23.105 45.2429 23.833V25.009L45.3269 25.177L46.3349 25.093H47.8469C48.8549 25.093 49.3589 25.429 49.3589 26.101C49.2189 26.661 48.9109 26.941 48.4349 26.941H41.9669C41.5189 26.941 40.9309 26.969 40.2029 27.025C39.7269 27.025 39.4189 26.689 39.2789 26.017C39.2789 25.527 39.6429 25.247 40.3709 25.177H43.2269C43.3389 25.177 43.3949 25.121 43.3949 25.009V23.833C43.3949 23.105 43.7029 22.741 44.3189 22.741ZM44.2349 27.865C46.0689 27.865 47.3849 28.817 48.1829 30.721C48.2389 30.931 48.2669 31.155 48.2669 31.393V31.645C48.2669 33.647 47.1189 34.963 44.8229 35.593L44.3189 35.677C42.4709 35.677 41.1549 34.753 40.3709 32.905L40.2869 32.317V32.149C40.2869 30.147 41.0429 28.831 42.5549 28.201C43.1989 27.977 43.7589 27.865 44.2349 27.865ZM42.1349 31.897V32.233C42.1349 32.947 42.6949 33.451 43.8149 33.745L44.4029 33.829C45.1029 33.829 45.7469 33.353 46.3349 32.401L46.4189 31.561V31.393C46.1249 30.273 45.2569 29.713 43.8149 29.713C42.6949 29.923 42.1349 30.651 42.1349 31.897ZM54.1259 22.195C54.5739 22.405 54.7979 22.685 54.7979 23.035C54.7979 24.323 54.8259 26.563 54.8819 29.755C54.8819 29.979 54.8539 30.483 54.7979 31.267C54.9099 33.101 54.9659 35.369 54.9659 38.071C54.9659 38.505 54.6579 38.813 54.0419 38.995C53.5239 38.995 53.2159 38.603 53.1179 37.819V37.399C53.1179 35.775 53.0899 33.535 53.0339 30.679H51.2699V35.215C51.2699 35.733 51.2979 36.461 51.3539 37.399C51.1299 37.959 50.8219 38.239 50.4299 38.239C49.8139 38.239 49.5059 37.651 49.5059 36.475C49.4499 35.873 49.4219 34.921 49.4219 33.619C49.4219 33.003 49.4499 32.611 49.5059 32.443C49.4499 31.687 49.4219 31.043 49.4219 30.511V23.539C49.4219 22.811 49.7299 22.447 50.3459 22.447C50.9619 22.545 51.2699 22.853 51.2699 23.371V28.831H51.3539C51.5079 28.831 52.0679 28.859 53.0339 28.915V28.579C53.0339 27.417 53.0059 25.653 52.9499 23.287C52.9499 22.587 53.3419 22.223 54.1259 22.195ZM68.8942 23.875H69.0622C69.5522 23.875 69.8322 24.239 69.9022 24.967C69.9582 27.907 69.9862 30.147 69.9862 31.687C69.7342 32.359 69.2862 32.695 68.6422 32.695H67.1302C65.7442 32.695 64.3722 32.723 63.0142 32.779C62.4402 32.723 61.4322 32.695 59.9902 32.695C59.2062 32.695 58.8142 31.995 58.8142 30.595C58.7582 30.021 58.7302 29.573 58.7302 29.251C58.7862 27.725 58.8142 26.269 58.8142 24.883C58.9122 24.267 59.1922 23.959 59.6542 23.959H59.8222C60.3822 23.959 60.6622 24.379 60.6622 25.219C60.6622 25.317 60.6342 25.821 60.5782 26.731L61.5862 26.815H62.4262C63.2242 26.815 63.8122 26.843 64.1902 26.899C64.6802 26.843 65.2962 26.815 66.0382 26.815H68.0542V24.883C68.1102 24.211 68.3902 23.875 68.8942 23.875ZM60.5782 28.579V30.427L60.6622 30.847C61.8662 30.903 62.7622 30.931 63.3502 30.931H65.8702C66.3462 30.931 67.1022 30.903 68.1382 30.847V28.663H62.4262C62.0342 28.663 61.4182 28.635 60.5782 28.579ZM64.2742 32.17C64.8342 32.31 65.1142 32.618 65.1142 33.094L65.1352 36.139H68.9152C69.2372 36.139 69.6852 36.167 70.2592 36.223C70.3572 36.167 70.4972 36.139 70.6792 36.139C71.2392 36.293 71.5192 36.573 71.5192 36.979V37.147C71.3932 37.707 71.1132 37.987 70.6792 37.987C64.0992 37.931 59.8152 37.903 57.8272 37.903C57.0432 37.903 56.6512 37.623 56.6512 37.063V36.895C56.6512 36.447 56.9592 36.167 57.5752 36.055H63.2872C63.2872 35.943 63.2942 35.411 63.3082 34.459C63.2802 33.717 63.2662 33.262 63.2662 33.094C63.2662 32.632 63.6022 32.324 64.2742 32.17ZM77.8231 23.749H77.9911C78.5511 23.749 78.8311 24.281 78.8311 25.345C78.8311 27.585 79.5591 29.937 81.0151 32.401C81.9111 33.255 82.3591 33.815 82.3591 34.081V34.249C82.3591 34.711 82.0511 34.991 81.4351 35.089C80.5251 34.879 79.5171 33.675 78.4111 31.477C78.0751 30.665 77.9071 30.217 77.9071 30.133H77.8231C76.3111 33.605 75.0791 35.341 74.1271 35.341H73.9591C73.4551 35.271 73.2031 35.019 73.2031 34.585V34.417C73.2031 34.179 73.6511 33.563 74.5471 32.569C76.2271 30.063 77.0671 27.291 77.0671 24.253C77.2911 23.917 77.5431 23.749 77.8231 23.749ZM87.9241 21.922H88.0081C88.3581 21.922 88.6381 22.146 88.8481 22.594C88.8481 24.162 88.8761 25.814 88.9321 27.55C88.8761 31.162 88.8481 34.606 88.8481 37.882C88.7501 38.498 88.4701 38.806 88.0081 38.806H87.8401C87.2801 38.806 87.0001 38.302 87.0001 37.294V36.286C87.0001 35.684 87.0281 35.208 87.0841 34.858C87.0281 34.382 87.0001 33.99 87.0001 33.682C87.0001 32.1 87.0561 30.448 87.1681 28.726C87.1121 27.69 87.0841 26.57 87.0841 25.366V22.93C87.1401 22.258 87.4201 21.922 87.9241 21.922ZM84.9001 22.258C85.4601 22.496 85.7401 22.832 85.7401 23.266C85.7401 23.602 85.7121 24.106 85.6561 24.778C85.6561 25.87 85.6841 27.382 85.7401 29.314C85.6841 32.016 85.6561 34.676 85.6561 37.294C85.5301 37.854 85.2501 38.134 84.8161 38.134H84.6481C84.2001 38.134 83.9201 37.826 83.8081 37.21C83.8641 33.43 83.8921 31.05 83.8921 30.07H83.8081C83.2341 30.126 82.7861 30.154 82.4641 30.154H82.0441C81.4841 30.07 81.2041 29.818 81.2041 29.398V29.146C81.2041 28.53 82.1001 28.222 83.8921 28.222C83.8921 28.012 83.8641 27.312 83.8081 26.122C83.8641 24.33 83.8921 23.294 83.8921 23.014C84.0601 22.51 84.3961 22.258 84.9001 22.258ZM98.2394 23.875C100.283 23.875 102.075 24.575 103.615 25.975C104.175 26.843 104.455 27.935 104.455 29.251C104.455 30.889 103.251 32.233 100.843 33.283C99.8634 33.451 99.1074 33.535 98.5754 33.535H98.0714C96.1674 33.535 94.5714 32.835 93.2834 31.435C92.6674 30.581 92.3594 29.657 92.3594 28.663C92.3594 27.207 93.0874 25.947 94.5434 24.883C95.8874 24.253 97.1194 23.917 98.2394 23.875ZM94.2074 28.579V28.747C94.2074 30.301 95.3274 31.281 97.5674 31.687H98.6594C100.549 31.687 101.837 31.015 102.523 29.671C102.579 29.573 102.607 29.461 102.607 29.335V29.167C102.607 27.669 102.159 26.773 101.263 26.479C100.311 25.975 99.2194 25.723 97.9874 25.723C96.7834 25.723 95.6914 26.199 94.7114 27.151C94.3754 27.795 94.2074 28.271 94.2074 28.579ZM100.948 32.149C101.564 32.149 101.872 32.625 101.872 33.577V33.745C101.872 34.403 101.9 35.159 101.956 36.013H102.04C102.502 36.013 103.51 36.041 105.064 36.097C105.386 36.209 105.61 36.405 105.736 36.685V37.021C105.624 37.581 105.344 37.861 104.896 37.861H91.4564C90.8964 37.749 90.6164 37.469 90.6164 37.021V36.937C90.6164 36.321 91.0924 36.013 92.0444 36.013H94.3964L94.4804 35.173V33.157C94.5784 32.541 94.8864 32.233 95.4044 32.233C95.9224 32.233 96.2304 32.625 96.3284 33.409V34.585C96.3284 34.879 96.3004 35.355 96.2444 36.013H100.108C100.052 34.165 100.024 33.129 100.024 32.905C100.206 32.401 100.514 32.149 100.948 32.149Z" fill="black"/>
</svg>
