<svg width="271" height="56" viewBox="0 0 271 56" fill="none" xmlns="http://www.w3.org/2000/svg">
<rect x="0.5" width="270" height="56" rx="15" fill="#9E4AFF"/>
<g clip-path="url(#clip0_72_3642)">
<g clip-path="url(#clip1_72_3642)">
<g clip-path="url(#clip2_72_3642)">
<path d="M89.4161 24.7271L71.4651 16.2821C70.4511 15.7891 69.2561 15.9591 68.4171 16.7131C67.5761 17.4701 67.2841 18.6461 67.6721 19.7081C67.6891 19.7511 72.0831 28.0041 72.0831 28.0041C72.0831 28.0041 67.7701 36.2551 67.7551 36.2971C67.3681 37.3601 67.6631 38.5341 68.5041 39.2901C69.0251 39.7571 69.6831 39.9981 70.3451 39.9981C70.7541 39.9981 71.1641 39.9061 71.5461 39.7191L89.4181 31.2811C90.7031 30.6781 91.5011 29.4221 91.5001 28.0031C91.5001 26.5831 90.6991 25.3271 89.4161 24.7271ZM69.5321 18.9671C69.4101 18.5521 69.6701 18.2771 69.7551 18.1991C69.8441 18.1201 70.1691 17.8751 70.5931 18.0831C70.5981 18.0851 88.5671 26.5381 88.5671 26.5381C88.8061 26.6501 89.0051 26.8081 89.1581 27.0001H73.8151L69.5321 18.9671ZM88.5661 29.4711L70.6781 37.9171C70.2531 38.1261 69.9291 37.8821 69.8401 37.8011C69.7541 37.7251 69.4941 37.4481 69.6171 37.0321L73.8191 29.0001H89.1641C89.0111 29.1951 88.8081 29.3571 88.5661 29.4711Z" fill="white"/>
</g>
</g>
</g>
<path d="M108.422 19.909H108.59C109.08 19.909 109.36 20.273 109.43 21.001V21.757C109.612 21.757 110.088 21.785 110.858 21.841C111.068 21.841 111.852 21.813 113.21 21.757C114.218 21.757 114.722 22.037 114.722 22.597V22.849C114.722 23.353 114.414 23.605 113.798 23.605H109.43V23.689C109.43 24.809 110.27 25.985 111.95 27.217C114.022 28.029 115.058 28.589 115.058 28.897C115.058 28.925 115.086 29.037 115.142 29.233C115.002 29.793 114.694 30.073 114.218 30.073C112.328 29.569 110.788 28.757 109.598 27.637C108.898 27.007 108.534 26.559 108.506 26.293C107.19 28.057 105.258 29.317 102.71 30.073C102.248 30.073 101.968 29.737 101.87 29.065C101.87 28.631 102.766 28.071 104.558 27.385C106.518 26.097 107.498 24.893 107.498 23.773V23.605C107.134 23.605 105.678 23.633 103.13 23.689C102.724 23.689 102.472 23.353 102.374 22.681V22.597C102.598 22.093 102.99 21.841 103.55 21.841H104.474C105.132 21.841 106.168 21.813 107.582 21.757V20.917C107.638 20.245 107.918 19.909 108.422 19.909ZM108.548 29.17C109.108 29.31 109.388 29.618 109.388 30.094L109.409 33.139H113.189C113.511 33.139 113.959 33.167 114.533 33.223C114.631 33.167 114.771 33.139 114.953 33.139C115.513 33.293 115.793 33.573 115.793 33.979V34.147C115.667 34.707 115.387 34.987 114.953 34.987C108.373 34.931 104.089 34.903 102.101 34.903C101.317 34.903 100.925 34.623 100.925 34.063V33.895C100.925 33.447 101.233 33.167 101.849 33.055H107.561C107.561 32.943 107.568 32.411 107.582 31.459C107.554 30.717 107.54 30.262 107.54 30.094C107.54 29.632 107.876 29.324 108.548 29.17ZM129.321 18.817C129.951 18.817 130.371 19.321 130.581 20.329C130.413 23.353 130.329 25.173 130.329 25.789C130.329 26.251 130.021 26.531 129.405 26.629C128.957 26.629 128.677 26.321 128.565 25.705V23.857C124.393 23.913 121.649 23.969 120.333 24.025C119.857 24.025 119.549 23.689 119.409 23.017C119.409 22.625 119.689 22.345 120.249 22.177C122.083 22.121 123.511 22.093 124.533 22.093H128.565C128.677 22.093 128.733 22.037 128.733 21.925V20.665H123.021C122.671 20.665 122.251 20.693 121.761 20.749C120.305 20.749 119.577 20.469 119.577 19.909V19.489C119.773 19.097 120.053 18.901 120.417 18.901C122.629 18.901 125.597 18.873 129.321 18.817ZM124.785 24.193H125.205C125.597 24.417 125.793 24.753 125.793 25.201V26.629H126.465C127.305 26.629 128.677 26.685 130.581 26.797L131.421 26.713C131.925 26.881 132.177 27.161 132.177 27.553V27.721C132.051 28.281 131.771 28.561 131.337 28.561C130.791 28.561 127.879 28.505 122.601 28.393C120.361 28.449 119.073 28.477 118.737 28.477C117.897 28.379 117.477 28.071 117.477 27.553V27.469C117.589 26.909 117.869 26.629 118.317 26.629C119.339 26.629 121.243 26.601 124.029 26.545L123.945 26.377V25.705C123.945 24.697 124.225 24.193 124.785 24.193ZM120.06 29.485H125.688C128.6 29.485 130.056 29.625 130.056 29.905C130.224 30.339 130.308 31.039 130.308 32.005C130.308 33.349 129.72 34.021 128.544 34.021C127.172 34.077 124.652 34.133 120.984 34.189V35.155H124.764C125.744 35.155 126.752 35.183 127.788 35.239C128.04 35.183 128.656 35.155 129.636 35.155C130.168 35.155 130.448 35.519 130.476 36.247C130.308 36.751 129.944 37.003 129.384 37.003H120.228C119.5 36.877 119.136 36.597 119.136 36.163L119.22 35.575V35.407C119.22 35.141 119.192 34.791 119.136 34.357C119.136 33.013 119.612 32.341 120.564 32.341C120.788 32.341 120.9 32.369 120.9 32.425C120.956 32.425 121.18 32.397 121.572 32.341C125.128 32.285 127.228 32.257 127.872 32.257L128.46 32.173V31.333C125.87 31.277 123.854 31.249 122.412 31.249H120.312C120.186 31.249 120.074 31.277 119.976 31.333C119.598 31.333 119.29 31.109 119.052 30.661V30.325C119.052 29.821 119.388 29.541 120.06 29.485ZM139.913 20.245C140.753 20.399 141.173 20.791 141.173 21.421C141.173 23.885 140.921 25.117 140.417 25.117C140.417 25.243 140.193 25.355 139.745 25.453C138.093 25.509 136.749 25.537 135.713 25.537V27.175H135.881C137.001 27.175 138.758 27.154 141.152 27.112C141.6 27.35 141.824 27.63 141.824 27.952C141.824 28.624 141.096 28.96 139.64 28.96C138.254 29.002 136.721 29.023 135.041 29.023C134.313 28.883 133.949 28.575 133.949 28.099C133.893 26.265 133.865 25.019 133.865 24.361C134.033 23.913 134.369 23.689 134.873 23.689H137.981C138.261 23.689 138.681 23.661 139.241 23.605V23.521C139.297 22.653 139.325 22.177 139.325 22.093H139.241C138.625 22.149 138.093 22.177 137.645 22.177H134.957C134.285 22.121 133.949 21.841 133.949 21.337V21.169C133.949 20.665 134.285 20.385 134.957 20.329H138.737C139.045 20.329 139.437 20.301 139.913 20.245ZM145.562 19.321H145.73C146.22 19.321 146.5 19.685 146.57 20.413V22.765C146.57 24.165 146.598 26.153 146.654 28.729C146.556 28.981 146.36 29.205 146.066 29.401H145.478C144.974 29.401 144.722 28.113 144.722 25.537V24.025L144.806 23.521C144.75 23.157 144.722 22.793 144.722 22.429V20.329C144.778 19.657 145.058 19.321 145.562 19.321ZM141.047 29.863C141.621 29.863 141.985 30.388 142.139 31.438C142.685 32.922 143.973 34.147 146.003 35.113C146.899 35.239 147.347 35.617 147.347 36.247C147.207 36.835 146.899 37.129 146.423 37.129C145.289 37.129 143.721 36.191 141.719 34.315C141.271 33.755 141.047 33.405 141.047 33.265H140.963C140.067 34.847 138.415 36.107 136.007 37.045C135.923 37.101 135.755 37.129 135.503 37.129C135.125 37.129 134.873 36.835 134.747 36.247V36.163C134.747 35.617 135.391 35.148 136.679 34.756C138.471 33.622 139.563 32.488 139.955 31.354C140.151 30.36 140.515 29.863 141.047 29.863ZM167.174 20.875H167.342C167.832 20.875 168.112 21.239 168.182 21.967C168.238 24.907 168.266 27.147 168.266 28.687C168.014 29.359 167.566 29.695 166.922 29.695H165.41C164.024 29.695 162.652 29.723 161.294 29.779C160.72 29.723 159.712 29.695 158.27 29.695C157.486 29.695 157.094 28.995 157.094 27.595C157.038 27.021 157.01 26.573 157.01 26.251C157.066 24.725 157.094 23.269 157.094 21.883C157.192 21.267 157.472 20.959 157.934 20.959H158.102C158.662 20.959 158.942 21.379 158.942 22.219C158.942 22.317 158.914 22.821 158.858 23.731L159.866 23.815H160.706C161.504 23.815 162.092 23.843 162.47 23.899C162.96 23.843 163.576 23.815 164.318 23.815H166.334V21.883C166.39 21.211 166.67 20.875 167.174 20.875ZM158.858 25.579V27.427L158.942 27.847C160.146 27.903 161.042 27.931 161.63 27.931H164.15C164.626 27.931 165.382 27.903 166.418 27.847V25.663H160.706C160.314 25.663 159.698 25.635 158.858 25.579ZM162.554 29.17C163.114 29.31 163.394 29.618 163.394 30.094L163.415 33.139H167.195C167.517 33.139 167.965 33.167 168.539 33.223C168.637 33.167 168.777 33.139 168.959 33.139C169.519 33.293 169.799 33.573 169.799 33.979V34.147C169.673 34.707 169.393 34.987 168.959 34.987C162.379 34.931 158.095 34.903 156.107 34.903C155.323 34.903 154.931 34.623 154.931 34.063V33.895C154.931 33.447 155.239 33.167 155.855 33.055H161.567C161.567 32.943 161.574 32.411 161.588 31.459C161.56 30.717 161.546 30.262 161.546 30.094C161.546 29.632 161.882 29.324 162.554 29.17ZM172.407 20.497C173.023 20.497 173.331 21.169 173.331 22.513C173.387 24.375 173.415 25.999 173.415 27.385V29.737C175.053 29.737 177.237 29.569 179.967 29.233C180.177 29.233 180.429 29.429 180.723 29.821V30.241C180.723 30.969 179.603 31.333 177.363 31.333C176.187 31.445 174.815 31.529 173.247 31.585C172.183 31.585 171.651 31.053 171.651 29.989C171.595 28.757 171.539 25.845 171.483 21.253C171.665 20.749 171.973 20.497 172.407 20.497ZM185.952 19.195C186.4 19.405 186.624 19.685 186.624 20.035C186.624 21.323 186.652 23.563 186.708 26.755C186.708 26.979 186.68 27.483 186.624 28.267C186.736 30.101 186.792 32.369 186.792 35.071C186.792 35.505 186.484 35.813 185.868 35.995C185.35 35.995 185.042 35.603 184.944 34.819V34.399C184.944 32.775 184.916 30.535 184.86 27.679H183.096V32.215C183.096 32.733 183.124 33.461 183.18 34.399C182.956 34.959 182.648 35.239 182.256 35.239C181.64 35.239 181.332 34.651 181.332 33.475C181.276 32.873 181.248 31.921 181.248 30.619C181.248 30.003 181.276 29.611 181.332 29.443C181.276 28.687 181.248 28.043 181.248 27.511V20.539C181.248 19.811 181.556 19.447 182.172 19.447C182.788 19.545 183.096 19.853 183.096 20.371V25.831H183.18C183.334 25.831 183.894 25.859 184.86 25.915V25.579C184.86 24.417 184.832 22.653 184.776 20.287C184.776 19.587 185.168 19.223 185.952 19.195ZM189.83 20.791H195.542C196.158 20.889 196.466 21.197 196.466 21.715V21.967C196.466 23.759 195.654 25.999 194.03 28.687C191.888 31.319 190.432 32.635 189.662 32.635C189.284 32.537 189.032 32.341 188.906 32.047V31.627C188.906 31.319 189.606 30.591 191.006 29.443C193.022 27.189 194.142 25.173 194.366 23.395C194.478 22.975 194.534 22.723 194.534 22.639H189.41C188.794 22.527 188.486 22.247 188.486 21.799V21.715C188.486 21.099 188.934 20.791 189.83 20.791ZM201.149 18.838C201.709 18.838 201.989 19.454 201.989 20.686C202.045 21.386 202.073 21.75 202.073 21.778C201.961 25.278 201.905 27.63 201.905 28.834C201.961 31.284 202.017 32.628 202.073 32.866C202.017 33.076 201.989 33.328 201.989 33.622V33.79C201.989 34.028 202.017 34.336 202.073 34.714C202.073 35.19 201.737 35.498 201.065 35.638C200.603 35.638 200.323 35.302 200.225 34.63C200.225 33.3 200.169 31.172 200.057 28.246C200.169 25.348 200.225 23.052 200.225 21.358C200.225 21.204 200.197 20.644 200.141 19.678C200.141 19.216 200.477 18.936 201.149 18.838Z" fill="white"/>
<defs>
<clipPath id="clip0_72_3642">
<rect width="24" height="24" fill="white" transform="translate(67.5 16)"/>
</clipPath>
<clipPath id="clip1_72_3642">
<rect width="24" height="24" fill="white" transform="translate(67.5 16)"/>
</clipPath>
<clipPath id="clip2_72_3642">
<rect width="24" height="24" fill="white" transform="translate(67.5 16)"/>
</clipPath>
</defs>
</svg>
