<svg width="315" height="56" viewBox="0 0 315 56" fill="none" xmlns="http://www.w3.org/2000/svg">
<g clip-path="url(#clip0_572_2780)">
<mask id="path-1-inside-1_572_2780" fill="white">
<path d="M298.169 55.2144C296.867 55.2144 296.867 55.3912 295.565 55.3912C294.263 55.3912 294.263 55.401 292.962 55.401C291.66 55.401 291.66 55.1359 290.358 55.1359C289.056 55.1359 289.056 55.185 287.754 55.185C286.452 55.185 286.452 55.1163 285.151 55.1163C283.849 55.1163 283.849 55.2439 282.547 55.2439C281.245 55.2439 281.245 54.969 279.943 54.969C278.641 54.969 278.641 55.9411 277.339 55.9411C276.038 55.9411 276.038 55.892 274.736 55.892C273.434 55.892 273.434 55.0672 272.132 55.0672C270.83 55.0672 270.83 55.0868 269.528 55.0868C268.227 55.0868 268.227 55.2341 266.925 55.2341C265.623 55.2341 265.623 55.7545 264.321 55.7545C263.019 55.7545 263.019 55.1555 261.717 55.1555C260.416 55.1555 260.415 55.5778 259.114 55.5778C257.812 55.5778 257.812 55.3912 256.51 55.3912C255.208 55.3912 255.208 55.3126 253.906 55.3126C252.604 55.3126 252.604 55.5385 251.303 55.5385C250.001 55.5385 250.001 55.7349 248.699 55.7349C247.397 55.7349 247.397 55.9018 246.095 55.9018C244.793 55.9018 244.793 55.4207 243.492 55.4207C242.19 55.4207 242.19 54.969 240.888 54.969C239.586 54.969 239.586 55.6367 238.284 55.6367C236.982 55.6367 236.982 55.0377 235.68 55.0377C234.379 55.0377 234.379 55.2537 233.077 55.2537C231.775 55.2537 231.775 55.7349 230.473 55.7349C229.171 55.7349 229.171 55.892 227.869 55.892C226.568 55.892 226.568 55.1064 225.266 55.1064C223.964 55.1064 223.964 55.3323 222.662 55.3323C221.36 55.3323 221.36 55.4403 220.058 55.4403C218.756 55.4403 218.756 55.1163 217.455 55.1163C216.153 55.1163 216.153 55.1359 214.851 55.1359C213.549 55.1359 213.549 55.9705 212.247 55.9705C210.945 55.9705 210.945 55.2144 209.644 55.2144C208.342 55.2144 208.342 55.8822 207.04 55.8822C205.738 55.8822 205.738 55.1653 204.436 55.1653C203.134 55.1653 203.134 55.6661 201.832 55.6661C200.531 55.6661 200.531 55.9411 199.229 55.9411C197.927 55.9411 197.927 55.4796 196.625 55.4796C195.323 55.4796 195.323 55.9804 194.021 55.9804C192.72 55.9804 192.72 55.8625 191.418 55.8625C190.116 55.8625 190.116 55.1752 188.814 55.1752C187.512 55.1752 187.512 55.5581 186.21 55.5581C184.908 55.5581 184.908 55.1555 183.607 55.1555C182.305 55.1555 182.305 55.3617 181.003 55.3617C179.701 55.3617 179.701 55.4108 178.399 55.4108C177.097 55.4108 177.097 55.2832 175.796 55.2832C174.494 55.2832 174.494 55.0181 173.192 55.0181C171.89 55.0181 171.89 55.7349 170.588 55.7349C169.286 55.7349 169.286 55.1163 167.985 55.1163C166.683 55.1163 166.683 55.892 165.381 55.892C164.079 55.892 164.079 55.9509 162.777 55.9509C161.475 55.9509 161.475 55.6465 160.173 55.6465C158.872 55.6465 158.872 55.4698 157.57 55.4698C156.268 55.4698 156.268 55.8527 154.966 55.8527C153.664 55.8527 153.664 55.7447 152.362 55.7447C151.061 55.7447 151.061 55.3716 149.759 55.3716C148.457 55.3716 148.457 55.0966 147.155 55.0966C145.853 55.0966 145.853 55.0966 144.551 55.0966C143.249 55.0966 143.249 55.0181 141.948 55.0181C140.646 55.0181 140.646 55.9116 139.332 55.9116C138.019 55.9116 138.03 55.3617 136.729 55.3617C135.427 55.3617 135.427 55.0377 134.125 55.0377C132.823 55.0377 132.823 55.5778 131.521 55.5778C130.219 55.5778 130.219 55.9411 128.918 55.9411C127.616 55.9411 127.616 55.8723 126.314 55.8723C125.012 55.8723 125.012 55.7938 123.71 55.7938C122.408 55.7938 122.408 55.9313 121.106 55.9313C119.805 55.9313 119.805 55.3519 118.491 55.3519C117.178 55.3519 117.189 55.2832 115.887 55.2832C114.586 55.2832 114.586 55.293 113.284 55.293C111.982 55.293 111.982 55.0181 110.68 55.0181C109.378 55.0181 109.378 55.7742 108.076 55.7742C106.775 55.7742 106.775 55.0377 105.461 55.0377C104.148 55.0377 104.159 54.9886 102.857 54.9886C101.556 54.9886 101.556 55.9804 100.254 55.9804C98.9518 55.9804 98.9518 55.4698 97.65 55.4698C96.3482 55.4698 96.3481 55.8429 95.0463 55.8429C93.7445 55.8429 93.7445 55.5876 92.431 55.5876C91.1175 55.5876 91.1291 55.3323 89.8273 55.3323C88.5255 55.3323 88.5255 55.1948 87.2236 55.1948C85.9218 55.1948 85.9218 56 84.6083 56C83.2948 56 83.3064 55.9018 81.993 55.9018C80.6795 55.9018 80.6911 55.0082 79.3893 55.0082C78.0875 55.0082 78.0875 55.6563 76.774 55.6563C75.4605 55.6563 75.4721 55.3323 74.1587 55.3323C72.8452 55.3323 72.8568 55.4992 71.555 55.4992C70.2531 55.4992 70.2531 55.2243 68.9513 55.2243C67.6494 55.2243 67.6494 55.6563 66.3476 55.6563C65.0458 55.6563 65.0457 55.7643 63.7323 55.7643C62.4188 55.7643 62.4304 55.9018 61.117 55.9018C59.8035 55.9018 59.8151 55.8527 58.5133 55.8527C57.2114 55.8527 57.2114 55.892 55.9096 55.892C54.6077 55.892 54.6077 55.7349 53.2943 55.7349C51.9808 55.7349 51.9924 55.8232 50.6906 55.8232C49.3887 55.8232 49.3887 55.1555 48.0753 55.1555C46.7618 55.1555 46.7734 55.3617 45.46 55.3617C44.1465 55.3617 44.1581 55.3028 42.8446 55.3028C41.5312 55.3028 41.5428 55.4796 40.2293 55.4796C38.9159 55.4796 38.9275 55.5188 37.614 55.5188C36.3006 55.5188 36.3122 55.8331 34.9987 55.8331C33.6852 55.8331 33.6969 55.0279 32.395 55.0279C31.0932 55.0279 31.0932 55.617 29.7797 55.617C28.4662 55.617 28.4779 55.401 27.1644 55.401C25.8509 55.401 25.8509 55.0181 24.5491 55.0181C23.2472 55.0181 23.2356 55.0573 21.9338 55.0573C20.6319 55.0573 20.6203 54.9984 19.3184 54.9984C18.0166 54.9984 18.005 55.3912 16.7031 55.3912C15.843 55.3912 14.9712 55.5385 14.1576 55.4305C13.3439 55.3225 12.4954 55.0672 11.705 54.8511C10.9146 54.6351 10.3334 53.9674 9.58948 53.6433C8.84557 53.3193 8.06679 53.0935 7.39262 52.6712C6.71845 52.249 5.60258 52.2293 5.00978 51.7187C4.41697 51.2081 3.66144 50.727 3.16162 50.1476C2.66181 49.5683 2.78967 48.6256 2.40609 47.9874C2.02251 47.3491 1.13911 46.8581 0.883395 46.1708C0.627675 45.4834 1.22048 44.6291 1.09262 43.9123C0.96476 43.1955 0.650922 42.5474 0.650922 41.8208C0.650922 40.7603 1.081 40.7603 1.081 39.69C1.081 38.6197 0.488192 38.6295 0.488192 37.5592C0.488192 36.4889 0 36.4889 0 35.4284C0 34.3679 0.732288 34.3679 0.732288 33.2976C0.732288 32.2273 0.906642 32.2272 0.906642 31.1668C0.906642 30.1063 0.790406 30.0964 0.790406 29.0359C0.790406 27.9755 0.499815 27.9754 0.499815 26.9051C0.499815 25.8348 0.8369 25.8446 0.8369 24.7743C0.8369 23.704 0.0813653 23.704 0.0813653 22.6435C0.0813653 21.583 0.953136 21.5732 0.953136 20.5127C0.953136 19.4522 0.871771 19.4424 0.871771 18.3819C0.871771 17.3214 0.639299 17.3116 0.639299 16.2413C0.639299 15.171 0.29059 15.171 0.29059 14.1006C0.29059 13.374 0.999631 12.7063 1.13911 12.0091C1.2786 11.3119 1.7203 10.713 1.97601 10.0452C2.23173 9.37752 2.33635 8.69998 2.71993 8.06172C3.10351 7.42347 3.47546 6.83429 3.97528 6.26477C4.47509 5.69525 4.49834 4.7624 5.09114 4.26162C5.68395 3.76083 6.92767 3.90812 7.61347 3.48588C8.29926 3.06365 8.71771 2.36647 9.47325 2.04243C10.2288 1.7184 11.0424 1.60056 11.8561 1.38453C12.6697 1.16851 13.402 0.903384 14.2506 0.785551C15.0991 0.667719 15.8895 0.235665 16.7496 0.235665C18.0515 0.235665 18.0515 0.0196388 19.3533 0.0196388C20.6552 0.0196388 20.6552 0.746274 21.957 0.746274C23.2589 0.746274 23.2589 0.706996 24.5607 0.706996C25.8625 0.706996 25.8625 0.549886 27.1644 0.549886C28.4662 0.549886 28.4662 0.098194 29.7681 0.098194C31.0699 0.098194 31.0699 0.677538 32.3718 0.677538C33.6736 0.677538 33.6736 0.795371 34.9755 0.795371C36.2773 0.795371 36.2773 0.412415 37.5791 0.412415C38.881 0.412415 38.881 0.147291 40.1828 0.147291C41.4847 0.147291 41.4847 0.235665 42.7865 0.235665C44.0884 0.235665 44.0884 0.795371 45.3902 0.795371C46.6921 0.795371 46.6921 0.942662 47.9939 0.942662C49.2958 0.942662 49.2958 0.441873 50.5976 0.441873C51.8994 0.441873 51.8994 0.549886 53.2013 0.549886C54.5031 0.549886 54.5031 0.618622 55.805 0.618622C57.1068 0.618622 57.1068 0.363318 58.4087 0.363318C59.7105 0.363318 59.7105 0.893565 61.0124 0.893565C62.3142 0.893565 62.3142 0.510608 63.616 0.510608C64.9179 0.510608 64.9179 0.589164 66.2197 0.589164C67.5216 0.589164 67.5216 0.500789 68.8234 0.500789C70.1253 0.500789 70.1253 0.0785551 71.4271 0.0785551C72.729 0.0785551 72.729 0.549886 74.0308 0.549886C75.3327 0.549886 75.3327 0.756093 76.6345 0.756093C77.9363 0.756093 77.9363 0.697177 79.2382 0.697177C80.54 0.697177 80.54 0.108013 81.8419 0.108013C83.1437 0.108013 83.1437 0.471331 84.4456 0.471331C85.7474 0.471331 85.7474 0.638261 87.0493 0.638261C88.3511 0.638261 88.3511 0.127652 89.6529 0.127652C90.9548 0.127652 90.9548 0.0589164 92.2566 0.0589164C93.5585 0.0589164 93.5585 0.540067 94.8603 0.540067C96.1622 0.540067 96.1622 0.343679 97.464 0.343679C98.7659 0.343679 98.7659 0.854287 100.068 0.854287C101.37 0.854287 101.37 0.304401 102.671 0.304401C103.973 0.304401 103.973 0.0589164 105.275 0.0589164C106.577 0.0589164 106.577 0.598983 107.879 0.598983C109.181 0.598983 109.181 0.108013 110.482 0.108013C111.784 0.108013 111.784 0.923023 113.086 0.923023C114.388 0.923023 114.388 0.48115 115.69 0.48115C116.992 0.48115 116.992 0.304401 118.294 0.304401C119.595 0.304401 119.595 0.795371 120.897 0.795371C122.199 0.795371 122.199 0.108013 123.501 0.108013C124.803 0.108013 124.803 0.844468 126.105 0.844468C127.406 0.844468 127.406 0.873926 128.708 0.873926C130.01 0.873926 130.01 0.392776 131.312 0.392776C132.614 0.392776 132.614 0.49097 133.916 0.49097C135.218 0.49097 135.218 0.15711 136.519 0.15711C137.821 0.15711 137.821 0.176749 139.123 0.176749C140.425 0.176749 140.425 0.952481 141.727 0.952481C143.029 0.952481 143.029 0.520428 144.33 0.520428C145.632 0.520428 145.632 0.677538 146.934 0.677538C148.236 0.677538 148.236 1.00158 149.538 1.00158C150.84 1.00158 150.84 0.225846 152.141 0.225846C153.443 0.225846 153.443 0.0196388 154.745 0.0196388C156.047 0.0196388 156.047 0.382956 157.349 0.382956C158.651 0.382956 158.651 0.16693 159.953 0.16693C161.254 0.16693 161.254 0.510608 162.556 0.510608C163.858 0.510608 163.858 0.382956 165.16 0.382956C166.462 0.382956 166.462 0.363318 167.764 0.363318C169.066 0.363318 169.065 0 170.367 0C171.669 0 171.669 0.333859 172.971 0.333859C174.273 0.333859 174.273 0.706996 175.586 0.706996C176.9 0.706996 176.888 0.402595 178.19 0.402595C179.492 0.402595 179.492 0.903384 180.794 0.903384C182.096 0.903384 182.096 0.32404 183.397 0.32404C184.699 0.32404 184.699 0.265124 186.001 0.265124C187.303 0.265124 187.303 0.235665 188.605 0.235665C189.907 0.235665 189.907 0.873926 191.208 0.873926C192.51 0.873926 192.51 0.176749 193.812 0.176749C195.114 0.176749 195.114 0.0196388 196.428 0.0196388C197.741 0.0196388 197.729 0.893565 199.031 0.893565C200.333 0.893565 200.333 0.942662 201.635 0.942662C202.937 0.942662 202.937 0.864107 204.239 0.864107C205.54 0.864107 205.54 0.81501 206.842 0.81501C208.144 0.81501 208.144 0.15711 209.458 0.15711C210.771 0.15711 210.759 0.0392776 212.061 0.0392776C213.363 0.0392776 213.363 0.893565 214.665 0.893565C215.967 0.893565 215.967 0.618622 217.269 0.618622C218.57 0.618622 218.57 0.0294582 219.872 0.0294582C221.174 0.0294582 221.174 0.48115 222.488 0.48115C223.801 0.48115 223.789 0.628441 225.091 0.628441C226.393 0.628441 226.393 0 227.695 0C228.997 0 228.997 0.0392776 230.31 0.0392776C231.624 0.0392776 231.612 0.098194 232.926 0.098194C234.239 0.098194 234.227 0.235665 235.529 0.235665C236.831 0.235665 236.831 0.15711 238.145 0.15711C239.458 0.15711 239.446 0.549886 240.76 0.549886C242.073 0.549886 242.062 0.80519 243.364 0.80519C244.665 0.80519 244.665 0.245485 245.967 0.245485C247.269 0.245485 247.269 0.795371 248.571 0.795371C249.873 0.795371 249.873 0.716816 251.186 0.716816C252.5 0.716816 252.488 0.0687357 253.802 0.0687357C255.115 0.0687357 255.103 0.530247 256.405 0.530247C257.707 0.530247 257.707 0.952481 259.009 0.952481C260.311 0.952481 260.311 0.176749 261.624 0.176749C262.938 0.176749 262.926 0.245485 264.228 0.245485C265.53 0.245485 265.53 0.569525 266.843 0.569525C268.157 0.569525 268.145 0.687358 269.459 0.687358C270.772 0.687358 270.761 0.942662 272.074 0.942662C273.387 0.942662 273.376 0.363318 274.689 0.363318C276.003 0.363318 275.991 0.049097 277.305 0.049097C278.618 0.049097 278.606 0.49097 279.92 0.49097C281.233 0.49097 281.222 0.520428 282.524 0.520428C283.825 0.520428 283.825 0.765913 285.139 0.765913C286.452 0.765913 286.441 0.16693 287.754 0.16693C289.068 0.16693 289.068 0.176749 290.37 0.176749C291.671 0.176749 291.683 0.176749 292.985 0.176749C294.287 0.176749 294.298 0.314221 295.6 0.314221C296.902 0.314221 296.914 0.864107 298.216 0.864107C299.076 0.864107 299.843 1.02122 300.656 1.12923C301.47 1.23724 302.412 0.942663 303.214 1.15869C304.016 1.37471 304.783 1.69876 305.538 2.02279C306.294 2.34683 306.991 2.73961 307.677 3.16184C308.363 3.58408 309.049 3.9965 309.653 4.5071C310.258 5.0177 310.734 5.60688 311.234 6.18622C311.734 6.76556 312.059 7.41365 312.443 8.0519C312.826 8.69016 312.826 9.40698 313.082 10.0943C313.338 10.7817 314.012 11.3316 314.151 12.0386C314.291 12.7456 314.21 13.4428 314.21 14.1694C314.21 15.2299 314.744 15.2299 314.744 16.3002C314.744 17.3705 314.64 17.3607 314.64 18.431C314.64 19.5013 314.779 19.5013 314.779 20.5618C314.779 21.6223 315 21.6223 315 22.6926C315 23.7629 313.861 23.7629 313.861 24.8234C313.861 25.8839 314.105 25.8937 314.105 26.9542C314.105 28.0147 314.43 28.0147 314.43 29.085C314.43 30.1553 314.268 30.1455 314.268 31.2159C314.268 32.2862 314.349 32.2862 314.349 33.3467C314.349 34.4071 313.838 34.417 313.838 35.4775C313.838 36.538 313.791 36.5478 313.791 37.6083C313.791 38.6688 314.872 38.6786 314.872 39.7489C314.872 40.8192 314.361 40.8192 314.361 41.8895C314.361 42.6162 314.663 43.3723 314.535 44.0694C314.407 44.7666 314.024 45.4834 313.756 46.1511C313.489 46.8189 312.478 47.2313 312.106 47.8597C311.734 48.4882 311.315 49.0381 310.816 49.6076C310.316 50.1771 309.827 50.6681 309.235 51.1787C308.642 51.6893 308.712 52.8578 308.026 53.28C307.34 53.7023 306.55 54.1049 305.794 54.4289C305.039 54.7529 303.853 54.1932 303.051 54.4191C302.249 54.6449 301.528 54.861 300.691 54.9788C299.854 55.0966 299.099 55.2537 298.239 55.2537L298.169 55.2144Z"/>
</mask>
<path d="M298.169 55.2144C296.867 55.2144 296.867 55.3912 295.565 55.3912C294.263 55.3912 294.263 55.401 292.962 55.401C291.66 55.401 291.66 55.1359 290.358 55.1359C289.056 55.1359 289.056 55.185 287.754 55.185C286.452 55.185 286.452 55.1163 285.151 55.1163C283.849 55.1163 283.849 55.2439 282.547 55.2439C281.245 55.2439 281.245 54.969 279.943 54.969C278.641 54.969 278.641 55.9411 277.339 55.9411C276.038 55.9411 276.038 55.892 274.736 55.892C273.434 55.892 273.434 55.0672 272.132 55.0672C270.83 55.0672 270.83 55.0868 269.528 55.0868C268.227 55.0868 268.227 55.2341 266.925 55.2341C265.623 55.2341 265.623 55.7545 264.321 55.7545C263.019 55.7545 263.019 55.1555 261.717 55.1555C260.416 55.1555 260.415 55.5778 259.114 55.5778C257.812 55.5778 257.812 55.3912 256.51 55.3912C255.208 55.3912 255.208 55.3126 253.906 55.3126C252.604 55.3126 252.604 55.5385 251.303 55.5385C250.001 55.5385 250.001 55.7349 248.699 55.7349C247.397 55.7349 247.397 55.9018 246.095 55.9018C244.793 55.9018 244.793 55.4207 243.492 55.4207C242.19 55.4207 242.19 54.969 240.888 54.969C239.586 54.969 239.586 55.6367 238.284 55.6367C236.982 55.6367 236.982 55.0377 235.68 55.0377C234.379 55.0377 234.379 55.2537 233.077 55.2537C231.775 55.2537 231.775 55.7349 230.473 55.7349C229.171 55.7349 229.171 55.892 227.869 55.892C226.568 55.892 226.568 55.1064 225.266 55.1064C223.964 55.1064 223.964 55.3323 222.662 55.3323C221.36 55.3323 221.36 55.4403 220.058 55.4403C218.756 55.4403 218.756 55.1163 217.455 55.1163C216.153 55.1163 216.153 55.1359 214.851 55.1359C213.549 55.1359 213.549 55.9705 212.247 55.9705C210.945 55.9705 210.945 55.2144 209.644 55.2144C208.342 55.2144 208.342 55.8822 207.04 55.8822C205.738 55.8822 205.738 55.1653 204.436 55.1653C203.134 55.1653 203.134 55.6661 201.832 55.6661C200.531 55.6661 200.531 55.9411 199.229 55.9411C197.927 55.9411 197.927 55.4796 196.625 55.4796C195.323 55.4796 195.323 55.9804 194.021 55.9804C192.72 55.9804 192.72 55.8625 191.418 55.8625C190.116 55.8625 190.116 55.1752 188.814 55.1752C187.512 55.1752 187.512 55.5581 186.21 55.5581C184.908 55.5581 184.908 55.1555 183.607 55.1555C182.305 55.1555 182.305 55.3617 181.003 55.3617C179.701 55.3617 179.701 55.4108 178.399 55.4108C177.097 55.4108 177.097 55.2832 175.796 55.2832C174.494 55.2832 174.494 55.0181 173.192 55.0181C171.89 55.0181 171.89 55.7349 170.588 55.7349C169.286 55.7349 169.286 55.1163 167.985 55.1163C166.683 55.1163 166.683 55.892 165.381 55.892C164.079 55.892 164.079 55.9509 162.777 55.9509C161.475 55.9509 161.475 55.6465 160.173 55.6465C158.872 55.6465 158.872 55.4698 157.57 55.4698C156.268 55.4698 156.268 55.8527 154.966 55.8527C153.664 55.8527 153.664 55.7447 152.362 55.7447C151.061 55.7447 151.061 55.3716 149.759 55.3716C148.457 55.3716 148.457 55.0966 147.155 55.0966C145.853 55.0966 145.853 55.0966 144.551 55.0966C143.249 55.0966 143.249 55.0181 141.948 55.0181C140.646 55.0181 140.646 55.9116 139.332 55.9116C138.019 55.9116 138.03 55.3617 136.729 55.3617C135.427 55.3617 135.427 55.0377 134.125 55.0377C132.823 55.0377 132.823 55.5778 131.521 55.5778C130.219 55.5778 130.219 55.9411 128.918 55.9411C127.616 55.9411 127.616 55.8723 126.314 55.8723C125.012 55.8723 125.012 55.7938 123.71 55.7938C122.408 55.7938 122.408 55.9313 121.106 55.9313C119.805 55.9313 119.805 55.3519 118.491 55.3519C117.178 55.3519 117.189 55.2832 115.887 55.2832C114.586 55.2832 114.586 55.293 113.284 55.293C111.982 55.293 111.982 55.0181 110.68 55.0181C109.378 55.0181 109.378 55.7742 108.076 55.7742C106.775 55.7742 106.775 55.0377 105.461 55.0377C104.148 55.0377 104.159 54.9886 102.857 54.9886C101.556 54.9886 101.556 55.9804 100.254 55.9804C98.9518 55.9804 98.9518 55.4698 97.65 55.4698C96.3482 55.4698 96.3481 55.8429 95.0463 55.8429C93.7445 55.8429 93.7445 55.5876 92.431 55.5876C91.1175 55.5876 91.1291 55.3323 89.8273 55.3323C88.5255 55.3323 88.5255 55.1948 87.2236 55.1948C85.9218 55.1948 85.9218 56 84.6083 56C83.2948 56 83.3064 55.9018 81.993 55.9018C80.6795 55.9018 80.6911 55.0082 79.3893 55.0082C78.0875 55.0082 78.0875 55.6563 76.774 55.6563C75.4605 55.6563 75.4721 55.3323 74.1587 55.3323C72.8452 55.3323 72.8568 55.4992 71.555 55.4992C70.2531 55.4992 70.2531 55.2243 68.9513 55.2243C67.6494 55.2243 67.6494 55.6563 66.3476 55.6563C65.0458 55.6563 65.0457 55.7643 63.7323 55.7643C62.4188 55.7643 62.4304 55.9018 61.117 55.9018C59.8035 55.9018 59.8151 55.8527 58.5133 55.8527C57.2114 55.8527 57.2114 55.892 55.9096 55.892C54.6077 55.892 54.6077 55.7349 53.2943 55.7349C51.9808 55.7349 51.9924 55.8232 50.6906 55.8232C49.3887 55.8232 49.3887 55.1555 48.0753 55.1555C46.7618 55.1555 46.7734 55.3617 45.46 55.3617C44.1465 55.3617 44.1581 55.3028 42.8446 55.3028C41.5312 55.3028 41.5428 55.4796 40.2293 55.4796C38.9159 55.4796 38.9275 55.5188 37.614 55.5188C36.3006 55.5188 36.3122 55.8331 34.9987 55.8331C33.6852 55.8331 33.6969 55.0279 32.395 55.0279C31.0932 55.0279 31.0932 55.617 29.7797 55.617C28.4662 55.617 28.4779 55.401 27.1644 55.401C25.8509 55.401 25.8509 55.0181 24.5491 55.0181C23.2472 55.0181 23.2356 55.0573 21.9338 55.0573C20.6319 55.0573 20.6203 54.9984 19.3184 54.9984C18.0166 54.9984 18.005 55.3912 16.7031 55.3912C15.843 55.3912 14.9712 55.5385 14.1576 55.4305C13.3439 55.3225 12.4954 55.0672 11.705 54.8511C10.9146 54.6351 10.3334 53.9674 9.58948 53.6433C8.84557 53.3193 8.06679 53.0935 7.39262 52.6712C6.71845 52.249 5.60258 52.2293 5.00978 51.7187C4.41697 51.2081 3.66144 50.727 3.16162 50.1476C2.66181 49.5683 2.78967 48.6256 2.40609 47.9874C2.02251 47.3491 1.13911 46.8581 0.883395 46.1708C0.627675 45.4834 1.22048 44.6291 1.09262 43.9123C0.96476 43.1955 0.650922 42.5474 0.650922 41.8208C0.650922 40.7603 1.081 40.7603 1.081 39.69C1.081 38.6197 0.488192 38.6295 0.488192 37.5592C0.488192 36.4889 0 36.4889 0 35.4284C0 34.3679 0.732288 34.3679 0.732288 33.2976C0.732288 32.2273 0.906642 32.2272 0.906642 31.1668C0.906642 30.1063 0.790406 30.0964 0.790406 29.0359C0.790406 27.9755 0.499815 27.9754 0.499815 26.9051C0.499815 25.8348 0.8369 25.8446 0.8369 24.7743C0.8369 23.704 0.0813653 23.704 0.0813653 22.6435C0.0813653 21.583 0.953136 21.5732 0.953136 20.5127C0.953136 19.4522 0.871771 19.4424 0.871771 18.3819C0.871771 17.3214 0.639299 17.3116 0.639299 16.2413C0.639299 15.171 0.29059 15.171 0.29059 14.1006C0.29059 13.374 0.999631 12.7063 1.13911 12.0091C1.2786 11.3119 1.7203 10.713 1.97601 10.0452C2.23173 9.37752 2.33635 8.69998 2.71993 8.06172C3.10351 7.42347 3.47546 6.83429 3.97528 6.26477C4.47509 5.69525 4.49834 4.7624 5.09114 4.26162C5.68395 3.76083 6.92767 3.90812 7.61347 3.48588C8.29926 3.06365 8.71771 2.36647 9.47325 2.04243C10.2288 1.7184 11.0424 1.60056 11.8561 1.38453C12.6697 1.16851 13.402 0.903384 14.2506 0.785551C15.0991 0.667719 15.8895 0.235665 16.7496 0.235665C18.0515 0.235665 18.0515 0.0196388 19.3533 0.0196388C20.6552 0.0196388 20.6552 0.746274 21.957 0.746274C23.2589 0.746274 23.2589 0.706996 24.5607 0.706996C25.8625 0.706996 25.8625 0.549886 27.1644 0.549886C28.4662 0.549886 28.4662 0.098194 29.7681 0.098194C31.0699 0.098194 31.0699 0.677538 32.3718 0.677538C33.6736 0.677538 33.6736 0.795371 34.9755 0.795371C36.2773 0.795371 36.2773 0.412415 37.5791 0.412415C38.881 0.412415 38.881 0.147291 40.1828 0.147291C41.4847 0.147291 41.4847 0.235665 42.7865 0.235665C44.0884 0.235665 44.0884 0.795371 45.3902 0.795371C46.6921 0.795371 46.6921 0.942662 47.9939 0.942662C49.2958 0.942662 49.2958 0.441873 50.5976 0.441873C51.8994 0.441873 51.8994 0.549886 53.2013 0.549886C54.5031 0.549886 54.5031 0.618622 55.805 0.618622C57.1068 0.618622 57.1068 0.363318 58.4087 0.363318C59.7105 0.363318 59.7105 0.893565 61.0124 0.893565C62.3142 0.893565 62.3142 0.510608 63.616 0.510608C64.9179 0.510608 64.9179 0.589164 66.2197 0.589164C67.5216 0.589164 67.5216 0.500789 68.8234 0.500789C70.1253 0.500789 70.1253 0.0785551 71.4271 0.0785551C72.729 0.0785551 72.729 0.549886 74.0308 0.549886C75.3327 0.549886 75.3327 0.756093 76.6345 0.756093C77.9363 0.756093 77.9363 0.697177 79.2382 0.697177C80.54 0.697177 80.54 0.108013 81.8419 0.108013C83.1437 0.108013 83.1437 0.471331 84.4456 0.471331C85.7474 0.471331 85.7474 0.638261 87.0493 0.638261C88.3511 0.638261 88.3511 0.127652 89.6529 0.127652C90.9548 0.127652 90.9548 0.0589164 92.2566 0.0589164C93.5585 0.0589164 93.5585 0.540067 94.8603 0.540067C96.1622 0.540067 96.1622 0.343679 97.464 0.343679C98.7659 0.343679 98.7659 0.854287 100.068 0.854287C101.37 0.854287 101.37 0.304401 102.671 0.304401C103.973 0.304401 103.973 0.0589164 105.275 0.0589164C106.577 0.0589164 106.577 0.598983 107.879 0.598983C109.181 0.598983 109.181 0.108013 110.482 0.108013C111.784 0.108013 111.784 0.923023 113.086 0.923023C114.388 0.923023 114.388 0.48115 115.69 0.48115C116.992 0.48115 116.992 0.304401 118.294 0.304401C119.595 0.304401 119.595 0.795371 120.897 0.795371C122.199 0.795371 122.199 0.108013 123.501 0.108013C124.803 0.108013 124.803 0.844468 126.105 0.844468C127.406 0.844468 127.406 0.873926 128.708 0.873926C130.01 0.873926 130.01 0.392776 131.312 0.392776C132.614 0.392776 132.614 0.49097 133.916 0.49097C135.218 0.49097 135.218 0.15711 136.519 0.15711C137.821 0.15711 137.821 0.176749 139.123 0.176749C140.425 0.176749 140.425 0.952481 141.727 0.952481C143.029 0.952481 143.029 0.520428 144.33 0.520428C145.632 0.520428 145.632 0.677538 146.934 0.677538C148.236 0.677538 148.236 1.00158 149.538 1.00158C150.84 1.00158 150.84 0.225846 152.141 0.225846C153.443 0.225846 153.443 0.0196388 154.745 0.0196388C156.047 0.0196388 156.047 0.382956 157.349 0.382956C158.651 0.382956 158.651 0.16693 159.953 0.16693C161.254 0.16693 161.254 0.510608 162.556 0.510608C163.858 0.510608 163.858 0.382956 165.16 0.382956C166.462 0.382956 166.462 0.363318 167.764 0.363318C169.066 0.363318 169.065 0 170.367 0C171.669 0 171.669 0.333859 172.971 0.333859C174.273 0.333859 174.273 0.706996 175.586 0.706996C176.9 0.706996 176.888 0.402595 178.19 0.402595C179.492 0.402595 179.492 0.903384 180.794 0.903384C182.096 0.903384 182.096 0.32404 183.397 0.32404C184.699 0.32404 184.699 0.265124 186.001 0.265124C187.303 0.265124 187.303 0.235665 188.605 0.235665C189.907 0.235665 189.907 0.873926 191.208 0.873926C192.51 0.873926 192.51 0.176749 193.812 0.176749C195.114 0.176749 195.114 0.0196388 196.428 0.0196388C197.741 0.0196388 197.729 0.893565 199.031 0.893565C200.333 0.893565 200.333 0.942662 201.635 0.942662C202.937 0.942662 202.937 0.864107 204.239 0.864107C205.54 0.864107 205.54 0.81501 206.842 0.81501C208.144 0.81501 208.144 0.15711 209.458 0.15711C210.771 0.15711 210.759 0.0392776 212.061 0.0392776C213.363 0.0392776 213.363 0.893565 214.665 0.893565C215.967 0.893565 215.967 0.618622 217.269 0.618622C218.57 0.618622 218.57 0.0294582 219.872 0.0294582C221.174 0.0294582 221.174 0.48115 222.488 0.48115C223.801 0.48115 223.789 0.628441 225.091 0.628441C226.393 0.628441 226.393 0 227.695 0C228.997 0 228.997 0.0392776 230.31 0.0392776C231.624 0.0392776 231.612 0.098194 232.926 0.098194C234.239 0.098194 234.227 0.235665 235.529 0.235665C236.831 0.235665 236.831 0.15711 238.145 0.15711C239.458 0.15711 239.446 0.549886 240.76 0.549886C242.073 0.549886 242.062 0.80519 243.364 0.80519C244.665 0.80519 244.665 0.245485 245.967 0.245485C247.269 0.245485 247.269 0.795371 248.571 0.795371C249.873 0.795371 249.873 0.716816 251.186 0.716816C252.5 0.716816 252.488 0.0687357 253.802 0.0687357C255.115 0.0687357 255.103 0.530247 256.405 0.530247C257.707 0.530247 257.707 0.952481 259.009 0.952481C260.311 0.952481 260.311 0.176749 261.624 0.176749C262.938 0.176749 262.926 0.245485 264.228 0.245485C265.53 0.245485 265.53 0.569525 266.843 0.569525C268.157 0.569525 268.145 0.687358 269.459 0.687358C270.772 0.687358 270.761 0.942662 272.074 0.942662C273.387 0.942662 273.376 0.363318 274.689 0.363318C276.003 0.363318 275.991 0.049097 277.305 0.049097C278.618 0.049097 278.606 0.49097 279.92 0.49097C281.233 0.49097 281.222 0.520428 282.524 0.520428C283.825 0.520428 283.825 0.765913 285.139 0.765913C286.452 0.765913 286.441 0.16693 287.754 0.16693C289.068 0.16693 289.068 0.176749 290.37 0.176749C291.671 0.176749 291.683 0.176749 292.985 0.176749C294.287 0.176749 294.298 0.314221 295.6 0.314221C296.902 0.314221 296.914 0.864107 298.216 0.864107C299.076 0.864107 299.843 1.02122 300.656 1.12923C301.47 1.23724 302.412 0.942663 303.214 1.15869C304.016 1.37471 304.783 1.69876 305.538 2.02279C306.294 2.34683 306.991 2.73961 307.677 3.16184C308.363 3.58408 309.049 3.9965 309.653 4.5071C310.258 5.0177 310.734 5.60688 311.234 6.18622C311.734 6.76556 312.059 7.41365 312.443 8.0519C312.826 8.69016 312.826 9.40698 313.082 10.0943C313.338 10.7817 314.012 11.3316 314.151 12.0386C314.291 12.7456 314.21 13.4428 314.21 14.1694C314.21 15.2299 314.744 15.2299 314.744 16.3002C314.744 17.3705 314.64 17.3607 314.64 18.431C314.64 19.5013 314.779 19.5013 314.779 20.5618C314.779 21.6223 315 21.6223 315 22.6926C315 23.7629 313.861 23.7629 313.861 24.8234C313.861 25.8839 314.105 25.8937 314.105 26.9542C314.105 28.0147 314.43 28.0147 314.43 29.085C314.43 30.1553 314.268 30.1455 314.268 31.2159C314.268 32.2862 314.349 32.2862 314.349 33.3467C314.349 34.4071 313.838 34.417 313.838 35.4775C313.838 36.538 313.791 36.5478 313.791 37.6083C313.791 38.6688 314.872 38.6786 314.872 39.7489C314.872 40.8192 314.361 40.8192 314.361 41.8895C314.361 42.6162 314.663 43.3723 314.535 44.0694C314.407 44.7666 314.024 45.4834 313.756 46.1511C313.489 46.8189 312.478 47.2313 312.106 47.8597C311.734 48.4882 311.315 49.0381 310.816 49.6076C310.316 50.1771 309.827 50.6681 309.235 51.1787C308.642 51.6893 308.712 52.8578 308.026 53.28C307.34 53.7023 306.55 54.1049 305.794 54.4289C305.039 54.7529 303.853 54.1932 303.051 54.4191C302.249 54.6449 301.528 54.861 300.691 54.9788C299.854 55.0966 299.099 55.2537 298.239 55.2537L298.169 55.2144Z" fill="#9E4AFF" stroke="black" stroke-width="2" stroke-miterlimit="10" mask="url(#path-1-inside-1_572_2780)"/>
<path d="M87.9848 21.426C88.5128 21.426 88.7768 22.002 88.7768 23.154C88.8248 24.75 88.8488 26.142 88.8488 27.33V29.346C90.2528 29.346 92.1248 29.202 94.4648 28.914C94.6448 28.914 94.8608 29.082 95.1128 29.418V29.778C95.1128 30.402 94.1528 30.714 92.2328 30.714C91.2248 30.81 90.0488 30.882 88.7048 30.93C87.7928 30.93 87.3368 30.474 87.3368 29.562C87.2888 28.506 87.2408 26.01 87.1928 22.074C87.3488 21.642 87.6128 21.426 87.9848 21.426ZM99.5948 20.31C99.9788 20.49 100.171 20.73 100.171 21.03C100.171 22.134 100.195 24.054 100.243 26.79C100.243 26.982 100.219 27.414 100.171 28.086C100.267 29.658 100.315 31.602 100.315 33.918C100.315 34.29 100.051 34.554 99.5228 34.71C99.0788 34.71 98.8148 34.374 98.7308 33.702V33.342C98.7308 31.95 98.7068 30.03 98.6588 27.582H97.1468V31.47C97.1468 31.914 97.1708 32.538 97.2188 33.342C97.0268 33.822 96.7628 34.062 96.4268 34.062C95.8988 34.062 95.6348 33.558 95.6348 32.55C95.5868 32.034 95.5628 31.218 95.5628 30.102C95.5628 29.574 95.5868 29.238 95.6348 29.094C95.5868 28.446 95.5628 27.894 95.5628 27.438V21.462C95.5628 20.838 95.8268 20.526 96.3548 20.526C96.8828 20.61 97.1468 20.874 97.1468 21.318V25.998H97.2188C97.3508 25.998 97.8308 26.022 98.6588 26.07V25.782C98.6588 24.786 98.6348 23.274 98.5868 21.246C98.5868 20.646 98.9228 20.334 99.5948 20.31ZM113.123 20.922H113.267C113.687 20.922 113.927 21.234 113.987 21.858V22.506C114.143 22.506 114.551 22.53 115.211 22.578C115.391 22.578 116.063 22.554 117.227 22.506C118.091 22.506 118.523 22.746 118.523 23.226V23.442C118.523 23.874 118.259 24.09 117.731 24.09H113.987V24.162C113.987 25.122 114.707 26.13 116.147 27.186C117.923 27.882 118.811 28.362 118.811 28.626C118.811 28.65 118.835 28.746 118.883 28.914C118.763 29.394 118.499 29.634 118.091 29.634C116.471 29.202 115.151 28.506 114.131 27.546C113.531 27.006 113.219 26.622 113.195 26.394C112.067 27.906 110.411 28.986 108.227 29.634C107.831 29.634 107.591 29.346 107.507 28.77C107.507 28.398 108.275 27.918 109.811 27.33C111.491 26.226 112.331 25.194 112.331 24.234V24.09C112.019 24.09 110.771 24.114 108.587 24.162C108.239 24.162 108.023 23.874 107.939 23.298V23.226C108.131 22.794 108.467 22.578 108.947 22.578H109.739C110.303 22.578 111.191 22.554 112.403 22.506V21.786C112.451 21.21 112.691 20.922 113.123 20.922ZM113.231 28.86C113.711 28.98 113.951 29.244 113.951 29.652L113.969 32.262H117.209C117.485 32.262 117.869 32.286 118.361 32.334C118.445 32.286 118.565 32.262 118.721 32.262C119.201 32.394 119.441 32.634 119.441 32.982V33.126C119.333 33.606 119.093 33.846 118.721 33.846C113.081 33.798 109.409 33.774 107.705 33.774C107.033 33.774 106.697 33.534 106.697 33.054V32.91C106.697 32.526 106.961 32.286 107.489 32.19H112.385C112.385 32.094 112.391 31.638 112.403 30.822C112.379 30.186 112.367 29.796 112.367 29.652C112.367 29.256 112.655 28.992 113.231 28.86ZM130.978 19.986C131.518 19.986 131.878 20.418 132.058 21.282C131.914 23.874 131.842 25.434 131.842 25.962C131.842 26.358 131.578 26.598 131.05 26.682C130.666 26.682 130.426 26.418 130.33 25.89V24.306C126.754 24.354 124.402 24.402 123.274 24.45C122.866 24.45 122.602 24.162 122.482 23.586C122.482 23.25 122.722 23.01 123.202 22.866C124.774 22.818 125.998 22.794 126.874 22.794H130.33C130.426 22.794 130.474 22.746 130.474 22.65V21.57H125.578C125.278 21.57 124.918 21.594 124.498 21.642C123.25 21.642 122.626 21.402 122.626 20.922V20.562C122.794 20.226 123.034 20.058 123.346 20.058C125.242 20.058 127.786 20.034 130.978 19.986ZM127.09 24.594H127.45C127.786 24.786 127.954 25.074 127.954 25.458V26.682H128.53C129.25 26.682 130.426 26.73 132.058 26.826L132.778 26.754C133.21 26.898 133.426 27.138 133.426 27.474V27.618C133.318 28.098 133.078 28.338 132.706 28.338C132.238 28.338 129.742 28.29 125.218 28.194C123.298 28.242 122.194 28.266 121.906 28.266C121.186 28.182 120.826 27.918 120.826 27.474V27.402C120.922 26.922 121.162 26.682 121.546 26.682C122.422 26.682 124.054 26.658 126.442 26.61L126.37 26.466V25.89C126.37 25.026 126.61 24.594 127.09 24.594ZM123.04 29.13H127.864C130.36 29.13 131.608 29.25 131.608 29.49C131.752 29.862 131.824 30.462 131.824 31.29C131.824 32.442 131.32 33.018 130.312 33.018C129.136 33.066 126.976 33.114 123.832 33.162V33.99H127.072C127.912 33.99 128.776 34.014 129.664 34.062C129.88 34.014 130.408 33.99 131.248 33.99C131.704 33.99 131.944 34.302 131.968 34.926C131.824 35.358 131.512 35.574 131.032 35.574H123.184C122.56 35.466 122.248 35.226 122.248 34.854L122.32 34.35V34.206C122.32 33.978 122.296 33.678 122.248 33.306C122.248 32.154 122.656 31.578 123.472 31.578C123.664 31.578 123.76 31.602 123.76 31.65C123.808 31.65 124 31.626 124.336 31.578C127.384 31.53 129.184 31.506 129.736 31.506L130.24 31.434V30.714C128.02 30.666 126.292 30.642 125.056 30.642H123.256C123.148 30.642 123.052 30.666 122.968 30.714C122.644 30.714 122.38 30.522 122.176 30.138V29.85C122.176 29.418 122.464 29.178 123.04 29.13ZM139.999 21.21C140.719 21.342 141.079 21.678 141.079 22.218C141.079 24.33 140.863 25.386 140.431 25.386C140.431 25.494 140.239 25.59 139.855 25.674C138.439 25.722 137.287 25.746 136.399 25.746V27.15H136.543C137.503 27.15 139.009 27.132 141.061 27.096C141.445 27.3 141.637 27.54 141.637 27.816C141.637 28.392 141.013 28.68 139.765 28.68C138.577 28.716 137.263 28.734 135.823 28.734C135.199 28.614 134.887 28.35 134.887 27.942C134.839 26.37 134.815 25.302 134.815 24.738C134.959 24.354 135.247 24.162 135.679 24.162H138.343C138.583 24.162 138.943 24.138 139.423 24.09V24.018C139.471 23.274 139.495 22.866 139.495 22.794H139.423C138.895 22.842 138.439 22.866 138.055 22.866H135.751C135.175 22.818 134.887 22.578 134.887 22.146V22.002C134.887 21.57 135.175 21.33 135.751 21.282H138.991C139.255 21.282 139.591 21.258 139.999 21.21ZM144.841 20.418H144.985C145.405 20.418 145.645 20.73 145.705 21.354V23.37C145.705 24.57 145.729 26.274 145.777 28.482C145.693 28.698 145.525 28.89 145.273 29.058H144.769C144.337 29.058 144.121 27.954 144.121 25.746V24.45L144.193 24.018C144.145 23.706 144.121 23.394 144.121 23.082V21.282C144.169 20.706 144.409 20.418 144.841 20.418ZM140.971 29.454C141.463 29.454 141.775 29.904 141.907 30.804C142.375 32.076 143.479 33.126 145.219 33.954C145.987 34.062 146.371 34.386 146.371 34.926C146.251 35.43 145.987 35.682 145.579 35.682C144.607 35.682 143.263 34.878 141.547 33.27C141.163 32.79 140.971 32.49 140.971 32.37H140.899C140.131 33.726 138.715 34.806 136.651 35.61C136.579 35.658 136.435 35.682 136.219 35.682C135.895 35.682 135.679 35.43 135.571 34.926V34.854C135.571 34.386 136.123 33.984 137.227 33.648C138.763 32.676 139.699 31.704 140.035 30.732C140.203 29.88 140.515 29.454 140.971 29.454ZM156.931 21.012C157.603 21.012 157.939 21.42 157.939 22.236C157.939 23.244 158.659 24.516 160.099 26.052C160.891 26.688 161.287 27.168 161.287 27.492V27.636C161.227 28.116 160.987 28.356 160.567 28.356H160.495C159.115 27.588 157.975 26.316 157.075 24.54H156.931C156.019 26.508 154.939 27.792 153.691 28.392H153.403C153.043 28.392 152.827 28.152 152.755 27.672C152.755 27.348 153.211 26.808 154.123 26.052C155.107 25.068 155.851 23.484 156.355 21.3C156.511 21.18 156.703 21.084 156.931 21.012ZM163.267 20.4C163.567 20.4 163.807 20.616 163.987 21.048C164.035 22.224 164.059 23.16 164.059 23.856V23.928H165.643C166.111 23.928 166.375 24.216 166.435 24.792C166.267 25.224 166.027 25.44 165.715 25.44H163.987V25.512C163.987 25.8 164.011 25.944 164.059 25.944L163.987 26.664V28.176C163.987 28.284 164.011 28.38 164.059 28.464C163.927 29.04 163.639 29.328 163.195 29.328C162.715 29.196 162.475 28.932 162.475 28.536V22.992C162.475 22.512 162.451 21.936 162.403 21.264C162.535 20.688 162.823 20.4 163.267 20.4ZM159.847 29.31C162.007 29.31 163.495 30.024 164.311 31.452C164.503 31.944 164.599 32.43 164.599 32.91C164.599 34.65 163.303 35.778 160.711 36.294H160.063C157.327 36.294 155.623 35.574 154.951 34.134C154.807 33.75 154.735 33.396 154.735 33.072V32.838C154.735 31.338 155.551 30.288 157.183 29.688C157.795 29.436 158.683 29.31 159.847 29.31ZM156.247 33.072C156.559 34.092 157.639 34.602 159.487 34.602H160.567C161.695 34.602 162.511 34.092 163.015 33.072V32.766C163.015 31.746 162.007 31.158 159.991 31.002H159.775C157.423 31.002 156.247 31.692 156.247 33.072ZM170.641 21.84C171.037 21.84 171.925 21.864 173.305 21.912C173.953 21.864 174.505 21.84 174.961 21.84C175.585 21.96 175.897 22.224 175.897 22.632C175.801 23.16 175.537 23.424 175.105 23.424H172.657L172.585 24.072C172.585 26.472 173.761 28.68 176.113 30.696C176.113 30.852 176.137 30.972 176.185 31.056C176.053 31.536 175.813 31.776 175.465 31.776H175.321C174.133 31.308 173.005 30.012 171.937 27.888L170.857 29.904C169.969 31.248 169.249 31.92 168.697 31.92H168.481C168.049 31.86 167.833 31.644 167.833 31.272V31.128C167.833 30.864 168.265 30.408 169.129 29.76C170.329 28.152 170.929 26.04 170.929 23.424H169.633C169.369 23.424 169.033 23.448 168.625 23.496C168.145 23.364 167.905 23.1 167.905 22.704C167.905 22.128 168.553 21.84 169.849 21.84H170.641ZM178.381 20.184C178.717 20.184 178.957 20.4 179.101 20.832C179.101 21.096 179.077 21.36 179.029 21.624C179.077 22.86 179.101 23.916 179.101 24.792V25.728H181.117C181.453 25.896 181.621 26.136 181.621 26.448C181.621 27.024 181.213 27.312 180.397 27.312H179.101V31.416C179.101 32.04 179.125 32.856 179.173 33.864C179.041 34.344 178.801 34.584 178.453 34.584H178.309C177.829 34.488 177.589 34.248 177.589 33.864C177.589 33.132 177.565 32.292 177.517 31.344C177.517 30.792 177.541 29.712 177.589 28.104C177.541 25.392 177.517 23.04 177.517 21.048C177.637 20.472 177.925 20.184 178.381 20.184ZM191.531 21.408C193.067 21.408 193.835 21.624 193.835 22.056C193.883 22.248 193.907 22.416 193.907 22.56C193.907 23.268 193.931 24.084 193.979 25.008C193.979 25.968 193.715 26.448 193.187 26.448H189.515C188.783 26.448 187.655 26.472 186.131 26.52V28.392C188.231 28.344 189.599 28.296 190.235 28.248C190.283 28.248 190.355 28.272 190.451 28.32C190.943 28.272 191.327 28.248 191.603 28.248H193.691C194.219 28.248 194.483 28.56 194.483 29.184C194.303 29.616 193.943 29.832 193.403 29.832C191.939 29.832 189.659 29.856 186.563 29.904L186.059 29.976C185.099 29.892 184.619 29.58 184.619 29.04V25.728C184.703 25.2 184.967 24.936 185.411 24.936H185.555C187.019 24.936 189.299 24.912 192.395 24.864V23.856L192.323 22.992H185.771L185.339 23.064C184.931 23.064 184.667 22.776 184.547 22.2C184.547 21.78 184.859 21.54 185.483 21.48C186.707 21.48 188.723 21.456 191.531 21.408ZM189.551 28.86C190.031 28.98 190.271 29.244 190.271 29.652L190.289 32.262H193.529C193.805 32.262 194.189 32.286 194.681 32.334C194.765 32.286 194.885 32.262 195.041 32.262C195.521 32.394 195.761 32.634 195.761 32.982V33.126C195.653 33.606 195.413 33.846 195.041 33.846C189.401 33.798 185.729 33.774 184.025 33.774C183.353 33.774 183.017 33.534 183.017 33.054V32.91C183.017 32.526 183.281 32.286 183.809 32.19H188.705C188.705 32.094 188.711 31.638 188.723 30.822C188.699 30.186 188.687 29.796 188.687 29.652C188.687 29.256 188.975 28.992 189.551 28.86ZM203.286 21.678H208.182C208.71 21.762 208.974 22.026 208.974 22.47V22.686C208.974 24.222 208.278 26.142 206.886 28.446C205.05 30.702 203.802 31.83 203.142 31.83C202.818 31.746 202.602 31.578 202.494 31.326V30.966C202.494 30.702 203.094 30.078 204.294 29.094C206.022 27.162 206.982 25.434 207.174 23.91C207.27 23.55 207.318 23.334 207.318 23.262H202.926C202.398 23.166 202.134 22.926 202.134 22.542V22.47C202.134 21.942 202.518 21.678 203.286 21.678ZM212.52 20.184C212.856 20.184 213.096 20.4 213.24 20.832C213.24 21.096 213.216 21.36 213.168 21.624C213.216 22.86 213.24 23.916 213.24 24.792V25.728H215.256C215.592 25.896 215.76 26.136 215.76 26.448C215.76 27.024 215.352 27.312 214.536 27.312H213.24V31.416C213.24 32.04 213.264 32.856 213.312 33.864C213.18 34.344 212.94 34.584 212.592 34.584H212.448C211.968 34.488 211.728 34.248 211.728 33.864C211.728 33.132 211.704 32.292 211.656 31.344C211.656 30.792 211.68 29.712 211.728 28.104C211.68 25.392 211.656 23.04 211.656 21.048C211.776 20.472 212.064 20.184 212.52 20.184ZM218.312 21.678H223.208C223.736 21.762 224 22.026 224 22.47V22.686C224 24.222 223.304 26.142 221.912 28.446C220.076 30.702 218.828 31.83 218.168 31.83C217.844 31.746 217.628 31.578 217.52 31.326V30.966C217.52 30.702 218.12 30.078 219.32 29.094C221.048 27.162 222.008 25.434 222.2 23.91C222.296 23.55 222.344 23.334 222.344 23.262H217.952C217.424 23.166 217.16 22.926 217.16 22.542V22.47C217.16 21.942 217.544 21.678 218.312 21.678ZM228.014 20.004C228.494 20.004 228.734 20.532 228.734 21.588C228.782 22.188 228.806 22.5 228.806 22.524C228.71 25.524 228.662 27.54 228.662 28.572C228.71 30.672 228.758 31.824 228.806 32.028C228.758 32.208 228.734 32.424 228.734 32.676V32.82C228.734 33.024 228.758 33.288 228.806 33.612C228.806 34.02 228.518 34.284 227.942 34.404C227.546 34.404 227.306 34.116 227.222 33.54C227.222 32.4 227.174 30.576 227.078 28.068C227.174 25.584 227.222 23.616 227.222 22.164C227.222 22.032 227.198 21.552 227.15 20.724C227.15 20.328 227.438 20.088 228.014 20.004Z" fill="white"/>
</g>
<defs>
<clipPath id="clip0_572_2780">
<rect width="315" height="56" fill="white"/>
</clipPath>
</defs>
</svg>
