<svg width="184" height="45" viewBox="0 0 184 45" fill="none" xmlns="http://www.w3.org/2000/svg">
<rect width="184" height="45" rx="6" fill="#FEE500"/>
<g clip-path="url(#clip0_124_932)">
<path fill-rule="evenodd" clip-rule="evenodd" d="M47 14.1C42.0292 14.1 38 17.2129 38 21.0523C38 23.44 39.5584 25.5449 41.9315 26.7969L40.933 30.4445C40.8448 30.7668 41.2134 31.0237 41.4965 30.8369L45.8733 27.9482C46.2427 27.9838 46.6181 28.0046 47 28.0046C51.9705 28.0046 55.9999 24.8918 55.9999 21.0523C55.9999 17.2129 51.9705 14.1 47 14.1" fill="black"/>
</g>
<path d="M71.2149 16.215C71.1999 20.79 69.1149 23.85 65.2899 25.86L64.2999 24.75C66.2349 23.865 67.8549 22.44 68.7699 20.595L64.8549 21.015L64.6149 19.68L69.2799 19.335C69.4449 18.735 69.5649 18.12 69.6099 17.46H65.2899V16.215H71.2149ZM74.8299 14.82V20.04H76.8999V21.315H74.8299V28.185H73.2849V14.82H74.8299ZM84.1934 16.215C84.1784 20.79 82.0934 23.85 78.2684 25.86L77.2784 24.75C79.2134 23.865 80.8334 22.44 81.7484 20.595L77.8334 21.015L77.5934 19.68L82.2584 19.335C82.4234 18.735 82.5434 18.12 82.5884 17.46H78.2684V16.215H84.1934ZM87.8084 14.82V20.04H89.8784V21.315H87.8084V28.185H86.2634V14.82H87.8084ZM102.482 26.475H90.4069V25.245H95.6569V22.965C93.1819 22.725 91.6069 21.315 91.6069 19.32C91.6069 17.115 93.5419 15.645 96.4369 15.645C99.3769 15.645 101.297 17.115 101.297 19.32C101.297 21.33 99.6919 22.74 97.1869 22.98V25.245H102.482V26.475ZM99.7519 19.335C99.7519 17.91 98.4469 16.905 96.4369 16.905C94.4719 16.905 93.1519 17.91 93.1519 19.335C93.1519 20.745 94.4719 21.705 96.4369 21.705C98.4319 21.705 99.7519 20.745 99.7519 19.335ZM118.231 23.025H114.106V25.26H119.401V26.49H107.326V25.26H112.576V23.025H108.871V18.705H116.311V16.98H108.826V15.75H117.841V19.95H110.416V21.78H118.231V23.025ZM132.379 26.235H120.304V24.99H132.379V26.235ZM130.804 16.26C130.804 19.8 130.579 22.305 130.219 24.06L128.704 23.865C129.034 22.53 129.259 19.635 129.259 17.475H121.699V16.26H130.804ZM144.278 24.51H142.748V14.82H144.278V24.51ZM144.593 27.795H135.443V23.595H136.973V26.565H144.593V27.795ZM140.528 19.08C140.528 20.985 139.148 22.35 137.108 22.35C135.068 22.35 133.658 20.985 133.658 19.095C133.658 17.19 135.053 15.81 137.108 15.81C139.148 15.81 140.528 17.175 140.528 19.08ZM138.998 19.08C138.998 17.91 138.278 17.085 137.108 17.085C135.968 17.085 135.203 17.94 135.203 19.08C135.203 20.175 135.968 21.045 137.108 21.045C138.278 21.045 138.998 20.175 138.998 19.08Z" fill="black" fill-opacity="0.85"/>
<defs>
<clipPath id="clip0_124_932">
<rect width="17.9999" height="18" fill="white" transform="translate(38 13.5)"/>
</clipPath>
</defs>
</svg>
