<svg width="40" height="40" viewBox="0 0 40 40" fill="none" xmlns="http://www.w3.org/2000/svg">
<path d="M36.6667 20C36.6667 22.3055 36.2292 24.4722 35.3542 26.5C34.4792 28.5277 33.2917 30.2916 31.7917 31.7916C30.2917 33.2916 28.5278 34.4791 26.5 35.3541C24.4722 36.2291 22.3056 36.6666 20 36.6666C17.6945 36.6666 15.5278 36.2291 13.5 35.3541C11.4722 34.4791 9.70834 33.2916 8.20834 31.7916C6.70834 30.2916 5.52084 28.5277 4.64584 26.5C3.77084 24.4722 3.33334 22.3055 3.33334 20C3.33334 17.6944 3.77084 15.5277 4.64584 13.5C5.52084 11.4722 6.70834 9.70829 8.20834 8.20829C9.70834 6.70829 11.4722 5.52079 13.5 4.64579C15.5278 3.77079 17.6945 3.33329 20 3.33329C22.3056 3.33329 24.4722 3.77079 26.5 4.64579C28.5278 5.52079 30.2917 6.70829 31.7917 8.20829C33.2917 9.70829 34.4792 11.4722 35.3542 13.5C36.2292 15.5277 36.6667 17.6944 36.6667 20ZM21.6667 19.6666L23.1667 21.1666C23.4722 21.4722 23.8611 21.625 24.3333 21.625C24.8056 21.625 25.1945 21.4722 25.5 21.1666C25.8056 20.8611 25.9583 20.4722 25.9583 20C25.9583 19.5277 25.8056 19.1388 25.5 18.8333L21.1667 14.5C20.8333 14.1666 20.4445 14 20 14C19.5556 14 19.1667 14.1666 18.8333 14.5L14.5 18.8333C14.1945 19.1388 14.0417 19.5277 14.0417 20C14.0417 20.4722 14.1945 20.8611 14.5 21.1666C14.8056 21.4722 15.1945 21.625 15.6667 21.625C16.1389 21.625 16.5278 21.4722 16.8333 21.1666L18.3333 19.6666V25C18.3333 25.4722 18.4931 25.868 18.8125 26.1875C19.132 26.5069 19.5278 26.6666 20 26.6666C20.4722 26.6666 20.8681 26.5069 21.1875 26.1875C21.507 25.868 21.6667 25.4722 21.6667 25L21.6667 19.6666Z" fill="white"/>
<path d="M11.7123 15.74H15.4083C15.577 15.74 15.8116 15.7547 16.1123 15.784C16.1636 15.7547 16.2223 15.74 16.2883 15.74C16.611 15.806 16.7723 15.9527 16.7723 16.18V16.268C16.7723 16.532 16.5963 16.6787 16.2443 16.708H14.4843C14.5136 17.4487 14.5283 18.0353 14.5283 18.468V20.14C14.5283 20.2647 14.543 20.426 14.5723 20.624C14.543 20.6753 14.5283 20.734 14.5283 20.8C14.5576 21.4453 14.5723 21.9293 14.5723 22.252C14.5723 22.7507 14.3963 23 14.0443 23C13.751 22.912 13.6043 22.7653 13.6043 22.56C13.575 19.8613 13.5603 17.9107 13.5603 16.708H12.2843C11.6976 16.708 11.4043 16.5467 11.4043 16.224V16.136C11.4043 15.9673 11.507 15.8353 11.7123 15.74ZM19.5193 15.608H19.6513C21.0226 15.608 21.9173 16.444 22.3353 18.116L22.4673 19.392C22.4673 20.7853 21.9246 21.8853 20.8393 22.692C20.4066 22.8973 19.9226 23 19.3873 23C18.148 23 17.2533 22.2227 16.7033 20.668C16.586 20.316 16.5273 19.92 16.5273 19.48C16.5273 17.9033 16.938 16.8327 17.7593 16.268C18.2213 15.828 18.808 15.608 19.5193 15.608ZM17.4953 19.524V19.568C17.4953 20.7413 17.994 21.548 18.9913 21.988C19.1526 22.0173 19.2846 22.032 19.3873 22.032H19.7393C20.502 22.032 21.0593 21.4013 21.4113 20.14C21.47 19.8467 21.4993 19.5973 21.4993 19.392C21.4993 17.8373 21.03 16.9133 20.0913 16.62L19.6513 16.576H19.2993C18.676 16.576 18.1186 17.06 17.6273 18.028C17.5393 18.4533 17.4953 18.952 17.4953 19.524ZM24.6153 15.696H25.5833C27.402 15.696 28.3113 16.4 28.3113 17.808C28.3113 18.4607 28.0473 19.062 27.5193 19.612C27.0207 19.9933 26.0673 20.184 24.6593 20.184V22.428C24.6227 22.8093 24.476 23 24.2193 23H24.1313C23.8673 23 23.7207 22.824 23.6913 22.472V21.812C23.6913 21.4453 23.6767 21.108 23.6473 20.8L23.6913 20.492C23.662 19.7 23.6473 19.0693 23.6473 18.6C23.6473 18.182 23.662 17.5073 23.6913 16.576C23.662 16.4587 23.6473 16.3413 23.6473 16.224C23.6473 15.872 23.97 15.696 24.6153 15.696ZM24.6153 16.664C24.6153 16.7813 24.63 16.84 24.6593 16.84C24.63 17.1333 24.6153 17.3533 24.6153 17.5V19.216H24.7913C26.434 19.216 27.2553 18.8933 27.2553 18.248C27.314 18.0573 27.3433 17.9253 27.3433 17.852V17.676C27.3433 17.0013 26.8153 16.664 25.7593 16.664H24.6153Z" fill="black"/>
<path d="M11.7123 15.74V15.49H11.6571L11.607 15.5132L11.7123 15.74ZM16.1123 15.784L16.088 16.0328L16.1672 16.0405L16.2363 16.0011L16.1123 15.784ZM16.2883 15.74L16.3384 15.4951L16.3136 15.49H16.2883V15.74ZM16.2443 16.708V16.958H16.2547L16.265 16.9571L16.2443 16.708ZM14.4843 16.708V16.458H14.2242L14.2345 16.7179L14.4843 16.708ZM14.5723 20.624L14.7893 20.748L14.8323 20.6729L14.8196 20.5874L14.5723 20.624ZM14.5283 20.8H14.278L14.2785 20.8114L14.5283 20.8ZM14.0443 23L13.9724 23.2395L14.0076 23.25H14.0443V23ZM13.6043 22.56H13.8543L13.8543 22.5573L13.6043 22.56ZM13.5603 16.708H13.8103V16.458H13.5603V16.708ZM11.7123 15.99H15.4083V15.49H11.7123V15.99ZM15.4083 15.99C15.5649 15.99 15.7902 16.0038 16.088 16.0328L16.1366 15.5352C15.8331 15.5056 15.589 15.49 15.4083 15.49V15.99ZM16.2363 16.0011C16.2456 15.9957 16.2606 15.99 16.2883 15.99V15.49C16.184 15.49 16.0816 15.5136 15.9883 15.5669L16.2363 16.0011ZM16.2382 15.9849C16.3763 16.0132 16.4485 16.053 16.4831 16.0845C16.5092 16.1082 16.5223 16.1334 16.5223 16.18H17.0223C17.0223 15.9993 16.9547 15.8375 16.8195 15.7145C16.6927 15.5993 16.5229 15.5328 16.3384 15.4951L16.2382 15.9849ZM16.5223 16.18V16.268H17.0223V16.18H16.5223ZM16.5223 16.268C16.5223 16.3384 16.5022 16.3656 16.4802 16.3839C16.4478 16.411 16.3742 16.4463 16.2235 16.4589L16.265 16.9571C16.4664 16.9404 16.6568 16.8877 16.8003 16.7681C16.9544 16.6397 17.0223 16.4616 17.0223 16.268H16.5223ZM16.2443 16.458H14.4843V16.958H16.2443V16.458ZM14.2345 16.7179C14.2638 17.4572 14.2783 18.0401 14.2783 18.468H14.7783C14.7783 18.0305 14.7635 17.4401 14.7341 16.6981L14.2345 16.7179ZM14.2783 18.468V20.14H14.7783V18.468H14.2783ZM14.2783 20.14C14.2783 20.282 14.2948 20.4568 14.325 20.6606L14.8196 20.5874C14.7911 20.3952 14.7783 20.2473 14.7783 20.14H14.2783ZM14.3552 20.5C14.3019 20.5933 14.2783 20.6957 14.2783 20.8H14.7783C14.7783 20.7723 14.784 20.7573 14.7893 20.748L14.3552 20.5ZM14.2785 20.8114C14.3078 21.4559 14.3223 21.9352 14.3223 22.252H14.8223C14.8223 21.9234 14.8074 21.4348 14.778 20.7886L14.2785 20.8114ZM14.3223 22.252C14.3223 22.4795 14.2808 22.6055 14.236 22.6688C14.2026 22.7162 14.1534 22.75 14.0443 22.75V23.25C14.2872 23.25 14.502 23.1591 14.6445 22.9572C14.7758 22.7712 14.8223 22.5231 14.8223 22.252H14.3223ZM14.1161 22.7605C13.9916 22.7232 13.9245 22.6807 13.8911 22.6472C13.8641 22.6202 13.8543 22.5956 13.8543 22.56H13.3543C13.3543 22.7297 13.4178 22.8811 13.5375 23.0008C13.6507 23.114 13.8036 23.1888 13.9724 23.2395L14.1161 22.7605ZM13.8543 22.5573C13.8249 19.8587 13.8103 17.9092 13.8103 16.708H13.3103C13.3103 17.9121 13.325 19.864 13.3543 22.5627L13.8543 22.5573ZM13.5603 16.458H12.2843V16.958H13.5603V16.458ZM12.2843 16.458C12.0057 16.458 11.8363 16.4183 11.7448 16.3679C11.7028 16.3449 11.6832 16.3228 11.6731 16.3062C11.6633 16.29 11.6543 16.2655 11.6543 16.224H11.1543C11.1543 16.3438 11.182 16.4605 11.2455 16.5653C11.3087 16.6697 11.3991 16.7485 11.5038 16.8061C11.7056 16.9171 11.9762 16.958 12.2843 16.958V16.458ZM11.6543 16.224V16.136H11.1543V16.224H11.6543ZM11.6543 16.136C11.6543 16.0987 11.6648 16.0377 11.8176 15.9668L11.607 15.5132C11.3491 15.633 11.1543 15.836 11.1543 16.136H11.6543ZM22.3353 18.116L22.584 18.0903L22.5822 18.0726L22.5778 18.0554L22.3353 18.116ZM22.4673 19.392H22.7173V19.3791L22.716 19.3663L22.4673 19.392ZM20.8393 22.692L20.9465 22.9179L20.9687 22.9073L20.9884 22.8926L20.8393 22.692ZM16.7033 20.668L16.4661 20.7471L16.4676 20.7514L16.7033 20.668ZM17.7593 16.268L17.9009 16.474L17.9173 16.4627L17.9317 16.449L17.7593 16.268ZM18.9913 21.988L18.8904 22.2167L18.9175 22.2287L18.9466 22.234L18.9913 21.988ZM21.4113 20.14L21.6521 20.2072L21.6546 20.1982L21.6565 20.189L21.4113 20.14ZM20.0913 16.62L20.1659 16.3814L20.1415 16.3738L20.1162 16.3712L20.0913 16.62ZM19.6513 16.576L19.6762 16.3272L19.6638 16.326H19.6513V16.576ZM17.6273 18.028L17.4044 17.9148L17.3893 17.9446L17.3825 17.9773L17.6273 18.028ZM19.5193 15.858H19.6513V15.358H19.5193V15.858ZM19.6513 15.858C20.2818 15.858 20.7848 16.0482 21.1801 16.4177C21.5806 16.7919 21.8909 17.3691 22.0928 18.1766L22.5778 18.0554C22.3617 17.1909 22.0156 16.5141 21.5215 16.0523C21.0222 15.5858 20.3921 15.358 19.6513 15.358V15.858ZM22.0866 18.1417L22.2186 19.4177L22.716 19.3663L22.584 18.0903L22.0866 18.1417ZM22.2173 19.392C22.2173 20.7091 21.7098 21.7335 20.6902 22.4914L20.9884 22.8926C22.1395 22.0372 22.7173 20.8616 22.7173 19.392H22.2173ZM20.7321 22.4661C20.3367 22.6538 19.89 22.75 19.3873 22.75V23.25C19.9553 23.25 20.4766 23.1409 20.9465 22.9179L20.7321 22.4661ZM19.3873 22.75C18.8249 22.75 18.3504 22.5755 17.9508 22.2283C17.5463 21.8769 17.2049 21.3364 16.939 20.5846L16.4676 20.7514C16.7517 21.5543 17.1326 22.1798 17.6228 22.6057C18.1179 23.0358 18.7104 23.25 19.3873 23.25V22.75ZM16.9405 20.5889C16.8331 20.2667 16.7773 19.898 16.7773 19.48H16.2773C16.2773 19.942 16.3389 20.3653 16.4661 20.7471L16.9405 20.5889ZM16.7773 19.48C16.7773 17.9363 17.1799 16.9697 17.9009 16.474L17.6177 16.062C16.6961 16.6956 16.2773 17.8703 16.2773 19.48H16.7773ZM17.9317 16.449C18.3417 16.0585 18.8642 15.858 19.5193 15.858V15.358C18.7518 15.358 18.1009 15.5975 17.5869 16.087L17.9317 16.449ZM17.2453 19.524V19.568H17.7453V19.524H17.2453ZM17.2453 19.568C17.2453 20.1901 17.3777 20.7332 17.6567 21.1845C17.9364 21.6369 18.3526 21.9795 18.8904 22.2167L19.0922 21.7593C18.6326 21.5565 18.3009 21.2757 18.082 20.9215C17.8622 20.5661 17.7453 20.1192 17.7453 19.568H17.2453ZM18.9466 22.234C19.1151 22.2646 19.2635 22.282 19.3873 22.282V21.782C19.3058 21.782 19.1902 21.7701 19.036 21.742L18.9466 22.234ZM19.3873 22.282H19.7393V21.782H19.3873V22.282ZM19.7393 22.282C20.2002 22.282 20.596 22.0874 20.9166 21.7245C21.2304 21.3695 21.471 20.856 21.6521 20.2072L21.1705 20.0728C20.9996 20.6853 20.7855 21.1178 20.542 21.3935C20.3053 21.6613 20.0411 21.782 19.7393 21.782V22.282ZM21.6565 20.189C21.717 19.8862 21.7493 19.6194 21.7493 19.392H21.2493C21.2493 19.5753 21.2229 19.8072 21.1662 20.091L21.6565 20.189ZM21.7493 19.392C21.7493 18.5934 21.6294 17.93 21.3702 17.4198C21.1069 16.9013 20.7033 16.5493 20.1659 16.3814L20.0167 16.8586C20.418 16.984 20.7184 17.2407 20.9244 17.6462C21.1346 18.06 21.2493 18.636 21.2493 19.392H21.7493ZM20.1162 16.3712L19.6762 16.3272L19.6264 16.8248L20.0664 16.8688L20.1162 16.3712ZM19.6513 16.326H19.2993V16.826H19.6513V16.326ZM19.2993 16.326C18.5264 16.326 17.9054 16.9277 17.4044 17.9148L17.8502 18.1412C18.3318 17.1923 18.8256 16.826 19.2993 16.826V16.326ZM17.3825 17.9773C17.2902 18.4236 17.2453 18.94 17.2453 19.524H17.7453C17.7453 18.964 17.7885 18.483 17.8721 18.0787L17.3825 17.9773ZM27.5193 19.612L27.6712 19.8106L27.6864 19.799L27.6997 19.7851L27.5193 19.612ZM24.6593 20.184V19.934H24.4093V20.184H24.6593ZM24.6593 22.428L24.9082 22.4519L24.9093 22.44V22.428H24.6593ZM23.6913 22.472H23.4413V22.4824L23.4422 22.4928L23.6913 22.472ZM23.6473 20.8L23.3999 20.7646L23.3957 20.7941L23.3985 20.8237L23.6473 20.8ZM23.6913 20.492L23.9388 20.5274L23.942 20.5052L23.9412 20.4827L23.6913 20.492ZM23.6913 16.576L23.9412 16.5839L23.9423 16.5491L23.9339 16.5154L23.6913 16.576ZM24.6153 16.664V16.414H24.3653V16.664H24.6153ZM24.6593 16.84L24.9081 16.8649L24.9356 16.59H24.6593V16.84ZM24.6153 19.216H24.3653V19.466H24.6153V19.216ZM27.2553 18.248L27.0164 18.1745L27.0053 18.2104V18.248H27.2553ZM24.6153 15.946H25.5833V15.446H24.6153V15.946ZM25.5833 15.946C26.4674 15.946 27.0844 16.1183 27.4763 16.4217C27.856 16.7157 28.0613 17.1621 28.0613 17.808H28.5613C28.5613 17.0459 28.312 16.4363 27.7824 16.0263C27.2649 15.6257 26.518 15.446 25.5833 15.446V15.946ZM28.0613 17.808C28.0613 18.3854 27.8304 18.927 27.339 19.4389L27.6997 19.7851C28.2643 19.197 28.5613 18.536 28.5613 17.808H28.0613ZM27.3675 19.4134C27.1605 19.5717 26.8391 19.7043 26.3813 19.7959C25.9262 19.8869 25.3535 19.934 24.6593 19.934V20.434C25.3732 20.434 25.9812 20.3858 26.4794 20.2861C26.9749 20.187 27.3795 20.0337 27.6712 19.8106L27.3675 19.4134ZM24.4093 20.184V22.428H24.9093V20.184H24.4093ZM24.4105 22.4041C24.3942 22.5732 24.3561 22.6624 24.3237 22.7046C24.3012 22.7338 24.2761 22.75 24.2193 22.75V23.25C24.4193 23.25 24.5958 23.1709 24.72 23.0094C24.8343 22.8609 24.8878 22.6641 24.9082 22.4519L24.4105 22.4041ZM24.2193 22.75H24.1313V23.25H24.2193V22.75ZM24.1313 22.75C24.0609 22.75 24.0337 22.7299 24.0154 22.708C23.9884 22.6755 23.953 22.6019 23.9405 22.4512L23.4422 22.4928C23.459 22.6941 23.5116 22.8845 23.6313 23.028C23.7597 23.1821 23.9378 23.25 24.1313 23.25V22.75ZM23.9413 22.472V21.812H23.4413V22.472H23.9413ZM23.9413 21.812C23.9413 21.4388 23.9264 21.0935 23.8962 20.7763L23.3985 20.8237C23.4269 21.1225 23.4413 21.4518 23.4413 21.812H23.9413ZM23.8948 20.8354L23.9388 20.5274L23.4439 20.4566L23.3999 20.7646L23.8948 20.8354ZM23.9412 20.4827C23.9119 19.692 23.8973 19.0649 23.8973 18.6H23.3973C23.3973 19.0738 23.4121 19.708 23.4415 20.5013L23.9412 20.4827ZM23.8973 18.6C23.8973 18.1862 23.9119 17.515 23.9412 16.5839L23.4415 16.5681C23.4121 17.4997 23.3973 18.1778 23.3973 18.6H23.8973ZM23.9339 16.5154C23.9094 16.4173 23.8973 16.3203 23.8973 16.224H23.3973C23.3973 16.3624 23.4147 16.5001 23.4488 16.6366L23.9339 16.5154ZM23.8973 16.224C23.8973 16.1755 23.908 16.1449 23.9212 16.1234C23.9347 16.1012 23.9596 16.0744 24.0091 16.0475C24.1155 15.9894 24.3072 15.946 24.6153 15.946V15.446C24.2781 15.446 23.9859 15.4906 23.7696 15.6085C23.6578 15.6696 23.5617 15.7528 23.4945 15.8626C23.427 15.9731 23.3973 16.0965 23.3973 16.224H23.8973ZM24.3653 16.664C24.3653 16.7278 24.3688 16.7967 24.3838 16.8566C24.391 16.8853 24.4058 16.9332 24.4401 16.979C24.4797 17.0318 24.5538 17.09 24.6593 17.09V16.59C24.6995 16.59 24.7388 16.6006 24.7731 16.6202C24.8057 16.6388 24.8271 16.6617 24.8401 16.679C24.8529 16.696 24.8599 16.7108 24.8633 16.7191C24.8669 16.7277 24.8685 16.7336 24.8689 16.7354C24.8692 16.7366 24.8653 16.7175 24.8653 16.664H24.3653ZM24.4106 16.8151C24.3811 17.1102 24.3653 17.3404 24.3653 17.5H24.8653C24.8653 17.3663 24.879 17.1564 24.9081 16.8649L24.4106 16.8151ZM24.3653 17.5V19.216H24.8653V17.5H24.3653ZM24.6153 19.466H24.7913V18.966H24.6153V19.466ZM24.7913 19.466C25.6218 19.466 26.2757 19.3855 26.7308 19.2067C26.9603 19.1165 27.1542 18.9956 27.292 18.8332C27.4337 18.6662 27.5053 18.4675 27.5053 18.248H27.0053C27.0053 18.3512 26.9744 18.4348 26.9107 18.5098C26.8431 18.5894 26.729 18.6702 26.5479 18.7413C26.1817 18.8852 25.6036 18.966 24.7913 18.966V19.466ZM27.4943 18.3215C27.5518 18.1345 27.5933 17.9682 27.5933 17.852H27.0933C27.0933 17.8824 27.0762 17.9801 27.0164 18.1745L27.4943 18.3215ZM27.5933 17.852V17.676H27.0933V17.852H27.5933ZM27.5933 17.676C27.5933 17.2612 27.4242 16.925 27.0819 16.7063C26.7588 16.4998 26.3059 16.414 25.7593 16.414V16.914C26.2688 16.914 26.6079 16.9968 26.8128 17.1277C26.9985 17.2463 27.0933 17.4161 27.0933 17.676H27.5933ZM25.7593 16.414H24.6153V16.914H25.7593V16.414Z" fill="black"/>
</svg>
