<svg width="59" height="59" viewBox="0 0 59 59" fill="none" xmlns="http://www.w3.org/2000/svg">
<path d="M4.91668 29.5C4.91668 26.0993 5.56199 22.9035 6.85261 19.9125C8.14324 16.9215 9.8948 14.3198 12.1073 12.1073C14.3198 9.89481 16.9215 8.14325 19.9125 6.85262C22.9035 5.562 26.0993 4.91669 29.5 4.91669C32.9007 4.91669 36.0965 5.562 39.0875 6.85262C42.0785 8.14325 44.6802 9.89481 46.8927 12.1073C49.1052 14.3198 50.8568 16.9215 52.1474 19.9125C53.438 22.9035 54.0833 26.0993 54.0833 29.5C54.0833 32.9007 53.438 36.0965 52.1474 39.0875C50.8568 42.0785 49.1052 44.6802 46.8927 46.8927C44.6802 49.1052 42.0785 50.8568 39.0875 52.1474C36.0965 53.438 32.9007 54.0834 29.5 54.0834C26.0993 54.0834 22.9035 53.438 19.9125 52.1474C16.9215 50.8568 14.3198 49.1052 12.1073 46.8927C9.8948 44.6802 8.14324 42.0785 6.85261 39.0875C5.56199 36.0965 4.91668 32.9007 4.91668 29.5ZM27.0417 29.9917L24.8292 27.7792C24.3785 27.3285 23.8049 27.1031 23.1083 27.1031C22.4118 27.1031 21.8382 27.3285 21.3875 27.7792C20.9368 28.2299 20.7115 28.8035 20.7115 29.5C20.7115 30.1965 20.9368 30.7702 21.3875 31.2209L27.7792 37.6125C28.2708 38.1042 28.8445 38.35 29.5 38.35C30.1556 38.35 30.7292 38.1042 31.2208 37.6125L37.6125 31.2209C38.0632 30.7702 38.2886 30.1965 38.2886 29.5C38.2886 28.8035 38.0632 28.2299 37.6125 27.7792C37.1618 27.3285 36.5882 27.1031 35.8917 27.1031C35.1951 27.1031 34.6215 27.3285 34.1708 27.7792L31.9583 29.9917L31.9583 22.125C31.9583 21.4285 31.7228 20.8446 31.2516 20.3735C30.7804 19.9023 30.1965 19.6667 29.5 19.6667C28.8035 19.6667 28.2196 19.9023 27.7484 20.3735C27.2773 20.8446 27.0417 21.4285 27.0417 22.125L27.0417 29.9917Z" fill="#9E4AFF" fill-opacity="0.8"/>
</svg>
