<svg width="267" height="45" viewBox="0 0 267 45" fill="none" xmlns="http://www.w3.org/2000/svg">
<rect x="0.5" y="0.5" width="266" height="44" rx="14.5" fill="#9E4AFF"/>
<rect x="0.5" y="0.5" width="266" height="44" rx="14.5" stroke="black"/>
<path d="M58.5543 15.908C60.0903 15.908 60.8583 16.124 60.8583 16.556C60.9063 16.748 60.9303 16.916 60.9303 17.06C60.9303 17.768 60.9543 18.584 61.0023 19.508C61.0023 20.468 60.7383 20.948 60.2103 20.948H56.5383C55.8063 20.948 54.6783 20.972 53.1543 21.02V22.892C55.2543 22.844 56.6223 22.796 57.2583 22.748C57.3063 22.748 57.3783 22.772 57.4743 22.82C57.9663 22.772 58.3503 22.748 58.6263 22.748H60.7143C61.2423 22.748 61.5063 23.06 61.5063 23.684C61.3263 24.116 60.9663 24.332 60.4263 24.332C58.9623 24.332 56.6823 24.356 53.5863 24.404L53.0823 24.476C52.1223 24.392 51.6423 24.08 51.6423 23.54V20.228C51.7263 19.7 51.9903 19.436 52.4343 19.436H52.5783C54.0423 19.436 56.3223 19.412 59.4183 19.364V18.356L59.3463 17.492H52.7943L52.3623 17.564C51.9543 17.564 51.6903 17.276 51.5703 16.7C51.5703 16.28 51.8823 16.04 52.5063 15.98C53.7303 15.98 55.7463 15.956 58.5543 15.908ZM56.5743 23.36C57.0543 23.48 57.2943 23.744 57.2943 24.152L57.3123 26.762H60.5523C60.8283 26.762 61.2123 26.786 61.7043 26.834C61.7883 26.786 61.9083 26.762 62.0643 26.762C62.5443 26.894 62.7843 27.134 62.7843 27.482V27.626C62.6763 28.106 62.4363 28.346 62.0643 28.346C56.4243 28.298 52.7523 28.274 51.0483 28.274C50.3763 28.274 50.0403 28.034 50.0403 27.554V27.41C50.0403 27.026 50.3043 26.786 50.8323 26.69H55.7283C55.7283 26.594 55.7343 26.138 55.7463 25.322C55.7223 24.686 55.7103 24.296 55.7103 24.152C55.7103 23.756 55.9983 23.492 56.5743 23.36ZM74.3214 16.448H74.6094C75.2454 16.448 75.6054 16.832 75.6894 17.6C75.5334 22.592 75.1494 25.088 74.5374 25.088C74.4654 25.136 74.3214 25.16 74.1054 25.16C73.7214 24.98 73.5294 24.74 73.5294 24.44V24.368C73.9134 21.764 74.1054 19.652 74.1054 18.032H73.2414C72.8334 18.032 70.6494 18.08 66.6894 18.176H66.5454C66.0654 18.104 65.8254 17.888 65.8254 17.528V17.168C65.8254 16.832 66.3054 16.64 67.2654 16.592C71.0094 16.496 73.3614 16.448 74.3214 16.448ZM65.6094 26.78H67.0494C69.2334 26.78 72.0174 26.804 75.4014 26.852C75.7374 26.804 76.0254 26.78 76.2654 26.78C76.7454 26.924 76.9854 27.188 76.9854 27.572C76.9014 28.1 76.6374 28.364 76.1934 28.364H65.0334C64.4574 28.316 64.1694 28.052 64.1694 27.572C64.1694 27.044 64.6494 26.78 65.6094 26.78ZM82.2568 15.602C83.5528 15.602 84.5848 16.28 85.3528 17.636C85.5448 18.248 85.6648 18.752 85.7128 19.148C85.7128 20.708 84.8248 21.89 83.0488 22.694C82.7248 22.742 82.4608 22.766 82.2568 22.766H81.5368C80.0968 22.766 79.0648 21.836 78.4408 19.976L78.3688 19.22C78.3688 17.42 79.3288 16.214 81.2488 15.602H82.2568ZM79.9528 19.22C79.9528 20.3 80.5288 20.954 81.6808 21.182C83.0128 21.182 83.8288 20.582 84.1288 19.382V19.148C84.1288 18.2 83.5048 17.546 82.2568 17.186C81.2008 17.186 80.4568 17.612 80.0248 18.464L79.9528 19.22ZM88.7548 14.918H88.8988C89.3188 14.918 89.5588 15.23 89.6188 15.854V17.87C89.6188 19.07 89.6428 20.774 89.6908 22.982C89.6068 23.198 89.4388 23.39 89.1868 23.558H88.6828C88.2508 23.558 88.0348 22.454 88.0348 20.246V18.95L88.1068 18.518C88.0588 18.206 88.0348 17.894 88.0348 17.582V15.782C88.0828 15.206 88.3228 14.918 88.7548 14.918ZM80.9248 24.224C81.5008 24.224 81.7888 25.304 81.7888 27.464V28.256H85.6048C86.4688 28.256 87.6448 28.232 89.1328 28.184C89.6128 28.316 89.8528 28.556 89.8528 28.904V29.048C89.8528 29.372 89.6368 29.612 89.2048 29.768C87.1408 29.816 85.5568 29.84 84.4528 29.84H81.1408C80.5168 29.84 80.2048 29.336 80.2048 28.328C80.2048 26.888 80.1808 25.736 80.1328 24.872C80.2888 24.44 80.5528 24.224 80.9248 24.224ZM100.558 15.278C101.086 15.278 101.35 15.59 101.35 16.214V17.222L101.422 17.366L102.286 17.294H103.582C104.446 17.294 104.878 17.582 104.878 18.158C104.758 18.638 104.494 18.878 104.086 18.878H98.5424C98.1584 18.878 97.6544 18.902 97.0304 18.95C96.6224 18.95 96.3584 18.662 96.2384 18.086C96.2384 17.666 96.5504 17.426 97.1744 17.366H99.6224C99.7184 17.366 99.7664 17.318 99.7664 17.222V16.214C99.7664 15.59 100.03 15.278 100.558 15.278ZM100.486 19.67C102.058 19.67 103.186 20.486 103.87 22.118C103.918 22.298 103.942 22.49 103.942 22.694V22.91C103.942 24.626 102.958 25.754 100.99 26.294L100.558 26.366C98.9744 26.366 97.8464 25.574 97.1744 23.99L97.1024 23.486V23.342C97.1024 21.626 97.7504 20.498 99.0464 19.958C99.5984 19.766 100.078 19.67 100.486 19.67ZM98.6864 23.126V23.414C98.6864 24.026 99.1664 24.458 100.126 24.71L100.63 24.782C101.23 24.782 101.782 24.374 102.286 23.558L102.358 22.838V22.694C102.106 21.734 101.362 21.254 100.126 21.254C99.1664 21.434 98.6864 22.058 98.6864 23.126ZM106.858 14.684C107.194 14.684 107.434 14.9 107.578 15.332C107.578 15.596 107.554 15.86 107.506 16.124C107.554 17.36 107.578 18.416 107.578 19.292V20.228H109.594C109.93 20.396 110.098 20.636 110.098 20.948C110.098 21.524 109.69 21.812 108.874 21.812H107.578V25.916C107.578 26.54 107.602 27.356 107.65 28.364C107.518 28.844 107.278 29.084 106.93 29.084H106.786C106.306 28.988 106.066 28.748 106.066 28.364C106.066 27.632 106.042 26.792 105.994 25.844C105.994 25.292 106.018 24.212 106.066 22.604C106.018 19.892 105.994 17.54 105.994 15.548C106.114 14.972 106.402 14.684 106.858 14.684ZM121.536 16.448H121.824C122.46 16.448 122.82 16.832 122.904 17.6C122.748 22.592 122.364 25.088 121.752 25.088C121.68 25.136 121.536 25.16 121.32 25.16C120.936 24.98 120.744 24.74 120.744 24.44V24.368C121.128 21.764 121.32 19.652 121.32 18.032H120.456C120.048 18.032 117.864 18.08 113.904 18.176H113.76C113.28 18.104 113.04 17.888 113.04 17.528V17.168C113.04 16.832 113.52 16.64 114.48 16.592C118.224 16.496 120.576 16.448 121.536 16.448ZM118.026 23.36C118.506 23.48 118.746 23.744 118.746 24.152L118.764 26.762H122.004C122.28 26.762 122.664 26.786 123.156 26.834C123.24 26.786 123.36 26.762 123.516 26.762C123.996 26.894 124.236 27.134 124.236 27.482V27.626C124.128 28.106 123.888 28.346 123.516 28.346C117.876 28.298 114.204 28.274 112.5 28.274C111.828 28.274 111.492 28.034 111.492 27.554V27.41C111.492 27.026 111.756 26.786 112.284 26.69H117.18C117.18 26.594 117.186 26.138 117.198 25.322C117.174 24.686 117.162 24.296 117.162 24.152C117.162 23.756 117.45 23.492 118.026 23.36ZM137.036 15.422H137.18C137.6 15.422 137.84 15.734 137.9 16.358V17.006C138.056 17.006 138.464 17.03 139.124 17.078C139.304 17.078 139.976 17.054 141.14 17.006C142.004 17.006 142.436 17.246 142.436 17.726V17.942C142.436 18.374 142.172 18.59 141.644 18.59H137.9V18.662C137.9 19.622 138.62 20.63 140.06 21.686C141.836 22.382 142.724 22.862 142.724 23.126C142.724 23.15 142.748 23.246 142.796 23.414C142.676 23.894 142.412 24.134 142.004 24.134C140.384 23.702 139.064 23.006 138.044 22.046C137.444 21.506 137.132 21.122 137.108 20.894C135.98 22.406 134.324 23.486 132.14 24.134C131.744 24.134 131.504 23.846 131.42 23.27C131.42 22.898 132.188 22.418 133.724 21.83C135.404 20.726 136.244 19.694 136.244 18.734V18.59C135.932 18.59 134.684 18.614 132.5 18.662C132.152 18.662 131.936 18.374 131.852 17.798V17.726C132.044 17.294 132.38 17.078 132.86 17.078H133.652C134.216 17.078 135.104 17.054 136.316 17.006V16.286C136.364 15.71 136.604 15.422 137.036 15.422ZM137.144 23.36C137.624 23.48 137.864 23.744 137.864 24.152L137.882 26.762H141.122C141.398 26.762 141.782 26.786 142.274 26.834C142.358 26.786 142.478 26.762 142.634 26.762C143.114 26.894 143.354 27.134 143.354 27.482V27.626C143.246 28.106 143.006 28.346 142.634 28.346C136.994 28.298 133.322 28.274 131.618 28.274C130.946 28.274 130.61 28.034 130.61 27.554V27.41C130.61 27.026 130.874 26.786 131.402 26.69H136.298C136.298 26.594 136.304 26.138 136.316 25.322C136.292 24.686 136.28 24.296 136.28 24.152C136.28 23.756 136.568 23.492 137.144 23.36ZM154.891 14.486C155.431 14.486 155.791 14.918 155.971 15.782C155.827 18.374 155.755 19.934 155.755 20.462C155.755 20.858 155.491 21.098 154.963 21.182C154.579 21.182 154.339 20.918 154.243 20.39V18.806C150.667 18.854 148.315 18.902 147.187 18.95C146.779 18.95 146.515 18.662 146.395 18.086C146.395 17.75 146.635 17.51 147.115 17.366C148.687 17.318 149.911 17.294 150.787 17.294H154.243C154.339 17.294 154.387 17.246 154.387 17.15V16.07H149.491C149.191 16.07 148.831 16.094 148.411 16.142C147.163 16.142 146.539 15.902 146.539 15.422V15.062C146.707 14.726 146.947 14.558 147.259 14.558C149.155 14.558 151.699 14.534 154.891 14.486ZM151.003 19.094H151.363C151.699 19.286 151.867 19.574 151.867 19.958V21.182H152.443C153.163 21.182 154.339 21.23 155.971 21.326L156.691 21.254C157.123 21.398 157.339 21.638 157.339 21.974V22.118C157.231 22.598 156.991 22.838 156.619 22.838C156.151 22.838 153.655 22.79 149.131 22.694C147.211 22.742 146.107 22.766 145.819 22.766C145.099 22.682 144.739 22.418 144.739 21.974V21.902C144.835 21.422 145.075 21.182 145.459 21.182C146.335 21.182 147.967 21.158 150.355 21.11L150.283 20.966V20.39C150.283 19.526 150.523 19.094 151.003 19.094ZM146.953 23.63H151.777C154.273 23.63 155.521 23.75 155.521 23.99C155.665 24.362 155.737 24.962 155.737 25.79C155.737 26.942 155.233 27.518 154.225 27.518C153.049 27.566 150.889 27.614 147.745 27.662V28.49H150.985C151.825 28.49 152.689 28.514 153.577 28.562C153.793 28.514 154.321 28.49 155.161 28.49C155.617 28.49 155.857 28.802 155.881 29.426C155.737 29.858 155.425 30.074 154.945 30.074H147.097C146.473 29.966 146.161 29.726 146.161 29.354L146.233 28.85V28.706C146.233 28.478 146.209 28.178 146.161 27.806C146.161 26.654 146.569 26.078 147.385 26.078C147.577 26.078 147.673 26.102 147.673 26.15C147.721 26.15 147.913 26.126 148.249 26.078C151.297 26.03 153.097 26.006 153.649 26.006L154.153 25.934V25.214C151.933 25.166 150.205 25.142 148.969 25.142H147.169C147.061 25.142 146.965 25.166 146.881 25.214C146.557 25.214 146.293 25.022 146.089 24.638V24.35C146.089 23.918 146.377 23.678 146.953 23.63ZM163.912 15.71C164.632 15.842 164.992 16.178 164.992 16.718C164.992 18.83 164.776 19.886 164.344 19.886C164.344 19.994 164.152 20.09 163.768 20.174C162.352 20.222 161.2 20.246 160.312 20.246V21.65H160.456C161.416 21.65 162.922 21.632 164.974 21.596C165.358 21.8 165.55 22.04 165.55 22.316C165.55 22.892 164.926 23.18 163.678 23.18C162.49 23.216 161.176 23.234 159.736 23.234C159.112 23.114 158.8 22.85 158.8 22.442C158.752 20.87 158.728 19.802 158.728 19.238C158.872 18.854 159.16 18.662 159.592 18.662H162.256C162.496 18.662 162.856 18.638 163.336 18.59V18.518C163.384 17.774 163.408 17.366 163.408 17.294H163.336C162.808 17.342 162.352 17.366 161.968 17.366H159.664C159.088 17.318 158.8 17.078 158.8 16.646V16.502C158.8 16.07 159.088 15.83 159.664 15.782H162.904C163.168 15.782 163.504 15.758 163.912 15.71ZM168.754 14.918H168.898C169.318 14.918 169.558 15.23 169.618 15.854V17.87C169.618 19.07 169.642 20.774 169.69 22.982C169.606 23.198 169.438 23.39 169.186 23.558H168.682C168.25 23.558 168.034 22.454 168.034 20.246V18.95L168.106 18.518C168.058 18.206 168.034 17.894 168.034 17.582V15.782C168.082 15.206 168.322 14.918 168.754 14.918ZM164.884 23.954C165.376 23.954 165.688 24.404 165.82 25.304C166.288 26.576 167.392 27.626 169.132 28.454C169.9 28.562 170.284 28.886 170.284 29.426C170.164 29.93 169.9 30.182 169.492 30.182C168.52 30.182 167.176 29.378 165.46 27.77C165.076 27.29 164.884 26.99 164.884 26.87H164.812C164.044 28.226 162.628 29.306 160.564 30.11C160.492 30.158 160.348 30.182 160.132 30.182C159.808 30.182 159.592 29.93 159.484 29.426V29.354C159.484 28.886 160.036 28.484 161.14 28.148C162.676 27.176 163.612 26.204 163.948 25.232C164.116 24.38 164.428 23.954 164.884 23.954ZM187.162 16.25H187.306C187.726 16.25 187.966 16.562 188.026 17.186C188.074 19.706 188.098 21.626 188.098 22.946C187.882 23.522 187.498 23.81 186.946 23.81H185.65C184.462 23.81 183.286 23.834 182.122 23.882C181.63 23.834 180.766 23.81 179.53 23.81C178.858 23.81 178.522 23.21 178.522 22.01C178.474 21.518 178.45 21.134 178.45 20.858C178.498 19.55 178.522 18.302 178.522 17.114C178.606 16.586 178.846 16.322 179.242 16.322H179.386C179.866 16.322 180.106 16.682 180.106 17.402C180.106 17.486 180.082 17.918 180.034 18.698L180.898 18.77H181.618C182.302 18.77 182.806 18.794 183.13 18.842C183.55 18.794 184.078 18.77 184.714 18.77H186.442V17.114C186.49 16.538 186.73 16.25 187.162 16.25ZM180.034 20.282V21.866L180.106 22.226C181.138 22.274 181.906 22.298 182.41 22.298H184.57C184.978 22.298 185.626 22.274 186.514 22.226V20.354H181.618C181.282 20.354 180.754 20.33 180.034 20.282ZM183.202 23.36C183.682 23.48 183.922 23.744 183.922 24.152L183.94 26.762H187.18C187.456 26.762 187.84 26.786 188.332 26.834C188.416 26.786 188.536 26.762 188.692 26.762C189.172 26.894 189.412 27.134 189.412 27.482V27.626C189.304 28.106 189.064 28.346 188.692 28.346C183.052 28.298 179.38 28.274 177.676 28.274C177.004 28.274 176.668 28.034 176.668 27.554V27.41C176.668 27.026 176.932 26.786 177.46 26.69H182.356C182.356 26.594 182.362 26.138 182.374 25.322C182.35 24.686 182.338 24.296 182.338 24.152C182.338 23.756 182.626 23.492 183.202 23.36ZM191.589 15.926C192.117 15.926 192.381 16.502 192.381 17.654C192.429 19.25 192.453 20.642 192.453 21.83V23.846C193.857 23.846 195.729 23.702 198.069 23.414C198.249 23.414 198.465 23.582 198.717 23.918V24.278C198.717 24.902 197.757 25.214 195.837 25.214C194.829 25.31 193.653 25.382 192.309 25.43C191.397 25.43 190.941 24.974 190.941 24.062C190.893 23.006 190.845 20.51 190.797 16.574C190.953 16.142 191.217 15.926 191.589 15.926ZM203.199 14.81C203.583 14.99 203.775 15.23 203.775 15.53C203.775 16.634 203.799 18.554 203.847 21.29C203.847 21.482 203.823 21.914 203.775 22.586C203.871 24.158 203.919 26.102 203.919 28.418C203.919 28.79 203.655 29.054 203.127 29.21C202.683 29.21 202.419 28.874 202.335 28.202V27.842C202.335 26.45 202.311 24.53 202.263 22.082H200.751V25.97C200.751 26.414 200.775 27.038 200.823 27.842C200.631 28.322 200.367 28.562 200.031 28.562C199.503 28.562 199.239 28.058 199.239 27.05C199.191 26.534 199.167 25.718 199.167 24.602C199.167 24.074 199.191 23.738 199.239 23.594C199.191 22.946 199.167 22.394 199.167 21.938V15.962C199.167 15.338 199.431 15.026 199.959 15.026C200.487 15.11 200.751 15.374 200.751 15.818V20.498H200.823C200.955 20.498 201.435 20.522 202.263 20.57V20.282C202.263 19.286 202.239 17.774 202.191 15.746C202.191 15.146 202.527 14.834 203.199 14.81ZM206.464 16.178H211.36C211.888 16.262 212.152 16.526 212.152 16.97V17.186C212.152 18.722 211.456 20.642 210.064 22.946C208.228 25.202 206.98 26.33 206.32 26.33C205.996 26.246 205.78 26.078 205.672 25.826V25.466C205.672 25.202 206.272 24.578 207.472 23.594C209.2 21.662 210.16 19.934 210.352 18.41C210.448 18.05 210.496 17.834 210.496 17.762H206.104C205.576 17.666 205.312 17.426 205.312 17.042V16.97C205.312 16.442 205.696 16.178 206.464 16.178ZM216.166 14.504C216.646 14.504 216.886 15.032 216.886 16.088C216.934 16.688 216.958 17 216.958 17.024C216.862 20.024 216.814 22.04 216.814 23.072C216.862 25.172 216.91 26.324 216.958 26.528C216.91 26.708 216.886 26.924 216.886 27.176V27.32C216.886 27.524 216.91 27.788 216.958 28.112C216.958 28.52 216.67 28.784 216.094 28.904C215.698 28.904 215.458 28.616 215.374 28.04C215.374 26.9 215.326 25.076 215.23 22.568C215.326 20.084 215.374 18.116 215.374 16.664C215.374 16.532 215.35 16.052 215.302 15.224C215.302 14.828 215.59 14.588 216.166 14.504Z" fill="white"/>
</svg>
