<svg width="95" height="45" viewBox="0 0 95 45" fill="none" xmlns="http://www.w3.org/2000/svg">
<g filter="url(#filter0_d_69_431)">
<path d="M16.5464 8.84C20.6797 8.84 23.453 10.8133 24.8664 14.76C25.1864 16.6 25.3464 17.9867 25.3464 18.92C25.3464 23.32 23.5864 26.5733 20.0664 28.68L16.3864 29C14.413 29 12.4397 28.04 10.4664 26.12C8.97304 23.3467 8.22637 20.9467 8.22637 18.92C8.46637 15.96 9.31971 13.3467 10.7864 11.08C12.493 9.58667 14.413 8.84 16.5464 8.84ZM11.7464 19.24C11.7464 21.1867 12.493 23 13.9864 24.68C15.053 25.2133 15.853 25.48 16.3864 25.48C18.7864 25.48 20.173 24.84 20.5464 23.56C21.3997 22.2533 21.8264 20.76 21.8264 19.08V18.28C21.8264 15.3733 20.7064 13.4533 18.4664 12.52C18.0664 12.4133 17.6397 12.36 17.1864 12.36H16.5464C14.3597 12.36 12.973 13.4267 12.3864 15.56C11.9597 17.2933 11.7464 18.52 11.7464 19.24ZM32.3968 9.48C33.2768 9.48 33.7568 10.0133 33.8368 11.08C35.5168 10.0133 37.2768 9.48 39.1168 9.48H40.0768C42.9568 9.48 44.9835 11.1333 46.1568 14.44C46.5835 15.64 46.7968 16.92 46.7968 18.28V18.44C46.7968 23.48 44.9301 26.84 41.1968 28.52L39.5968 28.68H38.9568C37.3568 28.68 35.6501 28.3067 33.8368 27.56V34.28C33.8368 35.3467 33.4101 36.0933 32.5568 36.52H31.7568C30.7968 36.3867 30.3168 35.9067 30.3168 35.08V12.52C30.3168 10.9467 30.6901 9.93333 31.4368 9.48H32.3968ZM33.8368 17.48V23.08L35.9168 24.68C37.6768 25.1067 38.7968 25.32 39.2768 25.32C41.3835 25.32 42.7168 23.3467 43.2768 19.4V17.96C43.2768 15.0533 42.2635 13.4 40.2368 13C40.0235 12.8933 39.8635 12.84 39.7568 12.84C36.3701 12.84 34.3968 14.3867 33.8368 17.48ZM59.7382 8.52C63.5782 9.69333 65.4982 10.8667 65.4982 12.04C66.5649 13.6667 67.0982 15.8533 67.0982 18.6C67.0982 19.5333 66.1915 20.0667 64.3782 20.2C62.8049 20.3067 60.9915 20.36 58.9382 20.36H57.1782L56.2182 20.52C56.0315 20.4133 55.7649 20.36 55.4182 20.36H54.1382V20.52C54.1382 23.2667 56.0049 24.92 59.7382 25.48C60.8582 25.48 62.5115 25.0533 64.6982 24.2H64.8582C65.8182 24.5467 66.2982 25.1333 66.2982 25.96C66.2982 27.64 64.0049 28.6533 59.4182 29C56.5915 29 54.0315 27.56 51.7382 24.68C51.0982 23.2933 50.6715 21.32 50.4582 18.76C50.4582 13.9867 52.3249 10.7867 56.0582 9.16C57.6849 8.73333 58.9115 8.52 59.7382 8.52ZM54.1382 16.84C54.8849 16.84 55.2582 16.8933 55.2582 17L57.1782 16.84H62.6182L63.4182 16.68C63.4182 13.6933 61.9782 12.2 59.0982 12.2H58.6182C56.4049 12.2 54.9115 13.7467 54.1382 16.84ZM72.7999 9.32H73.5999C74.5599 9.32 75.0399 10.12 75.0399 11.72C76.9065 10.2267 78.6665 9.48 80.3199 9.48H81.2799C83.7865 9.48 85.5465 11.3467 86.5599 15.08C86.5599 15.6133 86.6132 16.4133 86.7199 17.48C86.7199 24.9467 86.3999 28.68 85.7599 28.68L84.6399 29C83.6532 29 83.1199 28.3067 83.0399 26.92C83.0399 24.9467 83.0932 21.5333 83.1999 16.68C82.9599 14.12 82.1065 12.84 80.6399 12.84C78.8532 12.84 76.9865 14.2267 75.0399 17C75.0399 19.32 74.9865 22.7333 74.8799 27.24C74.6399 28.3067 74.1065 28.84 73.2799 28.84H72.6399C72.1865 28.84 71.7599 28.2 71.3599 26.92C71.5732 22.8133 71.6799 19.0267 71.6799 15.56C71.5732 13.08 71.5199 11.8 71.5199 11.72C71.5199 10.52 71.9465 9.72 72.7999 9.32Z" fill="white"/>
</g>
<defs>
<filter id="filter0_d_69_431" x="0.0263796" y="0.32002" width="94.8935" height="44.4" filterUnits="userSpaceOnUse" color-interpolation-filters="sRGB">
<feFlood flood-opacity="0" result="BackgroundImageFix"/>
<feColorMatrix in="SourceAlpha" type="matrix" values="0 0 0 0 0 0 0 0 0 0 0 0 0 0 0 0 0 0 127 0" result="hardAlpha"/>
<feOffset/>
<feGaussianBlur stdDeviation="4.1"/>
<feComposite in2="hardAlpha" operator="out"/>
<feColorMatrix type="matrix" values="0 0 0 0 1 0 0 0 0 0.225195 0 0 0 0 0.767559 0 0 0 1 0"/>
<feBlend mode="normal" in2="BackgroundImageFix" result="effect1_dropShadow_69_431"/>
<feBlend mode="normal" in="SourceGraphic" in2="effect1_dropShadow_69_431" result="shape"/>
</filter>
</defs>
</svg>
