<svg width="215" height="47" viewBox="0 0 215 47" fill="none" xmlns="http://www.w3.org/2000/svg">
<rect width="215" height="38" rx="10" fill="white"/>
<path d="M36.9087 13.809H36.9607C37.342 13.809 37.5327 14.0993 37.5327 14.68V14.94H37.5847C37.784 14.94 38.2173 14.9227 38.8847 14.888C39.4047 14.888 39.7167 15.0353 39.8207 15.33V15.59C39.8207 15.8673 39.6473 16.032 39.3007 16.084H37.5327V16.136C37.6367 16.8293 38.4513 17.6397 39.9767 18.567C40.046 18.801 40.0807 18.9657 40.0807 19.061C39.968 19.3817 39.7773 19.542 39.5087 19.542C39.032 19.4727 38.2347 18.879 37.1167 17.761C37.1167 17.7003 37.0473 17.6267 36.9087 17.54C36.3713 18.4587 35.6087 19.126 34.6207 19.542H34.5167C34.2307 19.542 34.0573 19.3253 33.9967 18.892C33.9967 18.684 34.3433 18.3807 35.0367 17.982C35.834 17.2627 36.2327 16.6473 36.2327 16.136H35.9727C35.626 16.136 35.106 16.1187 34.4127 16.084C34.2047 15.9107 34.1007 15.7287 34.1007 15.538C34.1613 15.1393 34.352 14.94 34.6727 14.94H36.3887V14.459C36.4233 14.0257 36.5967 13.809 36.9087 13.809ZM42.0047 13.913H42.1087C42.412 13.913 42.5853 14.1383 42.6287 14.589V16.045C42.6287 16.9117 42.646 18.1423 42.6807 19.737C42.62 19.893 42.4987 20.0317 42.3167 20.153H41.9527C41.6407 20.153 41.4847 19.3557 41.4847 17.761V16.825L41.5367 16.513C41.502 16.2877 41.4847 16.0623 41.4847 15.837V14.537C41.5193 14.121 41.6927 13.913 42.0047 13.913ZM36.3367 20.634C36.7527 20.634 36.9607 21.414 36.9607 22.974V23.546H39.7167C40.3407 23.546 41.19 23.5287 42.2647 23.494C42.6113 23.5893 42.7847 23.7627 42.7847 24.014V24.118C42.7847 24.352 42.6287 24.5253 42.3167 24.638C40.826 24.6727 39.682 24.69 38.8847 24.69H36.4927C36.042 24.69 35.8167 24.326 35.8167 23.598C35.8167 22.558 35.7993 21.726 35.7647 21.102C35.8773 20.79 36.068 20.634 36.3367 20.634ZM50.4335 14.173C50.6155 14.2077 50.7888 14.225 50.9535 14.225C51.1355 14.1903 51.3088 14.173 51.4735 14.173C51.8201 14.2943 51.9935 14.537 51.9935 14.901V15.109C51.7941 17.9517 51.4821 19.373 51.0575 19.373C50.9968 19.4077 50.9101 19.425 50.7975 19.425C50.4855 19.295 50.3295 19.1217 50.3295 18.905C50.6415 17.4923 50.7975 16.3137 50.7975 15.369L50.6935 15.317L46.3255 15.421C45.3895 15.421 44.9215 15.2823 44.9215 15.005C44.9215 14.9703 44.9041 14.9183 44.8695 14.849C44.9388 14.4677 45.1295 14.277 45.4415 14.277C47.0708 14.277 48.7348 14.2423 50.4335 14.173ZM44.6615 19.568C45.5368 19.6027 46.2301 19.62 46.7415 19.62H50.6415C51.0748 19.62 51.6121 19.6027 52.2535 19.568C52.9815 19.568 53.3455 19.7933 53.3455 20.244C53.3455 20.426 53.1721 20.5993 52.8255 20.764L52.5135 20.712C51.1788 20.7467 50.1388 20.764 49.3935 20.764H49.2375L49.2895 21.284V23.988C49.2895 24.3693 49.0641 24.56 48.6135 24.56C48.3015 24.456 48.1455 24.2307 48.1455 23.884V20.764H48.0935C46.0221 20.7293 44.8608 20.712 44.6095 20.712C44.3321 20.712 44.1588 20.5213 44.0895 20.14C44.0895 19.906 44.2801 19.7153 44.6615 19.568ZM57.2913 14.758C58.2966 14.758 59.0419 15.486 59.5273 16.942C59.6659 17.6527 59.7353 18.1033 59.7353 18.294V18.97C59.7353 20.452 59.0939 21.4573 57.8113 21.986C57.5079 22.0207 57.2479 22.038 57.0313 22.038C56.0259 22.038 55.2633 21.2233 54.7433 19.594C54.6739 19.1433 54.6393 18.814 54.6393 18.606C54.6393 16.5953 55.3326 15.33 56.7193 14.81C56.7973 14.81 56.9879 14.7927 57.2913 14.758ZM55.7833 18.658V18.71C55.7833 19.7673 56.1819 20.4953 56.9793 20.894H57.1353C58.1406 20.894 58.6433 20.1313 58.6433 18.606C58.4266 17.0113 58.1666 16.214 57.8633 16.214C57.7246 16.006 57.5166 15.902 57.2393 15.902H57.0833C56.3726 16.11 55.9566 16.7687 55.8353 17.878C55.8006 18.0253 55.7833 18.2853 55.7833 18.658ZM63.5963 13.666H63.6483C63.8649 13.666 64.0383 13.8047 64.1683 14.082C64.1683 15.0527 64.1856 16.0753 64.2203 17.15C64.1856 19.386 64.1683 21.518 64.1683 23.546C64.1076 23.9273 63.9343 24.118 63.6483 24.118H63.5443C63.1976 24.118 63.0243 23.806 63.0243 23.182V22.558C63.0243 22.1853 63.0416 21.8907 63.0763 21.674C63.0416 21.3793 63.0243 21.1367 63.0243 20.946C63.0243 19.9667 63.0589 18.944 63.1283 17.878C63.0936 17.2367 63.0763 16.5433 63.0763 15.798V14.29C63.1109 13.874 63.2843 13.666 63.5963 13.666ZM61.7243 13.874C62.0709 14.0213 62.2443 14.2293 62.2443 14.498C62.2443 14.706 62.2269 15.018 62.1923 15.434C62.1923 16.11 62.2096 17.046 62.2443 18.242C62.2096 19.9147 62.1923 21.5613 62.1923 23.182C62.1143 23.5287 61.9409 23.702 61.6723 23.702H61.5683C61.2909 23.702 61.1176 23.5113 61.0483 23.13C61.0829 20.79 61.1003 19.3167 61.1003 18.71H61.0483C60.6929 18.7447 60.4156 18.762 60.2163 18.762H59.9563C59.6096 18.71 59.4363 18.554 59.4363 18.294V18.138C59.4363 17.7567 59.9909 17.566 61.1003 17.566C61.1003 17.436 61.0829 17.0027 61.0483 16.266C61.0829 15.1567 61.1003 14.5153 61.1003 14.342C61.2043 14.03 61.4123 13.874 61.7243 13.874ZM66.3511 14.823H69.8871C70.2685 14.8837 70.4591 15.0743 70.4591 15.395V15.551C70.4591 16.6603 69.9565 18.047 68.9511 19.711C67.6251 21.3403 66.7238 22.155 66.2471 22.155C66.0131 22.0943 65.8571 21.973 65.7791 21.791V21.531C65.7791 21.3403 66.2125 20.8897 67.0791 20.179C68.3271 18.7837 69.0205 17.5357 69.1591 16.435C69.2285 16.175 69.2631 16.019 69.2631 15.967H66.0911C65.7098 15.8977 65.5191 15.7243 65.5191 15.447V15.395C65.5191 15.0137 65.7965 14.823 66.3511 14.823ZM74.7231 13.666H74.7751C74.9918 13.666 75.1651 13.8047 75.2951 14.082C75.2951 15.0527 75.3125 16.0753 75.3471 17.15C75.3125 19.386 75.2951 21.518 75.2951 23.546C75.2345 23.9273 75.0611 24.118 74.7751 24.118H74.6711C74.3245 24.118 74.1511 23.806 74.1511 23.182V22.558C74.1511 22.1853 74.1685 21.8907 74.2031 21.674C74.1685 21.3793 74.1511 21.1367 74.1511 20.946C74.1511 19.9667 74.1858 18.944 74.2551 17.878C74.2205 17.2367 74.2031 16.5433 74.2031 15.798V14.29C74.2378 13.874 74.4111 13.666 74.7231 13.666ZM72.8511 13.874C73.1978 14.0213 73.3711 14.2293 73.3711 14.498C73.3711 14.706 73.3538 15.018 73.3191 15.434C73.3191 16.11 73.3365 17.046 73.3711 18.242C73.3365 19.9147 73.3191 21.5613 73.3191 23.182C73.2411 23.5287 73.0678 23.702 72.7991 23.702H72.6951C72.4178 23.702 72.2445 23.5113 72.1751 23.13C72.2098 20.79 72.2271 19.3167 72.2271 18.71H72.1751C71.8198 18.7447 71.5425 18.762 71.3431 18.762H71.0831C70.7365 18.71 70.5631 18.554 70.5631 18.294V18.138C70.5631 17.7567 71.1178 17.566 72.2271 17.566C72.2271 17.436 72.2098 17.0027 72.1751 16.266C72.2098 15.1567 72.2271 14.5153 72.2271 14.342C72.3311 14.03 72.5391 13.874 72.8511 13.874ZM85.1914 14.277H85.2954C85.5987 14.277 85.7721 14.5023 85.8154 14.953V15.421C85.9281 15.421 86.2227 15.4383 86.6994 15.473C86.8294 15.473 87.3147 15.4557 88.1554 15.421C88.7794 15.421 89.0914 15.5943 89.0914 15.941V16.097C89.0914 16.409 88.9007 16.565 88.5194 16.565H85.8154V16.617C85.8154 17.3103 86.3354 18.0383 87.3754 18.801C88.6581 19.3037 89.2994 19.6503 89.2994 19.841C89.2994 19.8583 89.3167 19.9277 89.3514 20.049C89.2647 20.3957 89.0741 20.569 88.7794 20.569C87.6094 20.257 86.6561 19.7543 85.9194 19.061C85.4861 18.671 85.2607 18.3937 85.2434 18.229C84.4287 19.321 83.2327 20.101 81.6554 20.569C81.3694 20.569 81.1961 20.361 81.1354 19.945C81.1354 19.6763 81.6901 19.3297 82.7994 18.905C84.0127 18.1077 84.6194 17.3623 84.6194 16.669V16.565C84.3941 16.565 83.4927 16.5823 81.9154 16.617C81.6641 16.617 81.5081 16.409 81.4474 15.993V15.941C81.5861 15.629 81.8287 15.473 82.1754 15.473H82.7474C83.1547 15.473 83.7961 15.4557 84.6714 15.421V14.901C84.7061 14.485 84.8794 14.277 85.1914 14.277ZM85.2694 20.01C85.6161 20.0967 85.7894 20.2873 85.7894 20.582L85.8024 22.467H88.1424C88.3417 22.467 88.6191 22.4843 88.9744 22.519C89.0351 22.4843 89.1217 22.467 89.2344 22.467C89.5811 22.5623 89.7544 22.7357 89.7544 22.987V23.091C89.6764 23.4377 89.5031 23.611 89.2344 23.611C85.1611 23.5763 82.5091 23.559 81.2784 23.559C80.7931 23.559 80.5504 23.3857 80.5504 23.039V22.935C80.5504 22.6577 80.7411 22.4843 81.1224 22.415H84.6584C84.6584 22.3457 84.6627 22.0163 84.6714 21.427C84.6541 20.9677 84.6454 20.686 84.6454 20.582C84.6454 20.296 84.8534 20.1053 85.2694 20.01ZM98.3814 13.601C98.7714 13.601 99.0314 13.913 99.1614 14.537C99.0574 16.409 99.0054 17.5357 99.0054 17.917C99.0054 18.203 98.8147 18.3763 98.4334 18.437C98.1561 18.437 97.9827 18.2463 97.9134 17.865V16.721C95.3307 16.7557 93.6321 16.7903 92.8174 16.825C92.5227 16.825 92.3321 16.617 92.2454 16.201C92.2454 15.9583 92.4187 15.785 92.7654 15.681C93.9007 15.6463 94.7847 15.629 95.4174 15.629H97.9134C97.9827 15.629 98.0174 15.5943 98.0174 15.525V14.745H94.4814C94.2647 14.745 94.0047 14.7623 93.7014 14.797C92.8001 14.797 92.3494 14.6237 92.3494 14.277V14.017C92.4707 13.7743 92.6441 13.653 92.8694 13.653C94.2387 13.653 96.0761 13.6357 98.3814 13.601ZM95.5734 16.929H95.8334C96.0761 17.0677 96.1974 17.2757 96.1974 17.553V18.437H96.6134C97.1334 18.437 97.9827 18.4717 99.1614 18.541L99.6814 18.489C99.9934 18.593 100.149 18.7663 100.149 19.009V19.113C100.071 19.4597 99.8981 19.633 99.6294 19.633C99.2914 19.633 97.4887 19.5983 94.2214 19.529C92.8347 19.5637 92.0374 19.581 91.8294 19.581C91.3094 19.5203 91.0494 19.3297 91.0494 19.009V18.957C91.1187 18.6103 91.2921 18.437 91.5694 18.437C92.2021 18.437 93.3807 18.4197 95.1054 18.385L95.0534 18.281V17.865C95.0534 17.241 95.2267 16.929 95.5734 16.929ZM92.6484 20.205H96.1324C97.9351 20.205 98.8364 20.2917 98.8364 20.465C98.9404 20.7337 98.9924 21.167 98.9924 21.765C98.9924 22.597 98.6284 23.013 97.9004 23.013C97.0511 23.0477 95.4911 23.0823 93.2204 23.117V23.715H95.5604C96.1671 23.715 96.7911 23.7323 97.4324 23.767C97.5884 23.7323 97.9697 23.715 98.5764 23.715C98.9057 23.715 99.0791 23.9403 99.0964 24.391C98.9924 24.703 98.7671 24.859 98.4204 24.859H92.7524C92.3017 24.781 92.0764 24.6077 92.0764 24.339L92.1284 23.975V23.871C92.1284 23.7063 92.1111 23.4897 92.0764 23.221C92.0764 22.389 92.3711 21.973 92.9604 21.973C93.0991 21.973 93.1684 21.9903 93.1684 22.025C93.2031 22.025 93.3417 22.0077 93.5844 21.973C95.7857 21.9383 97.0857 21.921 97.4844 21.921L97.8484 21.869V21.349C96.2451 21.3143 94.9971 21.297 94.1044 21.297H92.8044C92.7264 21.297 92.6571 21.3143 92.5964 21.349C92.3624 21.349 92.1717 21.2103 92.0244 20.933V20.725C92.0244 20.413 92.2324 20.2397 92.6484 20.205ZM105.191 14.485C105.711 14.5803 105.971 14.823 105.971 15.213C105.971 16.7383 105.815 17.501 105.503 17.501C105.503 17.579 105.364 17.6483 105.087 17.709C104.064 17.7437 103.232 17.761 102.591 17.761V18.775H102.695C103.388 18.775 104.476 18.762 105.958 18.736C106.235 18.8833 106.374 19.0567 106.374 19.256C106.374 19.672 105.923 19.88 105.022 19.88C104.164 19.906 103.215 19.919 102.175 19.919C101.724 19.8323 101.499 19.6417 101.499 19.347C101.464 18.2117 101.447 17.4403 101.447 17.033C101.551 16.7557 101.759 16.617 102.071 16.617H103.995C104.168 16.617 104.428 16.5997 104.775 16.565V16.513C104.81 15.9757 104.827 15.681 104.827 15.629H104.775C104.394 15.6637 104.064 15.681 103.787 15.681H102.123C101.707 15.6463 101.499 15.473 101.499 15.161V15.057C101.499 14.745 101.707 14.5717 102.123 14.537H104.463C104.654 14.537 104.896 14.5197 105.191 14.485ZM108.688 13.913H108.792C109.095 13.913 109.269 14.1383 109.312 14.589V16.045C109.312 16.9117 109.329 18.1423 109.364 19.737C109.303 19.893 109.182 20.0317 109 20.153H108.636C108.324 20.153 108.168 19.3557 108.168 17.761V16.825L108.22 16.513C108.185 16.2877 108.168 16.0623 108.168 15.837V14.537C108.203 14.121 108.376 13.913 108.688 13.913ZM105.893 20.439C106.248 20.439 106.474 20.764 106.569 21.414C106.907 22.3327 107.704 23.091 108.961 23.689C109.516 23.767 109.793 24.001 109.793 24.391C109.706 24.755 109.516 24.937 109.221 24.937C108.519 24.937 107.548 24.3563 106.309 23.195C106.032 22.8483 105.893 22.6317 105.893 22.545H105.841C105.286 23.5243 104.264 24.3043 102.773 24.885C102.721 24.9197 102.617 24.937 102.461 24.937C102.227 24.937 102.071 24.755 101.993 24.391V24.339C101.993 24.001 102.392 23.7107 103.189 23.468C104.298 22.766 104.974 22.064 105.217 21.362C105.338 20.7467 105.564 20.439 105.893 20.439ZM115.294 13.666C117.548 13.6747 118.848 14.2293 119.194 15.33C119.229 15.5207 119.246 15.6767 119.246 15.798C119.246 16.89 118.224 17.566 116.178 17.826H115.97C113.44 17.826 112.174 17.1673 112.174 15.85C112.174 14.836 112.92 14.1427 114.41 13.77C114.861 13.7007 115.156 13.666 115.294 13.666ZM113.318 15.798V15.85C113.318 16.4047 114.254 16.682 116.126 16.682C116.967 16.682 117.643 16.4047 118.154 15.85V15.798C118.154 15.3127 117.461 14.9833 116.074 14.81C116.04 14.81 116.022 14.8273 116.022 14.862C115.762 14.8273 115.589 14.7927 115.502 14.758C114.046 14.9313 113.318 15.278 113.318 15.798ZM111.667 18.359C112.187 18.3937 112.569 18.411 112.811 18.411H113.695C115.143 18.411 117.119 18.4283 119.623 18.463C119.935 18.5843 120.091 18.7577 120.091 18.983V19.087C120.013 19.4337 119.84 19.607 119.571 19.607C118.037 19.5723 116.841 19.555 115.983 19.555H113.487C113.453 19.555 113.435 19.5377 113.435 19.503C113.401 19.503 113.383 19.5203 113.383 19.555L113.123 19.503H111.615C111.39 19.503 111.217 19.3817 111.095 19.139V18.931C111.095 18.671 111.286 18.4803 111.667 18.359ZM112.746 20.205H116.23C118.033 20.205 118.934 20.2917 118.934 20.465C119.038 20.7337 119.09 21.167 119.09 21.765C119.09 22.597 118.726 23.013 117.998 23.013C117.149 23.0477 115.589 23.0823 113.318 23.117V23.715H115.658C116.265 23.715 116.889 23.7323 117.53 23.767C117.686 23.7323 118.068 23.715 118.674 23.715C119.004 23.715 119.177 23.9403 119.194 24.391C119.09 24.703 118.865 24.859 118.518 24.859H112.85C112.4 24.781 112.174 24.6077 112.174 24.339L112.226 23.975V23.871C112.226 23.7063 112.209 23.4897 112.174 23.221C112.174 22.389 112.469 21.973 113.058 21.973C113.197 21.973 113.266 21.9903 113.266 22.025C113.301 22.025 113.44 22.0077 113.682 21.973C115.884 21.9383 117.184 21.921 117.582 21.921L117.946 21.869V21.349C116.343 21.3143 115.095 21.297 114.202 21.297H112.902C112.824 21.297 112.755 21.3143 112.694 21.349C112.46 21.349 112.27 21.2103 112.122 20.933V20.725C112.122 20.413 112.33 20.2397 112.746 20.205ZM132.868 14.875H132.972C133.275 14.875 133.448 15.1003 133.492 15.551C133.526 17.371 133.544 18.7577 133.544 19.711C133.388 20.127 133.11 20.335 132.712 20.335H131.776C130.918 20.335 130.068 20.3523 129.228 20.387C128.872 20.3523 128.248 20.335 127.356 20.335C126.87 20.335 126.628 19.9017 126.628 19.035C126.593 18.6797 126.576 18.4023 126.576 18.203C126.61 17.2583 126.628 16.357 126.628 15.499C126.688 15.1177 126.862 14.927 127.148 14.927H127.252C127.598 14.927 127.772 15.187 127.772 15.707C127.772 15.7677 127.754 16.0797 127.72 16.643L128.344 16.695H128.864C129.358 16.695 129.722 16.7123 129.956 16.747C130.259 16.7123 130.64 16.695 131.1 16.695H132.348V15.499C132.382 15.083 132.556 14.875 132.868 14.875ZM127.72 17.787V18.931L127.772 19.191C128.517 19.2257 129.072 19.243 129.436 19.243H130.996C131.29 19.243 131.758 19.2257 132.4 19.191V17.839H128.864C128.621 17.839 128.24 17.8217 127.72 17.787ZM130.008 20.01C130.354 20.0967 130.528 20.2873 130.528 20.582L130.541 22.467H132.881C133.08 22.467 133.357 22.4843 133.713 22.519C133.773 22.4843 133.86 22.467 133.973 22.467C134.319 22.5623 134.493 22.7357 134.493 22.987V23.091C134.415 23.4377 134.241 23.611 133.973 23.611C129.899 23.5763 127.247 23.559 126.017 23.559C125.531 23.559 125.289 23.3857 125.289 23.039V22.935C125.289 22.6577 125.479 22.4843 125.861 22.415H129.397C129.397 22.3457 129.401 22.0163 129.41 21.427C129.392 20.9677 129.384 20.686 129.384 20.582C129.384 20.296 129.592 20.1053 130.008 20.01ZM136.36 14.641C136.741 14.641 136.932 15.057 136.932 15.889C136.966 17.0417 136.984 18.047 136.984 18.905V20.361C137.998 20.361 139.35 20.257 141.04 20.049C141.17 20.049 141.326 20.1703 141.508 20.413V20.673C141.508 21.1237 140.814 21.349 139.428 21.349C138.7 21.4183 137.85 21.4703 136.88 21.505C136.221 21.505 135.892 21.1757 135.892 20.517C135.857 19.7543 135.822 17.9517 135.788 15.109C135.9 14.797 136.091 14.641 136.36 14.641ZM144.745 13.835C145.022 13.965 145.161 14.1383 145.161 14.355C145.161 15.1523 145.178 16.539 145.213 18.515C145.213 18.6537 145.195 18.9657 145.161 19.451C145.23 20.5863 145.265 21.9903 145.265 23.663C145.265 23.9317 145.074 24.1223 144.693 24.235C144.372 24.235 144.181 23.9923 144.121 23.507V23.247C144.121 22.2417 144.103 20.855 144.069 19.087H142.977V21.895C142.977 22.2157 142.994 22.6663 143.029 23.247C142.89 23.5937 142.699 23.767 142.457 23.767C142.075 23.767 141.885 23.403 141.885 22.675C141.85 22.3023 141.833 21.713 141.833 20.907C141.833 20.5257 141.85 20.283 141.885 20.179C141.85 19.711 141.833 19.3123 141.833 18.983V14.667C141.833 14.2163 142.023 13.991 142.405 13.991C142.786 14.0517 142.977 14.2423 142.977 14.563V17.943H143.029C143.124 17.943 143.471 17.9603 144.069 17.995V17.787C144.069 17.0677 144.051 15.9757 144.017 14.511C144.017 14.0777 144.259 13.8523 144.745 13.835ZM154.145 14.875H154.249C154.552 14.875 154.726 15.1003 154.769 15.551C154.804 17.371 154.821 18.7577 154.821 19.711C154.665 20.127 154.388 20.335 153.989 20.335H153.053C152.195 20.335 151.346 20.3523 150.505 20.387C150.15 20.3523 149.526 20.335 148.633 20.335C148.148 20.335 147.905 19.9017 147.905 19.035C147.87 18.6797 147.853 18.4023 147.853 18.203C147.888 17.2583 147.905 16.357 147.905 15.499C147.966 15.1177 148.139 14.927 148.425 14.927H148.529C148.876 14.927 149.049 15.187 149.049 15.707C149.049 15.7677 149.032 16.0797 148.997 16.643L149.621 16.695H150.141C150.635 16.695 150.999 16.7123 151.233 16.747C151.536 16.7123 151.918 16.695 152.377 16.695H153.625V15.499C153.66 15.083 153.833 14.875 154.145 14.875ZM148.997 17.787V18.931L149.049 19.191C149.794 19.2257 150.349 19.243 150.713 19.243H152.273C152.568 19.243 153.036 19.2257 153.677 19.191V17.839H150.141C149.898 17.839 149.517 17.8217 148.997 17.787ZM151.285 20.01C151.632 20.0967 151.805 20.2873 151.805 20.582L151.818 22.467H154.158C154.357 22.467 154.635 22.4843 154.99 22.519C155.051 22.4843 155.137 22.467 155.25 22.467C155.597 22.5623 155.77 22.7357 155.77 22.987V23.091C155.692 23.4377 155.519 23.611 155.25 23.611C151.177 23.5763 148.525 23.559 147.294 23.559C146.809 23.559 146.566 23.3857 146.566 23.039V22.935C146.566 22.6577 146.757 22.4843 147.138 22.415H150.674C150.674 22.3457 150.678 22.0163 150.687 21.427C150.67 20.9677 150.661 20.686 150.661 20.582C150.661 20.296 150.869 20.1053 151.285 20.01ZM159.925 14.797H160.029C160.376 14.797 160.549 15.1263 160.549 15.785C160.549 17.1717 161 18.6277 161.901 20.153C162.456 20.6817 162.733 21.0283 162.733 21.193V21.297C162.733 21.583 162.542 21.7563 162.161 21.817C161.598 21.687 160.974 20.9417 160.289 19.581C160.081 19.0783 159.977 18.801 159.977 18.749H159.925C158.989 20.8983 158.226 21.973 157.637 21.973H157.533C157.221 21.9297 157.065 21.7737 157.065 21.505V21.401C157.065 21.2537 157.342 20.8723 157.897 20.257C158.937 18.7057 159.457 16.9897 159.457 15.109C159.596 14.901 159.752 14.797 159.925 14.797ZM166.178 13.666H166.23C166.447 13.666 166.62 13.8047 166.75 14.082C166.75 15.0527 166.767 16.0753 166.802 17.15C166.767 19.386 166.75 21.518 166.75 23.546C166.689 23.9273 166.516 24.118 166.23 24.118H166.126C165.779 24.118 165.606 23.806 165.606 23.182V22.558C165.606 22.1853 165.623 21.8907 165.658 21.674C165.623 21.3793 165.606 21.1367 165.606 20.946C165.606 19.9667 165.641 18.944 165.71 17.878C165.675 17.2367 165.658 16.5433 165.658 15.798V14.29C165.693 13.874 165.866 13.666 166.178 13.666ZM164.306 13.874C164.653 14.0213 164.826 14.2293 164.826 14.498C164.826 14.706 164.809 15.018 164.774 15.434C164.774 16.11 164.791 17.046 164.826 18.242C164.791 19.9147 164.774 21.5613 164.774 23.182C164.696 23.5287 164.523 23.702 164.254 23.702H164.15C163.873 23.702 163.699 23.5113 163.63 23.13C163.665 20.79 163.682 19.3167 163.682 18.71H163.63C163.275 18.7447 162.997 18.762 162.798 18.762H162.538C162.191 18.71 162.018 18.554 162.018 18.294V18.138C162.018 17.7567 162.573 17.566 163.682 17.566C163.682 17.436 163.665 17.0027 163.63 16.266C163.665 15.1567 163.682 14.5153 163.682 14.342C163.786 14.03 163.994 13.874 164.306 13.874ZM172.816 14.875C174.082 14.875 175.191 15.3083 176.144 16.175C176.491 16.7123 176.664 17.3883 176.664 18.203C176.664 19.217 175.919 20.049 174.428 20.699C173.822 20.803 173.354 20.855 173.024 20.855H172.712C171.534 20.855 170.546 20.4217 169.748 19.555C169.367 19.0263 169.176 18.4543 169.176 17.839C169.176 16.9377 169.627 16.1577 170.528 15.499C171.36 15.109 172.123 14.901 172.816 14.875ZM170.32 17.787V17.891C170.32 18.853 171.014 19.4597 172.4 19.711H173.076C174.246 19.711 175.044 19.295 175.468 18.463C175.503 18.4023 175.52 18.333 175.52 18.255V18.151C175.52 17.2237 175.243 16.669 174.688 16.487C174.099 16.175 173.423 16.019 172.66 16.019C171.915 16.019 171.239 16.3137 170.632 16.903C170.424 17.3017 170.32 17.5963 170.32 17.787ZM174.493 19.997C174.875 19.997 175.065 20.2917 175.065 20.881V20.985C175.065 21.3923 175.083 21.8603 175.117 22.389H175.169C175.455 22.389 176.079 22.4063 177.041 22.441C177.241 22.5103 177.379 22.6317 177.457 22.805V23.013C177.388 23.3597 177.215 23.533 176.937 23.533H168.617C168.271 23.4637 168.097 23.2903 168.097 23.013V22.961C168.097 22.5797 168.392 22.389 168.981 22.389H170.437L170.489 21.869V20.621C170.55 20.2397 170.741 20.049 171.061 20.049C171.382 20.049 171.573 20.2917 171.633 20.777V21.505C171.633 21.687 171.616 21.9817 171.581 22.389H173.973C173.939 21.245 173.921 20.6037 173.921 20.465C174.034 20.153 174.225 19.997 174.493 19.997ZM179.879 14.446C180.295 14.446 180.503 14.8967 180.503 15.798V20.79C180.434 21.1713 180.243 21.362 179.931 21.362C179.585 21.2667 179.411 21.0933 179.411 20.842C179.411 20.244 179.394 18.424 179.359 15.382L179.307 15.018C179.377 14.6367 179.567 14.446 179.879 14.446ZM179.775 22.454H179.983C180.399 22.5407 180.607 22.7487 180.607 23.078V23.338C180.521 23.754 180.313 23.962 179.983 23.962H179.775C179.42 23.962 179.212 23.6847 179.151 23.13C179.273 22.6793 179.481 22.454 179.775 22.454Z" fill="black"/>
<path d="M108.247 46.1592C107.85 46.6067 107.15 46.6067 106.753 46.1592L99.5 38L115.5 38L108.247 46.1592Z" fill="white"/>
</svg>
