<svg width="238" height="45" viewBox="0 0 238 45" fill="none" xmlns="http://www.w3.org/2000/svg">
<rect width="238" height="36" rx="10" fill="white"/>
<path d="M20.257 12.314V20.92H19.191V12.314H20.257ZM17.865 18.463L17.358 19.295C16.006 18.866 14.94 17.943 14.407 16.747C13.9 18.034 12.834 19.048 11.456 19.516L10.936 18.684C12.678 18.112 13.861 16.643 13.861 15.018V14.719H11.209V13.861H13.861V12.353H14.927V13.861H17.553V14.719H14.914V15.018C14.914 16.552 16.136 17.93 17.865 18.463ZM13.822 22.831H20.608V23.702H12.756V20.127H13.822V22.831ZM33.204 18.073V18.944H28.446V23.975H27.367V18.944H22.661V18.073H30.396C30.76 16.396 30.76 15.161 30.76 14.069V13.913H23.974V13.055H31.8V14.069C31.8 15.161 31.8 16.396 31.475 18.073H33.204ZM37.246 20.413C38.156 20.413 38.754 19.23 38.754 17.319C38.754 15.447 38.156 14.264 37.246 14.264C36.31 14.264 35.725 15.447 35.725 17.319C35.725 19.23 36.31 20.413 37.246 20.413ZM41.185 16.838V12.561H42.199V23.39H41.185V17.709H39.716C39.625 19.997 38.676 21.401 37.246 21.401C35.725 21.401 34.75 19.841 34.75 17.319C34.75 14.836 35.725 13.276 37.246 13.276C38.65 13.276 39.586 14.641 39.716 16.838H41.185ZM43.499 12.301H44.513V23.962H43.499V12.301ZM53.027 17.072V12.613H54.041V23.377H53.027V17.93H50.635C49.933 19.282 48.815 20.491 47.203 21.453L46.579 20.686C49.075 19.191 50.323 17.098 50.518 14.654H47.073V13.783H51.571C51.571 14.927 51.402 16.032 51.012 17.072H53.027ZM55.458 12.301H56.472V23.962H55.458V12.301ZM70.3322 13.887V13.757H63.4422V12.899H71.3852V13.887C71.3852 14.823 71.3852 15.772 71.0602 16.968L70.0202 16.851C70.3322 15.655 70.3322 14.797 70.3322 13.887ZM67.4072 23.117C69.2402 23.117 70.4102 22.623 70.4102 21.817C70.4102 20.985 69.2402 20.491 67.4072 20.491C65.5872 20.491 64.4172 20.985 64.4172 21.817C64.4172 22.623 65.5872 23.117 67.4072 23.117ZM67.4072 19.672C69.8902 19.672 71.4762 20.465 71.4762 21.817C71.4762 23.143 69.8902 23.949 67.4072 23.949C64.9242 23.949 63.3512 23.143 63.3512 21.817C63.3512 20.465 64.9242 19.672 67.4072 19.672ZM67.5762 17.735H72.6982V18.593H62.2072V17.735H66.5102V15.499H67.5762V17.735ZM79.3922 13.627C77.6242 13.627 76.4152 14.277 76.4152 15.304C76.4152 16.331 77.6242 16.994 79.3922 16.994C81.1732 16.994 82.3822 16.331 82.3822 15.304C82.3822 14.277 81.1732 13.627 79.3922 13.627ZM79.3922 17.852C76.9742 17.852 75.3232 16.864 75.3232 15.304C75.3232 13.744 76.9742 12.769 79.3922 12.769C81.8232 12.769 83.4742 13.744 83.4742 15.304C83.4742 16.864 81.8232 17.852 79.3922 17.852ZM84.6962 18.944V19.815H81.9402V23.962H80.8612V19.815H77.9362V23.962H76.8572V19.815H74.1402V18.944H84.6962ZM88.9852 20.374C89.8822 20.374 90.5322 19.633 90.5322 18.593C90.5322 17.579 89.8822 16.838 88.9852 16.838C88.0752 16.838 87.4382 17.579 87.4382 18.593C87.4382 19.633 88.0752 20.374 88.9852 20.374ZM88.9852 15.941C90.4282 15.941 91.4812 17.033 91.4812 18.593C91.4812 20.179 90.4282 21.258 88.9852 21.258C87.5422 21.258 86.4892 20.179 86.4892 18.593C86.4892 17.033 87.5422 15.941 88.9852 15.941ZM89.5052 12.639V14.29H91.8712V15.161H86.0862V14.29H88.4522V12.639H89.5052ZM94.9522 12.288H95.9792V23.949H94.9522V18.086H93.4572V23.39H92.4562V12.561H93.4572V17.215H94.9522V12.288ZM102.715 19.373L102.299 18.528C104.561 18.164 106.459 16.799 106.459 15.005H102.702V14.147H106.459V12.561H107.538V14.147H111.282V15.005H107.538C107.538 16.799 109.436 18.164 111.698 18.528L111.282 19.373C109.41 19.035 107.733 18.099 107.005 16.669C106.264 18.099 104.587 19.035 102.715 19.373ZM107.538 21.609H112.296V22.493H101.714V21.609H106.459V18.957H107.538V21.609ZM114.635 14.68L121.863 14.459C121.876 14.095 121.876 13.77 121.876 13.484H114.921V12.652H122.916V13.38C122.916 14.212 122.916 15.265 122.656 16.695L121.603 16.617C121.694 16.097 121.759 15.629 121.798 15.213L114.778 15.538L114.635 14.68ZM116.013 21.869V22.961H123.215V23.78H114.973V21.089H121.811V20.01H114.934V19.204H122.864V21.869H116.013ZM119.029 17.371H124.203V18.216H113.686V17.371H117.963V15.98H119.029V17.371ZM135.187 12.301V20.192H134.121V12.301H135.187ZM126.243 15.525H130.455V13.913H126.204V13.042H131.508V16.344H127.283V18.047C129.428 18.047 130.936 17.982 132.73 17.67L132.834 18.528C130.975 18.853 129.428 18.918 127.179 18.918H126.243V15.525ZM131.963 19.607V19.945C131.963 21.57 133.783 22.779 135.876 23.104L135.473 23.923C133.705 23.611 132.119 22.74 131.417 21.414C130.728 22.753 129.116 23.611 127.361 23.923L126.945 23.104C129.025 22.779 130.871 21.583 130.871 19.945V19.607H131.963ZM142.856 13.302C140.945 13.302 139.853 13.744 139.853 14.524C139.853 15.304 140.945 15.746 142.856 15.746C144.767 15.746 145.859 15.304 145.859 14.524C145.859 13.744 144.767 13.302 142.856 13.302ZM142.856 16.539C140.295 16.539 138.761 15.837 138.761 14.524C138.761 13.211 140.295 12.496 142.856 12.496C145.417 12.496 146.951 13.211 146.951 14.524C146.951 15.837 145.417 16.539 142.856 16.539ZM139.931 21.817V23H147.133V23.832H138.891V21.037H145.729V19.997H138.852V19.191H146.782V21.817H139.931ZM137.578 17.332H148.134V18.19H137.578V17.332ZM156.86 18.84V21.583H160.11V18.84C159.616 18.957 159.057 19.022 158.472 19.022C157.9 19.022 157.341 18.957 156.86 18.84ZM158.472 13.874C156.6 13.874 155.261 14.732 155.261 16.032C155.261 17.332 156.6 18.19 158.472 18.19C160.344 18.19 161.696 17.332 161.696 16.032C161.696 14.732 160.344 13.874 158.472 13.874ZM161.176 21.583H163.789V22.467H153.194V21.583H155.794V18.437C154.819 17.93 154.234 17.085 154.234 16.032C154.234 14.212 156.002 13.042 158.472 13.042C160.955 13.042 162.71 14.212 162.71 16.032C162.71 17.085 162.138 17.917 161.176 18.424V21.583ZM171.367 15.616H173.694V12.301H174.773V19.373H173.694V16.5H171.367V15.616ZM172.069 18.047L171.562 18.879C170.223 18.463 169.17 17.592 168.637 16.461C168.143 17.735 167.09 18.723 165.712 19.178L165.192 18.359C166.908 17.774 168.078 16.357 168.078 14.784V14.563H165.491V13.705H168.078V12.236H169.144V13.705H171.718V14.563H169.144V14.784C169.144 16.24 170.353 17.54 172.069 18.047ZM170.912 23.117C172.68 23.117 173.746 22.623 173.746 21.804C173.746 20.998 172.693 20.504 170.912 20.504C169.157 20.504 168.104 20.998 168.104 21.804C168.104 22.623 169.157 23.117 170.912 23.117ZM170.912 19.672C173.33 19.672 174.812 20.452 174.812 21.804C174.812 23.169 173.33 23.949 170.912 23.949C168.52 23.949 167.038 23.169 167.038 21.804C167.038 20.452 168.52 19.672 170.912 19.672ZM180.011 20.374C180.908 20.374 181.558 19.633 181.558 18.593C181.558 17.579 180.908 16.838 180.011 16.838C179.101 16.838 178.464 17.579 178.464 18.593C178.464 19.633 179.101 20.374 180.011 20.374ZM180.011 15.941C181.454 15.941 182.507 17.033 182.507 18.593C182.507 20.179 181.454 21.258 180.011 21.258C178.568 21.258 177.515 20.179 177.515 18.593C177.515 17.033 178.568 15.941 180.011 15.941ZM180.531 12.639V14.29H182.897V15.161H177.112V14.29H179.478V12.639H180.531ZM185.978 12.288H187.005V23.949H185.978V18.086H184.483V23.39H183.482V12.561H184.483V17.215H185.978V12.288ZM191.385 16.084V18.229H197.339V16.084H191.385ZM194.895 21.596H199.653V22.467H189.084V21.596H193.816V19.087H190.332V13.133H191.385V15.213H197.339V13.133H198.379V19.087H194.895V21.596ZM204.501 13.406V15.59C204.501 17.462 205.372 19.438 206.906 20.374L206.295 21.206C205.19 20.53 204.41 19.295 203.994 17.878C203.578 19.425 202.733 20.738 201.576 21.453L200.913 20.66C202.512 19.724 203.474 17.631 203.474 15.629V13.406H204.501ZM207.569 16.487V12.561H208.57V23.39H207.569V17.371H205.645V16.487H207.569ZM209.935 12.301H210.949V23.962H209.935V12.301ZM216.655 18.84V21.583H219.905V18.84C219.411 18.957 218.852 19.022 218.267 19.022C217.695 19.022 217.136 18.957 216.655 18.84ZM218.267 13.874C216.395 13.874 215.056 14.732 215.056 16.032C215.056 17.332 216.395 18.19 218.267 18.19C220.139 18.19 221.491 17.332 221.491 16.032C221.491 14.732 220.139 13.874 218.267 13.874ZM220.971 21.583H223.584V22.467H212.989V21.583H215.589V18.437C214.614 17.93 214.028 17.085 214.028 16.032C214.028 14.212 215.797 13.042 218.267 13.042C220.75 13.042 222.505 14.212 222.505 16.032C222.505 17.085 221.933 17.917 220.971 18.424V21.583ZM226.709 13.5455L226.617 20.3409H225.546L225.453 13.5455H226.709ZM226.081 23.0739C225.853 23.0739 225.658 22.9923 225.495 22.8292C225.332 22.6661 225.25 22.4706 225.25 22.2429C225.25 22.0152 225.332 21.8197 225.495 21.6566C225.658 21.4935 225.853 21.4119 226.081 21.4119C226.309 21.4119 226.504 21.4935 226.667 21.6566C226.831 21.8197 226.912 22.0152 226.912 22.2429C226.912 22.3937 226.874 22.5322 226.797 22.6584C226.723 22.7846 226.623 22.8861 226.497 22.9631C226.374 23.0369 226.235 23.0739 226.081 23.0739Z" fill="black"/>
<path d="M119.747 44.1592C119.35 44.6067 118.65 44.6067 118.253 44.1592L111 36L127 36L119.747 44.1592Z" fill="white"/>
</svg>
